NotoNastaliqUrdu.glyphspackage
{
glyphname = exclam;
layers = (
{
layerId = "67C28EBA-5AA6-4F74-BBA1-5BB358529C60";
shapes = (
{
closed = 1;
nodes = (
(295,267,l),
(298,305,o),
(302,342,o),
(307,376,cs),
(325,495,o),
(347,640,o),
(347,717,cs),
(347,801,o),
(335,862,o),
(326,876,c),
(317,876,l),
(296,865,o),
(212,787,o),
(204,753,c),
(204,749,ls),
(204,729,o),
(209,674,o),
(221,606,cs),
(235,527,ls),
(249,449,o),
(262,361,o),
(269,267,c)
);
},
{
closed = 1;
nodes = (
(283,1,l),
(350,46,o),
(382,87,o),
(382,114,cs),
(382,145,o),
(352,172,o),
(289,212,c),
(279,212,l),
(260,197,o),
(189,119,o),
(176,98,c),
(176,88,l),
(204,67,o),
(236,39,o),
(275,1,c)
);
}
);
width = 487;
},
{
layerId = "0A5D7F3A-D11E-4113-AD15-39410F1DC5C2";
shapes = (
{
closed = 1;
nodes = (
(289,267,l),
(294,305,o),
(301,341,o),
(306,376,cs),
(325,523,o),
(329,576,o),
(329,718,cs),
(329,772,o),
(321,839,o),
(315,870,c),
(306,870,l),
(293,859,o),
(243,783,o),
(236,745,c),
(236,734,ls),
(236,715,o),
(240,671,o),
(247,606,cs),
(255,527,ls),
(264,443,o),
(266,361,o),
(269,267,c)
);
},
{
closed = 1;
nodes = (
(273,20,l),
(328,62,o),
(353,87,o),
(353,111,cs),
(353,136,o),
(329,159,o),
(278,191,c),
(269,191,l),
(252,181,o),
(201,125,o),
(186,100,c),
(186,90,l),
(214,71,o),
(246,41,o),
(265,20,c)
);
}
);
width = 600;
}
);
note = exclam;
unicode = 33;
}
{
glyphname = parenleft;
layers = (
{
layerId = "67C28EBA-5AA6-4F74-BBA1-5BB358529C60";
shapes = (
{
closed = 1;
nodes = (
(395,-212,l),
(250,-108,o),
(188,97,o),
(188,340,cs),
(188,553,o),
(243,759,o),
(399,869,c),
(381,898,l),
(203,800,o),
(30,600,o),
(30,324,cs),
(30,58,o),
(147,-120,o),
(377,-240,c)
);
}
);
width = 400;
},
{
layerId = "0A5D7F3A-D11E-4113-AD15-39410F1DC5C2";
shapes = (
{
closed = 1;
nodes = (
(366,-191,l),
(206,-89,o),
(147,110,o),
(147,340,cs),
(147,556,o),
(208,746,o),
(369,848,c),
(352,875,l),
(165,776,o),
(41,555,o),
(41,333,cs),
(41,92,o),
(145,-110,o),
(348,-218,c)
);
}
);
width = 380;
}
);
note = parenleft;
unicode = 40;
}
{
glyphname = parenright;
layers = (
{
layerId = "67C28EBA-5AA6-4F74-BBA1-5BB358529C60";
shapes = (
{
closed = 1;
nodes = (
(199,-141,o),
(370,60,o),
(370,334,cs),
(370,605,o),
(248,781,o),
(23,898,c),
(5,870,l),
(140,774,o),
(212,581,o),
(212,318,cs),
(212,74,o),
(140,-115,o),
(1,-211,c),
(19,-240,l)
);
}
);
width = 400;
},
{
layerId = "0A5D7F3A-D11E-4113-AD15-39410F1DC5C2";
shapes = (
{
closed = 1;
nodes = (
(218,-111,o),
(339,104,o),
(339,324,cs),
(339,565,o),
(237,765,o),
(32,875,c),
(14,848,l),
(174,746,o),
(233,542,o),
(233,317,cs),
(233,107,o),
(174,-88,o),
(11,-191,c),
(28,-218,l)
);
}
);
width = 380;
}
);
unicode = 41;
}
{
glyphname = plus;
layers = (
{
layerId = "67C28EBA-5AA6-4F74-BBA1-5BB358529C60";
shapes = (
{
closed = 1;
nodes = (
(321,62,l),
(321,287,l),
(554,287,l),
(554,338,l),
(321,338,l),
(321,562,l),
(270,562,l),
(270,338,l),
(40,338,l),
(40,287,l),
(270,287,l),
(270,62,l)
);
}
);
width = 593;
},
{
layerId = "0A5D7F3A-D11E-4113-AD15-39410F1DC5C2";
shapes = (
{
closed = 1;
nodes = (
(304,85,l),
(304,291,l),
(518,291,l),
(518,334,l),
(304,334,l),
(304,539,l),
(261,539,l),
(261,334,l),
(50,334,l),
(50,291,l),
(261,291,l),
(261,85,l)
);
}
);
width = 567;
}
);
unicode = 43;
}
{
glyphname = comma;
layers = (
{
layerId = "0A5D7F3A-D11E-4113-AD15-39410F1DC5C2";
shapes = (
{
closed = 1;
nodes = (
(208,-78,o),
(254,15,o),
(254,81,cs),
(254,104,o),
(247,125,o),
(233,143,cs),
(226,152,o),
(209,167,o),
(181,189,c),
(171,189,l),
(149,173,o),
(132,159,o),
(119,145,cs),
(100,125,o),
(90,108,o),
(90,94,cs),
(90,82,o),
(97,69,o),
(110,57,cs),
(130,39,o),
(145,26,o),
(156,16,cs),
(161,12,o),
(164,8,o),
(167,5,cs),
(174,-3,o),
(178,-13,o),
(178,-23,cs),
(178,-49,o),
(153,-92,o),
(126,-133,c),
(144,-146,l)
);
}
);
width = 357;
},
{
layerId = "67C28EBA-5AA6-4F74-BBA1-5BB358529C60";
shapes = (
{
closed = 1;
nodes = (
(233,-95,o),
(286,8,o),
(286,77,cs),
(286,114,o),
(275,143,o),
(253,167,cs),
(240,182,o),
(222,196,o),
(200,208,c),
(189,208,l),
(162,189,o),
(140,169,o),
(121,147,cs),
(102,125,o),
(93,108,o),
(93,95,cs),
(93,80,o),
(99,69,o),
(108,59,cs),
(116,50,o),
(126,42,o),
(159,13,cs),
(169,5,o),
(175,-2,o),
(180,-9,cs),
(186,-19,o),
(188,-28,o),
(188,-39,cs),
(188,-70,o),
(170,-101,o),
(130,-161,c),
(156,-178,l)
);
}
);
width = 366;
}
);
unicode = 44;
}
{
glyphname = hyphen;
layers = (
{
layerId = "67C28EBA-5AA6-4F74-BBA1-5BB358529C60";
shapes = (
{
closed = 1;
nodes = (
(423,270,l),
(431,343,l),
(64,343,l),
(56,270,l)
);
}
);
width = 487;
},
{
layerId = "0A5D7F3A-D11E-4113-AD15-39410F1DC5C2";
shapes = (
{
closed = 1;
nodes = (
(400,275,l),
(407,338,l),
(73,338,l),
(66,275,l)
);
}
);
width = 473;
}
);
note = hyphen;
unicode = 45;
}
{
glyphname = period;
layers = (
{
layerId = "67C28EBA-5AA6-4F74-BBA1-5BB358529C60";
shapes = (
{
closed = 1;
nodes = (
(147,1,l),
(214,45,o),
(254,90,o),
(254,122,cs),
(254,157,o),
(220,185,o),
(155,228,c),
(143,228,l),
(124,216,o),
(63,150,o),
(32,107,c),
(32,95,l),
(67,70,o),
(100,39,o),
(139,1,c)
);
}
);
width = 286;
},
{
layerId = "0A5D7F3A-D11E-4113-AD15-39410F1DC5C2";
shapes = (
{
closed = 1;
nodes = (
(134,20,l),
(188,58,o),
(216,91,o),
(216,114,cs),
(216,144,o),
(188,167,o),
(138,199,c),
(129,199,l),
(118,191,o),
(63,135,o),
(42,103,c),
(42,94,l),
(70,71,o),
(97,48,o),
(125,20,c)
);
}
);
width = 258;
}
);
note = period;
unicode = 46;
}
{
glyphname = slash;
layers = (
{
layerId = "67C28EBA-5AA6-4F74-BBA1-5BB358529C60";
shapes = (
{
closed = 1;
nodes = (
(155,1,o),
(220,140,o),
(286,279,cs),
(370,455,o),
(457,632,o),
(524,762,c),
(469,778,l),
(403,652,o),
(329,504,o),
(255,349,cs),
(211,256,o),
(95,1,o),
(52,-93,c),
(104,-113,l)
);
}
);
width = 554;
},
{
layerId = "0A5D7F3A-D11E-4113-AD15-39410F1DC5C2";
shapes = (
{
closed = 1;
nodes = (
(175,44,o),
(237,176,o),
(306,320,cs),
(380,475,o),
(459,634,o),
(524,762,c),
(479,776,l),
(403,630,o),
(340,503,o),
(265,347,cs),
(201,214,o),
(131,64,o),
(62,-93,c),
(104,-111,l)
);
}
);
width = 564;
}
);
unicode = 47;
}
{
glyphname = zero;
layers = (
{
layerId = "67C28EBA-5AA6-4F74-BBA1-5BB358529C60";
shapes = (
{
closed = 1;
nodes = (
(463,0,o),
(537,161,o),
(537,348,cs),
(537,529,o),
(456,683,o),
(293,683,cs),
(126,683,o),
(43,535,o),
(43,352,cs),
(43,157,o),
(123,0,o),
(293,0,cs)
);
},
{
closed = 1;
nodes = (
(240,39,o),
(222,109,o),
(222,348,cs),
(222,565,o),
(236,642,o),
(293,642,cs),
(342,642,o),
(355,570,o),
(355,330,cs),
(355,192,o),
(355,39,o),
(293,39,cs)
);
}
);
width = 580;
},
{
layerId = "0A5D7F3A-D11E-4113-AD15-39410F1DC5C2";
shapes = (
{
closed = 1;
nodes = (
(435,0,o),
(523,138,o),
(523,340,cs),
(523,517,o),
(440,663,o),
(279,663,cs),
(114,663,o),
(31,518,o),
(31,341,cs),
(31,158,o),
(107,0,o),
(278,0,cs)
);
},
{
closed = 1;
nodes = (
(208,39,o),
(157,104,o),
(157,340,cs),
(157,550,o),
(204,623,o),
(279,623,cs),
(352,623,o),
(397,549,o),
(397,340,cs),
(397,190,o),
(381,39,o),
(278,39,cs)
);
}
);
width = 554;
}
);
unicode = 48;
}
{
glyphname = one;
layers = (
{
layerId = "67C28EBA-5AA6-4F74-BBA1-5BB358529C60";
shapes = (
{
closed = 1;
nodes = (
(253,0,l),
(370,74,o),
(407,110,o),
(407,204,cs),
(407,675,l),
(390,683,l),
(304,637,o),
(169,573,o),
(74,536,c),
(95,490,l),
(136,504,o),
(182,523,o),
(236,548,c),
(236,0,l)
);
}
);
width = 580;
},
{
layerId = "0A5D7F3A-D11E-4113-AD15-39410F1DC5C2";
shapes = (
{
closed = 1;
nodes = (
(253,0,l),
(323,70,o),
(342,103,o),
(342,192,cs),
(342,663,l),
(326,671,l),
(218,608,o),
(134,562,o),
(75,533,c),
(92,501,l),
(118,514,o),
(157,536,o),
(234,578,c),
(234,0,l)
);
}
);
width = 554;
}
);
note = one;
unicode = 49;
}
{
glyphname = two;
layers = (
{
layerId = "67C28EBA-5AA6-4F74-BBA1-5BB358529C60";
shapes = (
{
closed = 1;
nodes = (
(148,20,o),
(226,24,o),
(303,24,cs),
(390,24,o),
(455,16,o),
(498,0,c),
(512,0,l),
(525,45,o),
(529,62,o),
(529,85,cs),
(529,127,o),
(510,146,o),
(484,156,cs),
(449,169,o),
(399,176,o),
(336,176,cs),
(260,176,o),
(245,173,o),
(187,163,c),
(209,197,o),
(241,226,o),
(295,264,cs),
(451,374,o),
(497,444,o),
(497,512,cs),
(497,628,o),
(410,683,o),
(276,683,cs),
(186,683,o),
(128,655,o),
(74,597,c),
(108,562,l),
(156,608,o),
(186,622,o),
(227,622,cs),
(297,622,o),
(321,565,o),
(321,509,cs),
(321,434,o),
(289,375,o),
(200,289,cs),
(97,190,o),
(53,112,o),
(53,3,c),
(74,-2,l)
);
}
);
width = 580;
},
{
layerId = "0A5D7F3A-D11E-4113-AD15-39410F1DC5C2";
shapes = (
{
closed = 1;
nodes = (
(149,16,o),
(208,24,o),
(279,24,cs),
(358,24,o),
(418,16,o),
(458,0,c),
(472,0,l),
(482,32,o),
(487,51,o),
(487,72,cs),
(487,94,o),
(479,109,o),
(454,121,cs),
(416,139,o),
(370,144,o),
(319,144,cs),
(259,144,o),
(222,138,o),
(165,120,c),
(190,168,o),
(215,200,o),
(273,251,cs),
(410,372,o),
(448,439,o),
(448,524,cs),
(448,602,o),
(394,670,o),
(276,670,cs),
(213,670,o),
(152,654,o),
(90,584,c),
(115,556,l),
(158,604,o),
(195,622,o),
(240,622,cs),
(319,622,o),
(339,553,o),
(339,504,cs),
(339,433,o),
(315,376,o),
(220,268,cs),
(125,159,o),
(92,85,o),
(83,4,c),
(104,-1,l)
);
}
);
width = 554;
}
);
unicode = 50;
}
{
glyphname = three;
layers = (
{
layerId = "67C28EBA-5AA6-4F74-BBA1-5BB358529C60";
shapes = (
{
closed = 1;
nodes = (
(378,0,o),
(522,56,o),
(522,209,cs),
(522,321,o),
(415,365,o),
(357,371,c),
(443,401,o),
(496,458,o),
(496,533,cs),
(496,628,o),
(406,683,o),
(276,683,cs),
(188,683,o),
(126,661,o),
(76,614,c),
(111,573,l),
(148,605,o),
(188,621,o),
(230,621,cs),
(290,621,o),
(319,578,o),
(319,522,cs),
(319,465,o),
(286,416,o),
(223,391,cs),
(174,372,l),
(198,309,l),
(253,328,l),
(305,321,o),
(342,282,o),
(342,202,cs),
(342,121,o),
(297,71,o),
(225,71,cs),
(181,71,o),
(147,80,o),
(78,126,c),
(42,81,l),
(101,27,o),
(174,0,o),
(259,0,cs)
);
}
);
width = 580;
},
{
layerId = "0A5D7F3A-D11E-4113-AD15-39410F1DC5C2";
shapes = (
{
closed = 1;
nodes = (
(344,0,o),
(461,62,o),
(461,202,cs),
(461,311,o),
(361,366,o),
(310,373,c),
(399,411,o),
(444,462,o),
(444,526,cs),
(444,630,o),
(358,670,o),
(271,670,cs),
(209,670,o),
(157,658,o),
(86,603,c),
(111,573,l),
(151,606,o),
(192,622,o),
(234,622,cs),
(292,622,o),
(334,586,o),
(334,514,cs),
(334,439,o),
(274,396,o),
(207,373,cs),
(178,363,l),
(192,325,l),
(251,340,l),
(323,331,o),
(345,259,o),
(345,206,cs),
(345,92,o),
(288,48,o),
(213,48,cs),
(153,48,o),
(119,71,o),
(65,112,c),
(42,82,l),
(101,27,o),
(170,0,o),
(252,0,cs)
);
}
);
width = 554;
}
);
unicode = 51;
}
{
glyphname = four;
layers = (
{
layerId = "67C28EBA-5AA6-4F74-BBA1-5BB358529C60";
shapes = (
{
closed = 1;
nodes = (
(302,0,l),
(442,22,o),
(451,59,o),
(451,92,cs),
(451,160,l),
(492,160,o),
(526,159,o),
(553,158,c),
(565,260,l),
(540,262,o),
(502,263,o),
(451,263,c),
(451,683,l),
(344,683,l),
(192,475,o),
(106,351,o),
(26,215,c),
(26,153,l),
(111,157,o),
(195,159,o),
(280,159,c),
(280,0,l)
);
},
{
closed = 1;
nodes = (
(163,316,o),
(215,396,o),
(285,497,c),
(282,464,o),
(280,421,o),
(280,367,cs),
(280,262,l),
(217,262,o),
(166,260,o),
(129,256,c)
);
}
);
width = 580;
},
{
layerId = "0A5D7F3A-D11E-4113-AD15-39410F1DC5C2";
shapes = (
{
closed = 1;
nodes = (
(326,0,l),
(379,17,o),
(407,44,o),
(407,101,cs),
(407,196,l),
(449,196,o),
(482,195,o),
(509,194,c),
(521,269,l),
(496,271,o),
(458,272,o),
(407,272,c),
(407,670,l),
(377,670,l),
(257,544,o),
(175,431,o),
(26,205,c),
(26,180,l),
(95,191,o),
(168,196,o),
(304,196,c),
(304,0,l)
);
},
{
closed = 1;
nodes = (
(183,361,o),
(261,465,o),
(310,527,c),
(306,496,o),
(304,455,o),
(304,402,cs),
(304,272,l),
(228,272,o),
(167,270,o),
(123,266,c)
);
}
);
width = 554;
}
);
unicode = 52;
}
{
glyphname = five;
layers = (
{
layerId = "67C28EBA-5AA6-4F74-BBA1-5BB358529C60";
shapes = (
{
closed = 1;
nodes = (
(418,0,o),
(521,86,o),
(521,208,cs),
(521,343,o),
(444,411,o),
(276,411,cs),
(229,411,o),
(191,407,o),
(162,398,c),
(177,519,l),
(226,506,o),
(247,502,o),
(307,502,cs),
(363,502,o),
(401,511,o),
(433,528,cs),
(470,548,o),
(491,574,o),
(491,628,cs),
(491,647,o),
(487,664,o),
(480,679,c),
(459,679,l),
(400,658,o),
(375,654,o),
(311,654,cs),
(233,654,o),
(211,659,o),
(141,683,c),
(114,679,l),
(80,333,l),
(125,320,l),
(158,335,o),
(182,343,o),
(229,343,cs),
(306,343,o),
(344,298,o),
(344,208,cs),
(344,120,o),
(297,76,o),
(226,76,cs),
(176,76,o),
(136,95,o),
(87,129,c),
(50,72,l),
(77,50,o),
(110,33,o),
(148,20,cs),
(186,7,o),
(227,0,o),
(271,0,cs)
);
}
);
width = 580;
},
{
layerId = "0A5D7F3A-D11E-4113-AD15-39410F1DC5C2";
shapes = (
{
closed = 1;
nodes = (
(404,0,o),
(471,95,o),
(471,201,cs),
(471,346,o),
(359,395,o),
(261,395,cs),
(220,395,o),
(184,390,o),
(154,380,c),
(168,535,l),
(212,525,o),
(232,522,o),
(286,522,cs),
(330,522,o),
(367,528,o),
(396,541,cs),
(426,554,o),
(445,573,o),
(445,612,cs),
(445,631,o),
(441,648,o),
(434,663,c),
(413,663,l),
(366,647,o),
(343,644,o),
(290,644,cs),
(234,644,o),
(219,646,o),
(159,667,c),
(132,663,l),
(100,330,l),
(122,324,l),
(157,340,o),
(181,347,o),
(221,347,cs),
(311,347,o),
(355,298,o),
(355,201,cs),
(355,112,o),
(314,52,o),
(232,52,cs),
(183,52,o),
(138,63,o),
(74,111,c),
(53,81,l),
(77,56,o),
(106,37,o),
(140,22,cs),
(173,7,o),
(211,0,o),
(255,0,cs)
);
}
);
width = 554;
}
);
unicode = 53;
}
{
glyphname = six;
layers = (
{
layerId = "67C28EBA-5AA6-4F74-BBA1-5BB358529C60";
shapes = (
{
closed = 1;
nodes = (
(442,0,o),
(532,98,o),
(532,218,cs),
(532,334,o),
(461,415,o),
(342,415,cs),
(292,415,o),
(251,405,o),
(220,384,c),
(225,543,o),
(273,623,o),
(366,623,cs),
(416,623,o),
(442,609,o),
(478,589,c),
(510,631,l),
(469,666,o),
(416,683,o),
(352,683,cs),
(124,683,o),
(60,474,o),
(60,328,cs),
(60,190,o),
(103,88,o),
(178,37,cs),
(215,12,o),
(256,0,o),
(303,0,cs)
);
},
{
closed = 1;
nodes = (
(243,50,o),
(222,131,o),
(219,312,c),
(239,332,o),
(268,346,o),
(299,346,cs),
(342,346,o),
(372,293,o),
(372,209,cs),
(372,158,o),
(367,119,o),
(358,92,cs),
(349,64,o),
(331,50,o),
(308,50,cs)
);
}
);
width = 580;
},
{
layerId = "0A5D7F3A-D11E-4113-AD15-39410F1DC5C2";
shapes = (
{
closed = 1;
nodes = (
(423,1,o),
(516,110,o),
(516,221,cs),
(516,325,o),
(445,399,o),
(327,399,cs),
(265,399,o),
(215,386,o),
(171,351,c),
(180,564,o),
(266,622,o),
(341,622,cs),
(390,622,o),
(411,614,o),
(443,594,c),
(465,616,l),
(436,644,o),
(398,663,o),
(332,663,cs),
(145,663,o),
(47,512,o),
(47,324,cs),
(47,153,o),
(109,70,o),
(167,35,cs),
(204,13,o),
(244,1,o),
(290,1,cs)
);
},
{
closed = 1;
nodes = (
(201,48,o),
(172,137,o),
(171,306,c),
(197,332,o),
(239,348,o),
(278,348,cs),
(354,348,o),
(394,283,o),
(394,201,cs),
(394,156,o),
(385,120,o),
(367,91,cs),
(349,62,o),
(324,48,o),
(292,48,cs)
);
}
);
width = 554;
}
);
note = six;
unicode = 54;
}
{
glyphname = seven;
layers = (
{
layerId = "67C28EBA-5AA6-4F74-BBA1-5BB358529C60";
shapes = (
{
closed = 1;
nodes = (
(206,0,l),
(349,77,l),
(384,253,o),
(451,446,o),
(550,656,c),
(526,671,l),
(455,654,o),
(374,645,o),
(283,645,cs),
(216,645,o),
(160,658,o),
(113,683,c),
(89,683,l),
(79,653,o),
(74,621,o),
(74,586,cs),
(74,539,o),
(91,517,o),
(129,509,cs),
(166,501,o),
(207,497,o),
(254,497,cs),
(330,497,o),
(374,504,o),
(432,524,c),
(370,430,o),
(318,345,o),
(278,267,cs),
(224,165,o),
(189,76,o),
(172,0,c)
);
}
);
width = 580;
},
{
layerId = "0A5D7F3A-D11E-4113-AD15-39410F1DC5C2";
shapes = (
{
closed = 1;
nodes = (
(170,0,l),
(268,66,l),
(314,238,o),
(383,420,o),
(486,655,c),
(462,670,l),
(406,653,o),
(342,644,o),
(270,644,cs),
(202,644,o),
(145,650,o),
(98,663,c),
(74,663,l),
(67,648,o),
(63,631,o),
(63,612,cs),
(63,566,o),
(78,542,o),
(118,535,cs),
(156,528,o),
(192,523,o),
(227,523,cs),
(293,523,o),
(331,527,o),
(380,546,c),
(332,454,o),
(286,359,o),
(242,263,cs),
(198,167,o),
(163,79,o),
(136,0,c)
);
}
);
width = 554;
}
);
unicode = 55;
}
{
glyphname = eight;
layers = (
{
layerId = "67C28EBA-5AA6-4F74-BBA1-5BB358529C60";
shapes = (
{
closed = 1;
nodes = (
(447,1,o),
(536,76,o),
(536,184,cs),
(536,270,o),
(500,318,o),
(388,375,c),
(478,412,o),
(513,460,o),
(513,530,cs),
(513,615,o),
(436,682,o),
(297,682,cs),
(111,682,o),
(66,587,o),
(66,511,cs),
(66,437,o),
(102,388,o),
(188,342,c),
(143,327,o),
(108,306,o),
(83,279,cs),
(58,252,o),
(45,216,o),
(45,171,cs),
(45,122,o),
(65,81,o),
(105,49,cs),
(144,17,o),
(204,1,o),
(284,1,cs)
);
},
{
closed = 1;
nodes = (
(241,63,o),
(198,96,o),
(198,181,cs),
(198,234,o),
(215,275,o),
(249,304,c),
(327,265,o),
(366,218,o),
(366,163,cs),
(366,131,o),
(359,106,o),
(345,89,cs),
(331,72,o),
(312,63,o),
(289,63,cs)
);
},
{
closed = 1;
nodes = (
(257,436,o),
(232,478,o),
(232,530,cs),
(232,590,o),
(253,620,o),
(295,620,cs),
(340,620,o),
(363,576,o),
(363,526,cs),
(363,502,o),
(360,481,o),
(355,463,cs),
(347,440,o),
(336,421,o),
(319,408,c)
);
}
);
width = 580;
},
{
layerId = "0A5D7F3A-D11E-4113-AD15-39410F1DC5C2";
shapes = (
{
closed = 1;
nodes = (
(409,0,o),
(502,63,o),
(502,176,cs),
(502,237,o),
(472,302,o),
(348,363,c),
(426,408,o),
(481,448,o),
(481,525,cs),
(481,600,o),
(416,663,o),
(282,663,cs),
(151,663,o),
(69,588,o),
(69,501,cs),
(69,440,o),
(96,378,o),
(199,326,c),
(153,303,o),
(121,281,o),
(98,259,cs),
(63,223,o),
(52,187,o),
(52,143,cs),
(52,101,o),
(71,67,o),
(110,40,cs),
(148,13,o),
(204,0,o),
(275,0,cs)
);
},
{
closed = 1;
nodes = (
(199,40,o),
(168,100,o),
(168,153,cs),
(168,219,o),
(192,268,o),
(236,300,c),
(339,250,o),
(386,206,o),
(386,144,cs),
(386,113,o),
(376,88,o),
(357,69,cs),
(338,50,o),
(311,40,o),
(276,40,cs)
);
},
{
closed = 1;
nodes = (
(213,438,o),
(188,479,o),
(188,533,cs),
(188,576,o),
(213,623,o),
(282,623,cs),
(355,623,o),
(375,566,o),
(375,522,cs),
(375,493,o),
(370,469,o),
(360,450,cs),
(350,431,o),
(332,410,o),
(307,388,c)
);
}
);
width = 554;
}
);
note = eight;
unicode = 56;
}
{
glyphname = nine;
layers = (
{
layerId = "67C28EBA-5AA6-4F74-BBA1-5BB358529C60";
shapes = (
{
closed = 1;
nodes = (
(343,0,o),
(413,32,o),
(457,97,cs),
(501,162,o),
(522,254,o),
(522,375,cs),
(522,487,o),
(494,561,o),
(453,608,cs),
(405,663,o),
(338,681,o),
(278,681,cs),
(150,681,o),
(53,599,o),
(53,458,cs),
(53,323,o),
(139,249,o),
(247,249,cs),
(296,249,o),
(336,262,o),
(365,287,c),
(362,218,o),
(351,164,o),
(330,123,cs),
(309,82,o),
(273,61,o),
(222,61,cs),
(175,61,o),
(147,72,o),
(109,97,c),
(75,54,l),
(95,39,o),
(120,26,o),
(149,16,cs),
(178,6,o),
(210,0,o),
(247,0,cs)
);
},
{
closed = 1;
nodes = (
(242,317,o),
(211,353,o),
(211,467,cs),
(211,528,o),
(217,571,o),
(229,595,cs),
(241,619,o),
(258,631,o),
(282,631,cs),
(348,631,o),
(360,512,o),
(361,363,c),
(356,350,o),
(347,339,o),
(335,330,c),
(322,321,o),
(307,317,o),
(290,317,cs)
);
}
);
width = 580;
},
{
layerId = "0A5D7F3A-D11E-4113-AD15-39410F1DC5C2";
shapes = (
{
closed = 1;
nodes = (
(278,0,o),
(329,17,o),
(373,50,cs),
(477,128,o),
(508,260,o),
(508,357,cs),
(508,460,o),
(486,537,o),
(441,587,cs),
(396,637,o),
(338,663,o),
(264,663,cs),
(164,663,o),
(39,592,o),
(39,440,cs),
(39,309,o),
(144,253,o),
(248,253,cs),
(311,253,o),
(356,282,o),
(383,316,c),
(380,250,o),
(360,174,o),
(324,120,cs),
(295,77,o),
(254,47,o),
(203,47,cs),
(164,47,o),
(149,52,o),
(100,77,c),
(77,48,l),
(98,33,o),
(119,21,o),
(139,13,cs),
(159,5,o),
(187,0,o),
(221,0,cs)
);
},
{
closed = 1;
nodes = (
(195,297,o),
(162,343,o),
(162,449,cs),
(162,516,o),
(173,566,o),
(198,595,cs),
(214,615,o),
(237,625,o),
(268,625,cs),
(358,625,o),
(383,527,o),
(384,382,c),
(375,357,o),
(361,337,o),
(341,321,cs),
(321,305,o),
(297,297,o),
(268,297,cs)
);
}
);
width = 554;
}
);
unicode = 57;
}
{
glyphname = colon;
layers = (
{
layerId = "67C28EBA-5AA6-4F74-BBA1-5BB358529C60";
shapes = (
{
closed = 1;
nodes = (
(161,346,l),
(207,378,o),
(253,418,o),
(253,451,cs),
(253,483,o),
(222,508,o),
(167,543,c),
(157,543,l),
(140,532,o),
(79,465,o),
(61,437,c),
(61,427,l),
(90,406,o),
(100,398,o),
(153,346,c)
);
},
{
closed = 1;
nodes = (
(163,11,l),
(209,43,o),
(255,83,o),
(255,116,cs),
(255,148,o),
(224,173,o),
(169,208,c),
(159,208,l),
(142,197,o),
(81,130,o),
(63,102,c),
(63,92,l),
(92,71,o),
(103,61,o),
(155,11,c)
);
}
);
width = 315;
},
{
layerId = "0A5D7F3A-D11E-4113-AD15-39410F1DC5C2";
shapes = (
{
closed = 1;
nodes = (
(162,354,l),
(216,393,o),
(245,426,o),
(245,449,cs),
(245,479,o),
(217,502,o),
(167,534,c),
(158,534,l),
(146,526,o),
(92,470,o),
(70,438,c),
(70,429,l),
(98,407,o),
(125,383,o),
(153,354,c)
);
},
{
closed = 1;
nodes = (
(165,20,l),
(219,58,o),
(247,91,o),
(247,114,cs),
(247,144,o),
(219,167,o),
(169,199,c),
(160,199,l),
(148,191,o),
(94,135,o),
(73,103,c),
(73,94,l),
(101,71,o),
(128,48,o),
(156,20,c)
);
}
);
width = 317;
}
);
note = colon;
unicode = 58;
}
{
glyphname = equal;
layers = (
{
layerId = "67C28EBA-5AA6-4F74-BBA1-5BB358529C60";
shapes = (
{
closed = 1;
nodes = (
(554,377,l),
(554,429,l),
(40,429,l),
(40,377,l)
);
},
{
closed = 1;
nodes = (
(554,190,l),
(554,242,l),
(40,242,l),
(40,190,l)
);
}
);
width = 593;
},
{
layerId = "0A5D7F3A-D11E-4113-AD15-39410F1DC5C2";
shapes = (
{
closed = 1;
nodes = (
(518,373,l),
(518,416,l),
(50,416,l),
(50,373,l)
);
},
{
closed = 1;
nodes = (
(518,203,l),
(518,246,l),
(50,246,l),
(50,203,l)
);
}
);
width = 567;
}
);
note = equal;
unicode = 61;
}
{
glyphname = bracketleft;
layers = (
{
layerId = "67C28EBA-5AA6-4F74-BBA1-5BB358529C60";
shapes = (
{
closed = 1;
nodes = (
(377,-191,l),
(377,-149,l),
(235,-149,l),
(235,807,l),
(377,807,l),
(377,849,l),
(132,849,l),
(132,-191,l)
);
}
);
width = 399;
},
{
layerId = "0A5D7F3A-D11E-4113-AD15-39410F1DC5C2";
shapes = (
{
closed = 1;
nodes = (
(366,-189,l),
(366,-152,l),
(237,-152,l),
(237,810,l),
(366,810,l),
(366,846,l),
(143,846,l),
(143,-189,l)
);
}
);
width = 397;
}
);
note = bracketleft;
unicode = 91;
}
{
glyphname = backslash;
layers = (
{
layerId = "67C28EBA-5AA6-4F74-BBA1-5BB358529C60";
shapes = (
{
closed = 1;
nodes = (
(491,-105,l),
(435,15,o),
(360,183,o),
(287,352,cs),
(221,507,o),
(155,663,o),
(105,785,c),
(52,768,l),
(113,616,o),
(174,468,o),
(234,328,cs),
(303,168,o),
(371,18,o),
(436,-120,c)
);
}
);
width = 533;
},
{
layerId = "0A5D7F3A-D11E-4113-AD15-39410F1DC5C2";
shapes = (
{
closed = 1;
nodes = (
(490,-105,l),
(445,-7,o),
(331,247,o),
(290,345,cs),
(224,502,o),
(164,639,o),
(104,783,c),
(62,767,l),
(118,625,o),
(182,473,o),
(248,320,cs),
(313,168,o),
(379,20,o),
(446,-118,c)
);
}
);
width = 543;
}
);
unicode = 92;
}
{
glyphname = bracketright;
layers = (
{
layerId = "67C28EBA-5AA6-4F74-BBA1-5BB358529C60";
shapes = (
{
closed = 1;
nodes = (
(266,-191,l),
(266,849,l),
(21,849,l),
(21,807,l),
(162,807,l),
(162,-149,l),
(21,-149,l),
(21,-191,l)
);
}
);
width = 399;
},
{
layerId = "0A5D7F3A-D11E-4113-AD15-39410F1DC5C2";
shapes = (
{
closed = 1;
nodes = (
(255,-189,l),
(255,846,l),
(32,846,l),
(32,810,l),
(160,810,l),
(160,-152,l),
(32,-152,l),
(32,-189,l)
);
}
);
width = 397;
}
);
note = bracketright;
unicode = 93;
}
{
glyphname = braceleft;
layers = (
{
layerId = "67C28EBA-5AA6-4F74-BBA1-5BB358529C60";
shapes = (
{
closed = 1;
nodes = (
(348,-210,o),
(359,-209,o),
(370,-207,c),
(363,-165,l),
(358,-167,o),
(347,-168,o),
(328,-168,cs),
(264,-168,o),
(239,-126,o),
(239,-31,cs),
(239,1,o),
(247,103,o),
(247,157,cs),
(247,253,o),
(197,304,o),
(97,320,c),
(97,324,l),
(197,338,o),
(247,389,o),
(247,487,cs),
(247,560,o),
(239,610,o),
(239,689,cs),
(239,767,o),
(254,825,o),
(328,825,cs),
(343,825,o),
(354,824,o),
(363,821,c),
(368,864,l),
(349,866,o),
(337,867,o),
(323,867,cs),
(210,867,o),
(92,794,o),
(92,641,cs),
(92,579,o),
(101,524,o),
(101,454,cs),
(101,368,o),
(80,345,o),
(37,342,cs),
(25,341,l),
(25,303,l),
(37,302,ls),
(87,299,o),
(101,269,o),
(101,193,cs),
(101,133,o),
(92,32,o),
(92,16,cs),
(92,-143,o),
(218,-209,o),
(323,-210,cs)
);
}
);
width = 392;
},
{
layerId = "0A5D7F3A-D11E-4113-AD15-39410F1DC5C2";
shapes = (
{
closed = 1;
nodes = (
(318,-189,o),
(336,-187,o),
(345,-186,c),
(342,-151,l),
(332,-154,o),
(320,-155,o),
(307,-155,cs),
(253,-155,o),
(207,-124,o),
(207,-24,cs),
(207,15,o),
(214,130,o),
(214,176,cs),
(214,206,o),
(209,315,o),
(104,333,c),
(104,337,l),
(205,356,o),
(214,454,o),
(214,493,cs),
(214,579,o),
(207,597,o),
(207,680,cs),
(207,755,o),
(231,812,o),
(307,812,cs),
(320,812,o),
(331,811,o),
(342,809,c),
(348,843,l),
(335,845,o),
(319,846,o),
(303,846,cs),
(204,846,o),
(113,786,o),
(113,629,cs),
(113,605,o),
(121,507,o),
(121,459,cs),
(121,388,o),
(106,357,o),
(46,352,cs),
(35,351,l),
(35,318,l),
(46,317,ls),
(99,312,o),
(121,292,o),
(121,208,cs),
(121,133,o),
(113,72,o),
(113,28,cs),
(113,-128,o),
(204,-189,o),
(303,-189,cs)
);
}
);
width = 380;
}
);
unicode = 123;
}
{
glyphname = bar;
layers = (
{
layerId = "67C28EBA-5AA6-4F74-BBA1-5BB358529C60";
shapes = (
{
closed = 1;
nodes = (
(90,-164,l),
(90,1140,l),
(26,1140,l),
(26,-164,l)
);
}
);
width = 116;
},
{
layerId = "0A5D7F3A-D11E-4113-AD15-39410F1DC5C2";
shapes = (
{
closed = 1;
nodes = (
(90,-165,l),
(90,1140,l),
(26,1140,l),
(26,-165,l)
);
}
);
width = 116;
}
);
unicode = 124;
}
{
glyphname = braceright;
layers = (
{
layerId = "67C28EBA-5AA6-4F74-BBA1-5BB358529C60";
shapes = (
{
closed = 1;
nodes = (
(179,-210,o),
(300,-139,o),
(300,16,cs),
(300,92,o),
(291,157,o),
(291,203,cs),
(291,291,o),
(313,312,o),
(355,315,cs),
(367,316,l),
(367,354,l),
(355,355,ls),
(294,360,o),
(291,408,o),
(291,464,cs),
(291,520,o),
(300,579,o),
(300,641,cs),
(300,808,o),
(166,867,o),
(69,867,cs),
(39,867,o),
(35,866,o),
(22,864,c),
(29,822,l),
(37,824,o),
(45,825,o),
(64,825,cs),
(137,825,o),
(153,769,o),
(153,688,cs),
(153,657,o),
(145,564,o),
(145,500,cs),
(145,410,o),
(189,354,o),
(295,337,c),
(295,333,l),
(192,319,o),
(145,264,o),
(145,170,cs),
(145,95,o),
(153,25,o),
(153,-32,cs),
(153,-132,o),
(123,-168,o),
(64,-168,cs),
(49,-168,o),
(38,-167,o),
(29,-164,c),
(24,-207,l),
(43,-209,o),
(55,-210,o),
(69,-210,cs)
);
}
);
width = 392;
},
{
layerId = "0A5D7F3A-D11E-4113-AD15-39410F1DC5C2";
shapes = (
{
closed = 1;
nodes = (
(174,-189,o),
(266,-129,o),
(266,28,cs),
(266,84,o),
(257,145,o),
(257,208,cs),
(257,294,o),
(282,312,o),
(333,317,cs),
(345,318,l),
(345,351,l),
(334,352,ls),
(278,357,o),
(257,379,o),
(257,459,cs),
(257,490,o),
(266,593,o),
(266,629,cs),
(266,784,o),
(178,846,o),
(77,846,cs),
(63,846,o),
(47,846,o),
(32,843,c),
(39,809,l),
(47,811,o),
(63,812,o),
(73,812,cs),
(147,812,o),
(173,759,o),
(173,680,cs),
(173,657,o),
(165,548,o),
(165,493,cs),
(165,415,o),
(200,351,o),
(276,337,c),
(276,333,l),
(167,315,o),
(165,198,o),
(165,176,cs),
(165,154,o),
(173,0,o),
(173,-24,cs),
(173,-116,o),
(133,-155,o),
(73,-155,cs),
(60,-155,o),
(49,-154,o),
(39,-151,c),
(34,-186,l),
(44,-187,o),
(61,-189,o),
(77,-189,cs)
);
}
);
width = 380;
}
);
note = braceright;
unicode = 125;
}
{
glyphname = guillemotleft;
layers = (
{
layerId = "67C28EBA-5AA6-4F74-BBA1-5BB358529C60";
shapes = (
{
closed = 1;
nodes = (
(191,17,l),
(194,20,o),
(231,117,o),
(234,134,c),
(184,184,o),
(158,242,o),
(158,347,cs),
(158,417,o),
(188,506,o),
(232,567,c),
(208,585,l),
(139,510,o),
(74,398,o),
(74,255,cs),
(74,142,o),
(112,60,o),
(176,15,c)
);
},
{
closed = 1;
nodes = (
(407,52,l),
(410,55,o),
(446,150,o),
(446,162,c),
(386,216,o),
(358,273,o),
(358,361,cs),
(358,423,o),
(384,508,o),
(430,569,c),
(406,586,l),
(316,491,o),
(274,385,o),
(274,275,cs),
(274,187,o),
(313,103,o),
(392,50,c)
);
}
);
width = 520;
},
{
layerId = "0A5D7F3A-D11E-4113-AD15-39410F1DC5C2";
shapes = (
{
closed = 1;
nodes = (
(189,62,l),
(192,64,o),
(217,126,o),
(221,143,c),
(171,190,o),
(147,252,o),
(147,331,cs),
(147,393,o),
(172,473,o),
(216,533,c),
(200,547,l),
(123,462,o),
(84,352,o),
(84,266,cs),
(84,188,o),
(113,104,o),
(180,60,c)
);
},
{
closed = 1;
nodes = (
(367,95,l),
(373,102,o),
(393,157,o),
(396,176,c),
(338,224,o),
(323,277,o),
(323,343,cs),
(323,397,o),
(345,471,o),
(392,536,c),
(375,549,l),
(304,471,o),
(260,374,o),
(260,279,cs),
(260,198,o),
(293,136,o),
(358,93,c)
);
}
);
width = 481;
}
);
unicode = 171;
}
{
glyphname = periodcentered;
layers = (
{
layerId = "67C28EBA-5AA6-4F74-BBA1-5BB358529C60";
shapes = (
{
closed = 1;
nodes = (
(132,257,l),
(178,289,o),
(224,329,o),
(224,362,cs),
(224,394,o),
(193,419,o),
(138,454,c),
(128,454,l),
(111,443,o),
(50,376,o),
(32,348,c),
(32,338,l),
(61,317,o),
(70,309,o),
(124,257,c)
);
}
);
width = 256;
},
{
layerId = "0A5D7F3A-D11E-4113-AD15-39410F1DC5C2";
shapes = (
{
closed = 1;
nodes = (
(134,266,l),
(188,304,o),
(216,337,o),
(216,360,cs),
(216,390,o),
(188,414,o),
(138,445,c),
(129,445,l),
(118,437,o),
(63,381,o),
(42,349,c),
(42,340,l),
(70,318,o),
(97,293,o),
(125,266,c)
);
}
);
width = 258;
}
);
note = periodcentered;
unicode = 183;
}
{
glyphname = guillemotright;
layers = (
{
layerId = "67C28EBA-5AA6-4F74-BBA1-5BB358529C60";
shapes = (
{
closed = 1;
nodes = (
(382,101,o),
(446,213,o),
(446,355,cs),
(446,474,o),
(405,552,o),
(344,595,c),
(329,593,l),
(319,571,o),
(286,491,o),
(286,476,c),
(335,427,o),
(362,367,o),
(362,263,cs),
(362,193,o),
(334,106,o),
(288,43,c),
(312,25,l)
);
},
{
closed = 1;
nodes = (
(184,98,o),
(246,201,o),
(246,335,cs),
(246,434,o),
(198,513,o),
(128,560,c),
(113,558,l),
(111,556,o),
(74,461,o),
(74,448,c),
(132,396,o),
(162,339,o),
(162,249,cs),
(162,196,o),
(141,108,o),
(90,41,c),
(114,24,l)
);
}
);
width = 520;
},
{
layerId = "0A5D7F3A-D11E-4113-AD15-39410F1DC5C2";
shapes = (
{
closed = 1;
nodes = (
(365,152,o),
(396,269,o),
(396,343,cs),
(396,409,o),
(377,497,o),
(301,549,c),
(292,547,l),
(288,544,o),
(262,478,o),
(260,467,c),
(310,419,o),
(334,356,o),
(334,279,cs),
(334,216,o),
(308,137,o),
(265,77,c),
(281,63,l)
);
},
{
closed = 1;
nodes = (
(176,138,o),
(221,235,o),
(221,331,cs),
(221,411,o),
(188,473,o),
(122,516,c),
(113,514,l),
(106,503,o),
(88,453,o),
(84,433,c),
(146,383,o),
(158,327,o),
(158,266,cs),
(158,211,o),
(135,138,o),
(89,73,c),
(105,60,l)
);
}
);
width = 481;
}
);
unicode = 187;
}
{
glyphname = "multiply-ar";
layers = (
{
layerId = "67C28EBA-5AA6-4F74-BBA1-5BB358529C60";
shapes = (
{
closed = 1;
nodes = (
(517,123,l),
(327,312,l),
(518,503,l),
(485,534,l),
(296,345,l),
(106,534,l),
(71,502,l),
(261,312,l),
(71,121,l),
(103,90,l),
(292,279,l),
(482,89,l)
);
}
);
width = 589;
},
{
layerId = "0A5D7F3A-D11E-4113-AD15-39410F1DC5C2";
shapes = (
{
closed = 1;
nodes = (
(486,140,l),
(313,312,l),
(485,484,l),
(455,514,l),
(283,342,l),
(110,514,l),
(81,484,l),
(253,312,l),
(82,140,l),
(111,110,l),
(283,282,l),
(455,110,l)
);
}
);
width = 567;
}
);
note = "multiply-ar";
unicode = 215;
}
{
glyphname = DivideArabic;
layers = (
{
background = {
shapes = (
{
closed = 1;
nodes = (
(296,414,l),
(344,448,o),
(374,479,o),
(374,504,cs),
(374,532,o),
(346,555,o),
(300,583,c),
(292,583,l),
(281,575,o),
(227,518,o),
(210,492,c),
(210,484,l),
(236,463,o),
(262,443,o),
(288,414,c)
);
}
);
};
layerId = "67C28EBA-5AA6-4F74-BBA1-5BB358529C60";
shapes = (
{
closed = 1;
nodes = (
(554,286,l),
(554,338,l),
(40,338,l),
(40,286,l)
);
},
{
ref = _smallmathnukta;
},
{
pos = (0,372);
ref = _smallmathnukta;
}
);
width = 593;
},
{
background = {
shapes = (
{
closed = 1;
nodes = (
(285,430,l),
(323,458,o),
(342,479,o),
(342,495,cs),
(342,514,o),
(328,530,o),
(288,555,c),
(281,555,l),
(272,550,o),
(237,511,o),
(221,488,c),
(221,481,l),
(234,472,o),
(253,455,o),
(278,430,c)
);
}
);
};
layerId = "0A5D7F3A-D11E-4113-AD15-39410F1DC5C2";
shapes = (
{
closed = 1;
nodes = (
(518,291,l),
(518,334,l),
(50,334,l),
(50,291,l)
);
},
{
ref = _smallmathnukta;
},
{
pos = (0,360);
ref = _smallmathnukta;
}
);
width = 567;
}
);
note = DivideArabic;
unicode = 247;
}
{
glyphname = "number-ar";
layers = (
{
anchors = (
{
name = Anchor25;
pos = (800,379);
}
);
layerId = "67C28EBA-5AA6-4F74-BBA1-5BB358529C60";
shapes = (
{
closed = 1;
nodes = (
(862,-83,o),
(1057,16,o),
(1269,148,cs),
(1307,173,o),
(1328,177,o),
(1363,177,cs),
(1386,177,o),
(1411,164,o),
(1441,148,cs),
(1463,137,o),
(1475,132,o),
(1488,132,cs),
(1553,132,o),
(1607,236,o),
(1607,280,cs),
(1607,312,o),
(1587,326,o),
(1522,355,cs),
(1491,369,o),
(1480,382,o),
(1480,397,cs),
(1480,442,o),
(1528,494,o),
(1557,519,c),
(1569,533,o),
(1621,663,o),
(1624,688,c),
(1613,693,l),
(1573,657,o),
(1508,577,o),
(1454,477,cs),
(1428,427,o),
(1403,366,o),
(1392,327,c),
(1381,317,o),
(1365,303,o),
(1338,277,cs),
(1315,254,o),
(1285,235,o),
(1245,217,cs),
(1069,135,o),
(741,109,o),
(575,109,cs),
(380,109,o),
(222,129,o),
(135,150,c),
(124,139,l),
(118,119,o),
(115,85,o),
(115,64,cs),
(115,26,o),
(127,-30,o),
(213,-53,cs),
(295,-75,o),
(415,-83,o),
(516,-83,cs)
);
}
);
width = 1699;
},
{
anchors = (
{
name = Anchor25;
pos = (700,279);
}
);
layerId = "0A5D7F3A-D11E-4113-AD15-39410F1DC5C2";
shapes = (
{
closed = 1;
nodes = (
(765,-25,o),
(923,29,o),
(1108,144,cs),
(1141,165,o),
(1159,169,o),
(1189,169,cs),
(1209,169,o),
(1231,158,o),
(1257,144,cs),
(1276,134,o),
(1287,130,o),
(1298,130,cs),
(1346,130,o),
(1395,223,o),
(1395,261,cs),
(1395,289,o),
(1377,298,o),
(1328,324,cs),
(1311,333,o),
(1302,345,o),
(1302,358,cs),
(1302,397,o),
(1344,442,o),
(1369,464,c),
(1380,476,o),
(1425,589,o),
(1428,611,c),
(1418,615,l),
(1383,584,o),
(1327,514,o),
(1280,427,cs),
(1257,384,o),
(1235,331,o),
(1226,297,c),
(1216,288,o),
(1202,276,o),
(1179,253,cs),
(1159,233,o),
(1133,217,o),
(1098,201,cs),
(945,130,o),
(660,107,o),
(515,107,cs),
(346,107,o),
(206,123,o),
(130,141,c),
(123,133,l),
(118,116,o),
(115,104,o),
(115,85,cs),
(115,52,o),
(125,16,o),
(201,1,cs),
(272,-13,o),
(376,-25,o),
(464,-25,cs)
);
}
);
width = 1503;
}
);
unicode = 1536;
}
{
glyphname = "year-ar";
layers = (
{
anchors = (
{
name = Anchor25;
pos = (770,393);
}
);
layerId = "67C28EBA-5AA6-4F74-BBA1-5BB358529C60";
shapes = (
{
closed = 1;
nodes = (
(168,-194,o),
(207,-157,o),
(265,-157,cs),
(297,-157,o),
(341,-173,o),
(387,-173,cs),
(458,-173,o),
(515,-119,o),
(559,-57,cs),
(579,-29,o),
(595,-14,o),
(609,-14,cs),
(620,-14,o),
(640,-20,o),
(670,-32,cs),
(700,-44,o),
(741,-51,o),
(793,-51,cs),
(968,-51,o),
(1160,43,o),
(1290,145,cs),
(1347,190,o),
(1390,218,o),
(1419,225,c),
(1433,245,o),
(1474,344,o),
(1486,382,c),
(1483,391,l),
(1468,389,o),
(1452,378,o),
(1424,355,cs),
(1235,200,o),
(1060,135,o),
(831,135,cs),
(742,135,o),
(692,157,o),
(674,157,cs),
(656,157,o),
(643,144,o),
(632,132,cs),
(566,60,o),
(555,42,o),
(502,42,cs),
(467,42,o),
(424,55,o),
(397,55,cs),
(325,55,o),
(266,30,o),
(219,-21,cs),
(172,-72,o),
(130,-145,o),
(95,-240,c),
(128,-254,l)
);
}
);
width = 1582;
},
{
anchors = (
{
name = Anchor25;
pos = (609,323);
}
);
layerId = "0A5D7F3A-D11E-4113-AD15-39410F1DC5C2";
shapes = (
{
closed = 1;
nodes = (
(156,-128,o),
(181,-107,o),
(219,-107,cs),
(231,-107,o),
(285,-121,o),
(307,-121,cs),
(357,-121,o),
(389,-89,o),
(433,-33,cs),
(459,0,o),
(469,13,o),
(484,13,cs),
(491,13,o),
(502,9,o),
(516,3,cs),
(554,-13,o),
(595,-21,o),
(642,-21,cs),
(778,-21,o),
(933,48,o),
(1105,186,cs),
(1135,210,o),
(1162,225,o),
(1184,230,c),
(1198,252,o),
(1212,284,o),
(1227,327,c),
(1224,336,l),
(1206,331,o),
(1184,314,o),
(1115,260,cs),
(991,162,o),
(812,103,o),
(659,103,cs),
(575,103,o),
(542,123,o),
(525,123,cs),
(506,123,o),
(498,114,o),
(452,60,cs),
(424,28,o),
(404,18,o),
(369,18,cs),
(347,18,o),
(310,26,o),
(290,26,cs),
(247,26,o),
(209,5,o),
(175,-36,cs),
(149,-67,o),
(126,-110,o),
(105,-165,c),
(123,-174,l)
);
}
);
width = 1333;
}
);
unicode = 1537;
}
{
glyphname = "footnotemarker-ar";
layers = (
{
anchors = (
{
name = Anchor25;
pos = (889,399);
}
);
layerId = "67C28EBA-5AA6-4F74-BBA1-5BB358529C60";
shapes = (
{
closed = 1;
nodes = (
(812,-43,o),
(1235,41,o),
(1488,160,c),
(1507,191,o),
(1535,261,o),
(1544,323,c),
(1533,325,l),
(1267,214,o),
(923,150,o),
(502,132,c),
(513,165,o),
(522,203,o),
(522,250,cs),
(522,346,o),
(468,395,o),
(382,395,cs),
(315,395,o),
(255,360,o),
(202,290,cs),
(149,219,o),
(122,154,o),
(122,95,cs),
(122,2,o),
(183,-43,o),
(337,-43,cs)
);
},
{
closed = 1;
nodes = (
(241,130,o),
(201,151,o),
(201,185,cs),
(201,225,o),
(251,257,o),
(311,257,cs),
(384,257,o),
(454,226,o),
(458,136,c),
(458,130,l),
(405,130,ls)
);
}
);
width = 1648;
},
{
anchors = (
{
name = Anchor25;
pos = (789,318);
}
);
layerId = "0A5D7F3A-D11E-4113-AD15-39410F1DC5C2";
shapes = (
{
closed = 1;
nodes = (
(652,0,o),
(1065,52,o),
(1348,185,c),
(1366,219,o),
(1376,250,o),
(1379,278,c),
(1369,280,l),
(1121,178,o),
(801,119,o),
(411,104,c),
(422,135,o),
(428,167,o),
(428,200,cs),
(428,272,o),
(394,323,o),
(323,323,cs),
(277,323,o),
(230,291,o),
(194,247,cs),
(157,203,o),
(132,146,o),
(132,101,cs),
(132,34,o),
(188,0,o),
(301,0,cs)
);
},
{
closed = 1;
nodes = (
(221,104,o),
(183,126,o),
(183,163,cs),
(183,204,o),
(225,239,o),
(275,239,cs),
(350,239,o),
(387,196,o),
(387,110,cs),
(387,104,l),
(367,104,ls)
);
}
);
width = 1493;
}
);
unicode = 1538;
}
{
glyphname = "pagenumber-ar";
layers = (
{
anchors = (
{
name = Anchor25;
pos = (415,369);
}
);
layerId = "67C28EBA-5AA6-4F74-BBA1-5BB358529C60";
shapes = (
{
closed = 1;
nodes = (
(392,-80,o),
(531,-57,o),
(645,-7,cs),
(680,8,o),
(713,26,o),
(743,46,cs),
(751,51,o),
(754,54,o),
(762,54,cs),
(770,54,o),
(771,52,o),
(784,44,cs),
(840,9,o),
(896,-2,o),
(959,-2,cs),
(1061,-2,o),
(1148,40,o),
(1219,125,cs),
(1290,209,o),
(1326,289,o),
(1326,365,cs),
(1326,422,o),
(1287,466,o),
(1215,466,cs),
(1081,466,o),
(985,357,o),
(879,203,c),
(850,216,o),
(837,218,o),
(827,218,cs),
(812,218,o),
(800,210,o),
(774,190,cs),
(663,104,o),
(554,45,o),
(448,12,cs),
(341,-21,o),
(226,-41,o),
(101,-48,c),
(94,-73,l),
(114,-75,o),
(170,-80,o),
(227,-80,cs)
);
},
{
closed = 1;
nodes = (
(991,173,o),
(964,174,o),
(924,186,c),
(983,259,o),
(1068,303,o),
(1151,303,cs),
(1199,303,o),
(1239,286,o),
(1239,256,cs),
(1239,210,o),
(1090,173,o),
(1024,173,cs)
);
}
);
width = 1463;
},
{
anchors = (
{
name = Anchor25;
pos = (384,305);
}
);
layerId = "0A5D7F3A-D11E-4113-AD15-39410F1DC5C2";
shapes = (
{
closed = 1;
nodes = (
(332,-42,o),
(454,-21,o),
(551,17,cs),
(592,33,o),
(621,51,o),
(641,63,cs),
(655,71,o),
(664,77,o),
(669,77,cs),
(671,77,o),
(677,74,o),
(684,69,cs),
(707,56,o),
(754,28,o),
(822,28,cs),
(905,28,o),
(979,59,o),
(1042,112,cs),
(1094,156,o),
(1184,276,o),
(1184,366,cs),
(1184,397,o),
(1162,430,o),
(1108,430,cs),
(1004,430,o),
(902,341,o),
(763,156,c),
(746,161,o),
(718,178,o),
(701,178,cs),
(692,178,o),
(680,172,o),
(664,158,cs),
(588,89,o),
(491,45,o),
(385,18,cs),
(297,-4,o),
(204,-14,o),
(110,-15,c),
(104,-38,l),
(134,-40,o),
(162,-42,o),
(187,-42,cs)
);
},
{
closed = 1;
nodes = (
(828,141,o),
(817,142,o),
(806,143,c),
(892,256,o),
(954,302,o),
(1026,302,cs),
(1065,302,o),
(1094,284,o),
(1094,259,cs),
(1094,207,o),
(966,142,o),
(839,141,cs)
);
}
);
width = 1331;
}
);
unicode = 1539;
}
{
glyphname = Samvat;
layers = (
{
anchors = (
{
name = Anchor25;
pos = (1038,423);
}
);
layerId = "67C28EBA-5AA6-4F74-BBA1-5BB358529C60";
shapes = (
{
closed = 1;
nodes = (
(764,-65,o),
(979,-48,o),
(1173,-15,cs),
(1367,18,o),
(1522,57,o),
(1638,101,cs),
(1753,145,o),
(1832,180,o),
(1875,207,cs),
(1917,234,o),
(1943,248,o),
(1953,248,cs),
(1961,248,o),
(1968,249,o),
(1976,249,cs),
(1994,249,o),
(2016,242,o),
(2042,228,cs),
(2068,214,o),
(2090,206,o),
(2107,206,cs),
(2164,206,o),
(2224,297,o),
(2224,352,cs),
(2224,371,o),
(2214,387,o),
(2193,399,cs),
(2172,411,o),
(2151,421,o),
(2130,431,cs),
(2108,441,o),
(2097,454,o),
(2097,471,cs),
(2097,493,o),
(2106,515,o),
(2121,531,cs),
(2136,547,o),
(2157,557,o),
(2181,557,cs),
(2203,557,o),
(2226,547,o),
(2250,526,cs),
(2274,505,o),
(2302,495,o),
(2333,495,cs),
(2373,495,o),
(2410,510,o),
(2448,568,c),
(2464,557,o),
(2489,547,o),
(2515,547,cs),
(2587,547,o),
(2644,621,o),
(2688,814,c),
(2653,818,l),
(2629,753,o),
(2603,717,o),
(2560,717,cs),
(2541,717,o),
(2525,723,o),
(2499,743,c),
(2484,742,l),
(2460,709,o),
(2425,674,o),
(2377,674,cs),
(2355,674,o),
(2335,680,o),
(2317,692,cs),
(2299,704,o),
(2276,710,o),
(2249,710,cs),
(2202,710,o),
(2155,675,o),
(2106,605,cs),
(2057,534,o),
(2028,470,o),
(2018,412,c),
(2012,405,o),
(2005,398,o),
(1999,391,c),
(1949,338,ls),
(1937,325,o),
(1919,312,o),
(1895,300,cs),
(1824,262,o),
(1700,227,o),
(1524,194,cs),
(1289,150,o),
(984,128,o),
(607,128,cs),
(423,128,o),
(251,143,o),
(123,169,c),
(112,159,l),
(107,130,o),
(104,112,o),
(104,93,cs),
(104,40,o),
(118,4,o),
(146,-13,cs),
(210,-52,o),
(393,-65,o),
(529,-65,cs)
);
}
);
width = 2792;
},
{
anchors = (
{
name = Anchor25;
pos = (1051,366);
}
);
layerId = "0A5D7F3A-D11E-4113-AD15-39410F1DC5C2";
shapes = (
{
closed = 1;
nodes = (
(790,-30,o),
(982,-19,o),
(1150,2,cs),
(1318,23,o),
(1457,51,o),
(1568,85,cs),
(1679,119,o),
(1763,152,o),
(1822,182,cs),
(1880,211,o),
(1916,225,o),
(1927,227,c),
(1934,228,o),
(1941,229,o),
(1948,229,cs),
(1961,229,o),
(1979,222,o),
(2002,210,cs),
(2024,198,o),
(2041,191,o),
(2050,191,cs),
(2093,191,o),
(2135,275,o),
(2135,307,cs),
(2135,323,o),
(2125,335,o),
(2103,347,cs),
(2094,352,o),
(2085,357,o),
(2076,362,cs),
(2061,370,o),
(2053,380,o),
(2053,392,cs),
(2053,412,o),
(2063,432,o),
(2082,452,cs),
(2101,472,o),
(2130,482,o),
(2168,482,cs),
(2183,482,o),
(2197,477,o),
(2209,465,cs),
(2222,452,o),
(2238,447,o),
(2259,447,cs),
(2295,447,o),
(2328,472,o),
(2357,521,c),
(2370,517,o),
(2381,515,o),
(2393,515,cs),
(2459,515,o),
(2511,574,o),
(2541,706,c),
(2512,712,l),
(2494,653,o),
(2473,625,o),
(2441,625,cs),
(2426,625,o),
(2413,628,o),
(2395,636,c),
(2385,634,l),
(2355,580,o),
(2334,554,o),
(2292,554,cs),
(2280,554,o),
(2267,560,o),
(2252,571,cs),
(2237,582,o),
(2221,589,o),
(2202,589,cs),
(2170,589,o),
(2137,572,o),
(2100,538,cs),
(2056,498,o),
(2010,411,o),
(1994,362,c),
(1988,357,o),
(1981,352,o),
(1975,345,cs),
(1949,314,ls),
(1930,292,o),
(1904,275,o),
(1875,261,cs),
(1825,237,o),
(1677,188,o),
(1445,153,cs),
(1172,112,o),
(894,91,o),
(585,91,cs),
(436,91,o),
(200,101,o),
(127,118,c),
(121,111,l),
(117,96,o),
(114,86,o),
(114,68,cs),
(114,32,o),
(133,9,o),
(171,0,cs),
(255,-20,o),
(384,-30,o),
(571,-30,cs)
);
}
);
width = 2655;
}
);
note = Samvat;
unicode = 1540;
}
{
glyphname = "permille-ar";
layers = (
{
layerId = "67C28EBA-5AA6-4F74-BBA1-5BB358529C60";
shapes = (
{
closed = 1;
nodes = (
(189,444,l),
(253,485,o),
(293,530,o),
(293,562,cs),
(293,589,o),
(276,613,o),
(196,665,c),
(185,665,l),
(170,655,o),
(106,588,o),
(77,546,c),
(77,534,l),
(98,519,o),
(161,464,o),
(181,444,c)
);
},
{
closed = 1;
nodes = (
(482,-8,l),
(541,33,o),
(586,74,o),
(586,110,cs),
(586,137,o),
(569,161,o),
(489,213,c),
(477,213,l),
(462,200,o),
(419,160,o),
(369,94,c),
(369,83,l),
(408,55,o),
(419,44,o),
(473,-8,c)
);
},
{
closed = 1;
nodes = (
(753,-8,l),
(813,34,o),
(856,75,o),
(856,110,cs),
(856,145,o),
(825,170,o),
(760,213,c),
(749,213,l),
(734,203,o),
(670,136,o),
(641,94,c),
(641,83,l),
(667,64,o),
(720,17,o),
(745,-8,c)
);
},
{
ref = _percentslash;
}
);
width = 934;
},
{
layerId = "0A5D7F3A-D11E-4113-AD15-39410F1DC5C2";
shapes = (
{
closed = 1;
nodes = (
(166,488,l),
(213,523,o),
(237,550,o),
(237,570,cs),
(237,594,o),
(218,612,o),
(169,644,c),
(162,644,l),
(148,635,o),
(106,589,o),
(87,561,c),
(87,553,l),
(116,530,o),
(139,508,o),
(158,488,c)
);
},
{
closed = 1;
nodes = (
(402,0,l),
(449,34,o),
(473,62,o),
(473,83,cs),
(473,105,o),
(453,125,o),
(406,155,c),
(398,155,l),
(388,149,o),
(348,108,o),
(323,73,c),
(323,65,l),
(335,57,o),
(376,21,o),
(394,0,c)
);
},
{
closed = 1;
nodes = (
(608,0,l),
(656,35,o),
(679,63,o),
(679,83,cs),
(679,105,o),
(660,125,o),
(613,155,c),
(604,155,l),
(590,145,o),
(549,104,o),
(529,73,c),
(529,65,l),
(542,57,o),
(583,21,o),
(600,0,c)
);
},
{
ref = _percentslash;
}
);
width = 767;
}
);
unicode = 1545;
}
{
glyphname = Afghani;
layers = (
{
layerId = "67C28EBA-5AA6-4F74-BBA1-5BB358529C60";
shapes = (
{
closed = 1;
nodes = (
(265,0,o),
(359,217,o),
(359,435,cs),
(359,540,o),
(319,660,o),
(217,660,cs),
(184,660,o),
(154,642,o),
(132,599,cs),
(121,577,o),
(109,556,o),
(98,534,cs),
(82,503,o),
(70,471,o),
(70,441,cs),
(70,382,o),
(126,345,o),
(180,345,cs),
(216,345,o),
(270,360,o),
(285,370,c),
(292,361,o),
(298,344,o),
(298,326,cs),
(298,266,o),
(251,190,o),
(86,190,cs),
(39,190,o),
(13,142,o),
(13,80,cs),
(13,27,o),
(26,0,o),
(53,0,cs)
);
},
{
closed = 1;
nodes = (
(175,-355,o),
(188,-301,o),
(191,-254,cs),
(194,-202,o),
(195,-182,o),
(197,-160,cs),
(203,-89,o),
(206,-66,o),
(211,-50,c),
(194,-46,l),
(169,-95,o),
(150,-144,o),
(148,-226,cs),
(146,-299,ls),
(145,-336,o),
(142,-371,o),
(136,-403,c),
(153,-405,l)
);
},
{
closed = 1;
nodes = (
(188,787,l),
(234,819,o),
(280,859,o),
(280,892,cs),
(280,924,o),
(249,949,o),
(194,984,c),
(184,984,l),
(167,973,o),
(106,906,o),
(88,878,c),
(88,868,l),
(117,847,o),
(129,835,o),
(180,787,c)
);
}
);
width = 331;
},
{
layerId = "0A5D7F3A-D11E-4113-AD15-39410F1DC5C2";
shapes = (
{
closed = 1;
nodes = (
(203,0,o),
(304,142,o),
(304,331,cs),
(304,427,o),
(268,497,o),
(200,497,cs),
(172,497,o),
(151,482,o),
(137,453,cs),
(120,419,o),
(110,398,o),
(101,379,cs),
(91,357,o),
(89,343,o),
(89,324,cs),
(89,285,o),
(127,254,o),
(169,254,cs),
(192,254,o),
(213,260,o),
(231,272,c),
(240,260,o),
(244,245,o),
(244,227,cs),
(244,195,o),
(225,106,o),
(86,106,cs),
(55,106,o),
(24,80,o),
(24,39,cs),
(24,11,o),
(42,0,o),
(53,0,cs)
);
},
{
closed = 1;
nodes = (
(172,-347,o),
(185,-297,o),
(188,-251,cs),
(190,-223,o),
(191,-195,o),
(193,-167,cs),
(196,-112,o),
(201,-77,o),
(205,-66,c),
(194,-63,l),
(174,-104,o),
(157,-152,o),
(155,-186,cs),
(150,-292,ls),
(148,-328,o),
(146,-366,o),
(142,-387,c),
(153,-390,l)
);
},
{
closed = 1;
nodes = (
(189,612,l),
(244,651,o),
(271,683,o),
(271,707,cs),
(271,729,o),
(254,752,o),
(193,791,c),
(185,791,l),
(168,780,o),
(115,721,o),
(98,695,c),
(98,687,l),
(125,666,o),
(152,641,o),
(180,612,c)
);
}
);
width = 331;
}
);
note = Afghani;
unicode = 1547;
}
{
glyphname = "comma-ar";
layers = (
{
layerId = "67C28EBA-5AA6-4F74-BBA1-5BB358529C60";
shapes = (
{
closed = 1;
nodes = (
(190,2,l),
(217,21,o),
(239,41,o),
(258,63,cs),
(277,85,o),
(286,102,o),
(286,115,cs),
(286,137,o),
(277,147,o),
(242,178,cs),
(235,184,o),
(227,191,o),
(220,197,cs),
(196,218,o),
(191,232,o),
(191,249,cs),
(191,276,o),
(203,302,o),
(249,371,c),
(223,388,l),
(144,304,o),
(93,201,o),
(93,133,cs),
(93,76,o),
(120,36,o),
(179,2,c)
);
}
);
width = 366;
},
{
layerId = "0A5D7F3A-D11E-4113-AD15-39410F1DC5C2";
shapes = (
{
closed = 1;
nodes = (
(186,20,l),
(213,39,o),
(233,56,o),
(246,72,cs),
(260,88,o),
(267,102,o),
(267,114,cs),
(267,126,o),
(260,139,o),
(247,151,c),
(236,161,o),
(226,169,o),
(218,176,cs),
(182,208,o),
(179,216,o),
(179,232,cs),
(179,252,o),
(193,284,o),
(231,342,c),
(213,355,l),
(152,290,o),
(103,197,o),
(103,127,cs),
(103,79,o),
(127,57,o),
(176,20,c)
);
}
);
width = 357;
}
);
unicode = 1548;
}
{
glyphname = "dateseparator-ar";
layers = (
{
layerId = "67C28EBA-5AA6-4F74-BBA1-5BB358529C60";
shapes = (
{
closed = 1;
nodes = (
(181,92,o),
(240,149,o),
(300,188,cs),
(331,208,o),
(356,221,o),
(371,228,cs),
(386,235,o),
(400,263,o),
(412,312,cs),
(424,361,o),
(432,397,o),
(435,420,c),
(422,427,l),
(312,382,o),
(172,253,o),
(104,7,c),
(133,-4,l)
);
}
);
width = 548;
},
{
layerId = "0A5D7F3A-D11E-4113-AD15-39410F1DC5C2";
shapes = (
{
closed = 1;
nodes = (
(165,62,o),
(193,106,o),
(232,147,cs),
(261,178,o),
(296,208,o),
(346,242,cs),
(362,253,o),
(372,259,o),
(387,314,cs),
(398,356,o),
(406,394,o),
(406,407,c),
(390,417,l),
(288,357,o),
(156,177,o),
(114,1,c),
(133,-5,l)
);
}
);
width = 529;
}
);
unicode = 1549;
}
{
glyphname = VerseSign;
layers = (
{
layerId = "67C28EBA-5AA6-4F74-BBA1-5BB358529C60";
shapes = (
{
closed = 1;
nodes = (
(867,-30,o),
(1328,41,o),
(1606,174,c),
(1630,213,o),
(1652,298,o),
(1655,326,c),
(1644,328,l),
(1534,283,o),
(1406,246,o),
(1270,217,cs),
(1042,169,o),
(790,143,o),
(566,135,c),
(586,184,o),
(596,240,o),
(596,286,cs),
(596,372,o),
(538,459,o),
(416,459,cs),
(347,459,o),
(277,421,o),
(208,346,cs),
(139,270,o),
(104,193,o),
(104,114,cs),
(104,-8,o),
(237,-30,o),
(430,-30,cs)
);
},
{
closed = 1;
nodes = (
(354,135,o),
(269,145,o),
(228,167,cs),
(205,180,o),
(195,195,o),
(195,215,cs),
(195,275,o),
(281,311,o),
(348,311,cs),
(456,311,o),
(522,257,o),
(522,141,cs),
(522,135,l),
(502,135,ls)
);
}
);
width = 1750;
},
{
layerId = "0A5D7F3A-D11E-4113-AD15-39410F1DC5C2";
shapes = (
{
closed = 1;
nodes = (
(779,0,o),
(1146,46,o),
(1447,185,c),
(1467,224,o),
(1475,254,o),
(1478,278,c),
(1468,280,l),
(1346,230,o),
(1205,190,o),
(1044,160,cs),
(882,130,o),
(704,111,o),
(509,104,c),
(527,146,o),
(536,186,o),
(536,222,cs),
(536,292,o),
(496,373,o),
(381,373,cs),
(328,373,o),
(270,345,o),
(208,291,cs),
(146,237,o),
(114,179,o),
(114,119,cs),
(114,54,o),
(171,0,o),
(411,0,cs)
);
},
{
closed = 1;
nodes = (
(376,104,o),
(288,107,o),
(219,131,cs),
(194,140,o),
(182,159,o),
(182,185,cs),
(182,246,o),
(254,279,o),
(311,279,cs),
(416,279,o),
(485,224,o),
(485,110,cs),
(485,104,l),
(467,104,ls)
);
}
);
width = 1583;
}
);
note = VerseSign;
unicode = 1550;
}
{
glyphname = Misra;
layers = (
{
layerId = "67C28EBA-5AA6-4F74-BBA1-5BB358529C60";
shapes = (
{
closed = 1;
nodes = (
(112,-419,o),
(122,-398,o),
(131,-378,cs),
(156,-322,l),
(206,-352,o),
(274,-373,o),
(358,-373,cs),
(637,-373,o),
(873,-184,o),
(873,129,cs),
(873,298,o),
(765,359,o),
(659,359,cs),
(493,359,o),
(344,219,o),
(210,-81,c),
(162,-43,o),
(138,10,o),
(138,79,cs),
(138,167,o),
(169,239,o),
(256,321,cs),
(317,378,o),
(446,460,o),
(525,503,cs),
(552,518,o),
(576,539,o),
(595,566,cs),
(614,593,o),
(627,614,o),
(633,629,c),
(616,641,l),
(570,608,o),
(521,577,o),
(474,552,cs),
(439,533,o),
(428,530,o),
(391,530,cs),
(316,530,o),
(254,562,o),
(254,627,cs),
(254,664,o),
(292,717,o),
(383,717,cs),
(419,717,o),
(449,701,o),
(466,685,c),
(478,684,l),
(502,698,o),
(515,727,o),
(515,754,cs),
(515,802,o),
(475,829,o),
(427,829,cs),
(383,829,o),
(337,811,o),
(295,772,cs),
(202,687,o),
(127,608,o),
(127,508,cs),
(127,445,o),
(154,401,o),
(231,373,c),
(86,250,o),
(18,123,o),
(18,-52,cs),
(18,-151,o),
(50,-236,o),
(120,-296,c),
(98,-354,o),
(82,-406,o),
(75,-434,c),
(103,-441,l)
);
},
{
closed = 1;
nodes = (
(353,-139,o),
(299,-129,o),
(256,-108,c),
(328,43,o),
(470,199,o),
(653,199,cs),
(743,199,o),
(822,169,o),
(822,90,cs),
(822,-58,o),
(605,-139,o),
(416,-139,cs)
);
}
);
width = 930;
},
{
layerId = "0A5D7F3A-D11E-4113-AD15-39410F1DC5C2";
shapes = (
{
closed = 1;
nodes = (
(113,-383,o),
(122,-364,o),
(131,-344,c),
(158,-286,l),
(210,-319,o),
(277,-341,o),
(356,-341,cs),
(613,-341,o),
(805,-163,o),
(805,115,cs),
(805,257,o),
(711,323,o),
(620,323,cs),
(434,323,o),
(300,129,o),
(195,-95,c),
(153,-54,o),
(129,0,o),
(129,68,cs),
(129,175,o),
(172,252,o),
(250,322,cs),
(313,380,o),
(400,433,o),
(505,494,cs),
(516,500,o),
(528,515,o),
(539,531,cs),
(551,549,o),
(561,568,o),
(565,578,c),
(552,589,l),
(500,552,o),
(459,527,o),
(408,500,cs),
(397,494,o),
(382,493,o),
(364,493,cs),
(306,493,o),
(250,521,o),
(250,567,cs),
(250,612,o),
(300,653,o),
(362,653,cs),
(380,653,o),
(407,648,o),
(426,630,c),
(435,629,l),
(458,643,o),
(463,671,o),
(463,685,cs),
(463,726,o),
(425,743,o),
(395,743,cs),
(347,743,o),
(292,710,o),
(233,643,cs),
(174,576,o),
(144,521,o),
(144,477,cs),
(144,422,o),
(181,382,o),
(231,367,c),
(104,260,o),
(28,124,o),
(28,-31,cs),
(28,-146,o),
(77,-218,o),
(125,-260,c),
(98,-336,o),
(87,-370,o),
(80,-397,c),
(104,-403,l)
);
},
{
closed = 1;
nodes = (
(343,-172,o),
(281,-157,o),
(233,-125,c),
(293,9,o),
(429,189,o),
(595,189,cs),
(683,189,o),
(763,150,o),
(763,64,cs),
(763,-66,o),
(609,-172,o),
(415,-172,cs)
);
}
);
width = 872;
}
);
note = Misra;
unicode = 1551;
}
{
category = Mark;
glyphname = SallallahNS;
layers = (
{
anchors = (
{
name = Anchor31;
pos = (0,1185);
},
{
name = _Anchor31;
pos = (0,848);
},
{
name = _top;
pos = (0,921);
}
);
layerId = "67C28EBA-5AA6-4F74-BBA1-5BB358529C60";
shapes = (
{
closed = 1;
nodes = (
(-86,869,o),
(-81,890,o),
(-81,953,c),
(-66,941,o),
(-46,939,o),
(-26,939,cs),
(25,939,o),
(70,960,o),
(107,1002,cs),
(144,1044,o),
(162,1083,o),
(162,1119,cs),
(162,1149,o),
(138,1160,o),
(116,1160,cs),
(46,1160,o),
(-4,1095,o),
(-62,1017,c),
(-78,1022,o),
(-87,1038,o),
(-88,1064,cs),
(-89,1090,o),
(-93,1113,o),
(-99,1133,c),
(-109,1133,l),
(-124,1098,o),
(-129,1085,o),
(-134,1072,c),
(-134,1062,o),
(-130,1043,o),
(-126,1012,cs),
(-122,981,o),
(-118,944,o),
(-118,877,cs),
(-118,864,o),
(-119,843,o),
(-120,820,c),
(-105,819,l)
);
},
{
closed = 1;
nodes = (
(-25,1009,o),
(-30,1009,o),
(-35,1009,c),
(-19,1028,ls),
(17,1071,o),
(47,1090,o),
(80,1090,cs),
(95,1090,o),
(115,1086,o),
(115,1069,cs),
(115,1045,o),
(53,1008,o),
(-18,1008,c)
);
}
);
width = 0;
},
{
anchors = (
{
name = Anchor31;
pos = (0,1184);
},
{
name = _Anchor31;
pos = (0,848);
},
{
name = _top;
pos = (0,920);
}
);
layerId = "0A5D7F3A-D11E-4113-AD15-39410F1DC5C2";
shapes = (
{
closed = 1;
nodes = (
(-79,874,o),
(-75,894,o),
(-75,963,c),
(-61,952,o),
(-43,951,o),
(-25,951,cs),
(20,951,o),
(59,969,o),
(93,1007,cs),
(127,1045,o),
(144,1079,o),
(144,1110,cs),
(144,1125,o),
(134,1141,o),
(109,1141,cs),
(47,1141,o),
(-12,1067,o),
(-53,1010,c),
(-71,1016,o),
(-80,1033,o),
(-81,1060,cs),
(-82,1087,o),
(-85,1107,o),
(-90,1120,c),
(-94,1120,l),
(-101,1102,o),
(-115,1072,o),
(-117,1063,c),
(-117,1055,o),
(-115,1035,o),
(-110,1004,cs),
(-105,973,o),
(-103,934,o),
(-103,887,cs),
(-103,845,o),
(-104,842,o),
(-105,835,c),
(-95,833,l)
);
},
{
closed = 1;
nodes = (
(-22,1005,o),
(-27,1005,o),
(-33,1006,c),
(-19,1023,ls),
(15,1065,o),
(41,1080,o),
(71,1080,cs),
(79,1080,o),
(102,1077,o),
(102,1061,cs),
(102,1036,o),
(47,1005,o),
(-17,1005,cs)
);
}
);
width = 0;
}
);
note = SallallahNS;
subCategory = Nonspacing;
unicode = 1552;
}
{
category = Mark;
glyphname = AlayhissalamNS;
layers = (
{
anchors = (
{
name = Anchor31;
pos = (0,1202);
},
{
name = _Anchor31;
pos = (0,826);
},
{
name = _top;
pos = (0,918);
}
);
layerId = "67C28EBA-5AA6-4F74-BBA1-5BB358529C60";
shapes = (
{
closed = 1;
nodes = (
(-79,859,o),
(-76,879,o),
(-76,948,c),
(-63,938,o),
(-48,933,o),
(-29,933,cs),
(45,933,o),
(134,989,o),
(163,1065,c),
(152,1074,l),
(129,1050,o),
(96,1022,o),
(66,1022,cs),
(38,1022,o),
(3,1035,o),
(3,1059,cs),
(3,1084,o),
(32,1099,o),
(53,1099,cs),
(71,1099,o),
(86,1092,o),
(93,1080,c),
(101,1080,l),
(109,1086,o),
(119,1096,o),
(119,1115,cs),
(119,1138,o),
(99,1147,o),
(74,1147,cs),
(21,1147,o),
(-54,1072,o),
(-54,1020,cs),
(-54,1011,o),
(-53,1006,o),
(-49,999,c),
(-70,1004,o),
(-81,1023,o),
(-83,1056,cs),
(-85,1089,o),
(-89,1112,o),
(-94,1124,c),
(-104,1124,l),
(-115,1099,o),
(-124,1077,o),
(-129,1062,c),
(-128,1050,o),
(-126,1033,o),
(-121,1001,cs),
(-116,969,o),
(-113,901,o),
(-113,868,cs),
(-113,849,o),
(-114,830,o),
(-115,811,c),
(-100,810,l)
);
}
);
width = 0;
},
{
anchors = (
{
name = Anchor31;
pos = (0,1202);
},
{
name = _Anchor31;
pos = (0,826);
},
{
name = _top;
pos = (0,918);
}
);
layerId = "0A5D7F3A-D11E-4113-AD15-39410F1DC5C2";
shapes = (
{
closed = 1;
nodes = (
(-72,866,o),
(-68,885,o),
(-68,955,c),
(-58,946,o),
(-43,942,o),
(-24,942,cs),
(21,942,o),
(111,973,o),
(149,1059,c),
(142,1064,l),
(129,1052,o),
(90,1018,o),
(62,1018,cs),
(34,1018,o),
(3,1031,o),
(3,1056,cs),
(3,1081,o),
(31,1093,o),
(52,1093,cs),
(65,1093,o),
(76,1089,o),
(84,1080,c),
(88,1080,l),
(98,1084,o),
(103,1094,o),
(103,1105,cs),
(103,1125,o),
(83,1132,o),
(68,1132,cs),
(25,1132,o),
(-46,1064,o),
(-46,1016,cs),
(-46,1008,o),
(-45,1002,o),
(-43,997,c),
(-63,1002,o),
(-72,1020,o),
(-74,1049,cs),
(-76,1078,o),
(-79,1099,o),
(-83,1111,c),
(-88,1111,l),
(-103,1072,o),
(-110,1058,o),
(-111,1054,c),
(-111,1046,o),
(-108,1027,o),
(-103,996,cs),
(-98,964,o),
(-96,925,o),
(-96,878,cs),
(-96,873,o),
(-97,831,o),
(-99,826,c),
(-89,824,l)
);
}
);
width = 0;
}
);
note = AlayhissalamNS;
subCategory = Nonspacing;
unicode = 1553;
}
{
category = Mark;
glyphname = "rehHahabove-ar";
layers = (
{
anchors = (
{
name = Anchor31;
pos = (0,1208);
},
{
name = _Anchor31;
pos = (0,866);
},
{
name = _top;
pos = (0,962);
}
);
layerId = "67C28EBA-5AA6-4F74-BBA1-5BB358529C60";
shapes = (
{
closed = 1;
nodes = (
(-133,843,l),
(-122,890,o),
(-96,935,o),
(-56,976,cs),
(-16,1017,o),
(18,1045,o),
(47,1061,cs),
(75,1077,o),
(95,1098,o),
(107,1124,c),
(107,1132,l),
(86,1143,o),
(10,1152,o),
(-26,1152,cs),
(-93,1152,o),
(-117,1129,o),
(-138,1062,c),
(-120,1058,l),
(-109,1081,o),
(-96,1086,o),
(-60,1086,cs),
(-46,1086,ls),
(-10,1086,o),
(17,1082,o),
(22,1078,c),
(-93,1002,o),
(-138,940,o),
(-166,867,c),
(-143,843,l)
);
},
{
closed = 1;
nodes = (
(16,870,o),
(45,877,o),
(89,894,c),
(119,919,o),
(160,1002,o),
(183,1111,c),
(167,1114,l),
(150,1068,o),
(134,1034,o),
(119,1011,cs),
(86,959,o),
(-12,889,o),
(-43,872,c),
(-39,856,l)
);
}
);
width = 0;
},
{
anchors = (
{
name = Anchor31;
pos = (0,1208);
},
{
name = _Anchor31;
pos = (0,865);
},
{
name = _top;
pos = (0,962);
}
);
layerId = "0A5D7F3A-D11E-4113-AD15-39410F1DC5C2";
shapes = (
{
closed = 1;
nodes = (
(-130,859,l),
(-120,900,o),
(-96,940,o),
(-59,978,cs),
(-21,1017,o),
(11,1042,o),
(38,1058,cs),
(64,1073,o),
(83,1092,o),
(95,1116,c),
(95,1120,l),
(82,1126,o),
(24,1137,o),
(-21,1137,cs),
(-75,1137,o),
(-100,1122,o),
(-121,1062,c),
(-107,1057,l),
(-97,1078,o),
(-87,1083,o),
(-53,1083,cs),
(-28,1083,ls),
(-23,1083,o),
(17,1082,o),
(26,1077,c),
(-81,1009,o),
(-128,945,o),
(-154,879,c),
(-139,859,l)
);
},
{
closed = 1;
nodes = (
(34,881,o),
(72,893,o),
(85,903,cs),
(106,919,o),
(145,986,o),
(173,1100,c),
(158,1102,l),
(146,1068,o),
(134,1039,o),
(119,1014,cs),
(86,958,o),
(-6,892,o),
(-31,879,c),
(-29,868,l)
);
}
);
width = 0;
}
);
subCategory = Nonspacing;
unicode = 1554;
}
{
category = Mark;
glyphname = RadiallahNS;
layers = (
{
anchors = (
{
name = Anchor31;
pos = (0,1272);
},
{
name = _Anchor31;
pos = (0,831);
},
{
name = _top;
pos = (0,918);
}
);
layerId = "67C28EBA-5AA6-4F74-BBA1-5BB358529C60";
shapes = (
{
closed = 1;
nodes = (
(-142,862,o),
(-137,883,o),
(-137,946,c),
(-122,934,o),
(-102,932,o),
(-82,932,cs),
(-31,932,o),
(14,953,o),
(51,995,cs),
(88,1037,o),
(106,1076,o),
(106,1112,cs),
(106,1142,o),
(82,1153,o),
(60,1153,cs),
(-10,1153,o),
(-60,1088,o),
(-118,1010,c),
(-134,1015,o),
(-143,1031,o),
(-144,1057,cs),
(-145,1083,o),
(-149,1106,o),
(-155,1126,c),
(-165,1126,l),
(-180,1091,o),
(-185,1078,o),
(-190,1065,c),
(-190,1055,o),
(-186,1036,o),
(-182,1005,cs),
(-178,974,o),
(-174,937,o),
(-174,870,cs),
(-174,857,o),
(-175,836,o),
(-176,813,c),
(-161,812,l)
);
},
{
closed = 1;
nodes = (
(-81,1002,o),
(-86,1002,o),
(-91,1002,c),
(-75,1021,ls),
(-39,1064,o),
(-9,1083,o),
(24,1083,cs),
(39,1083,o),
(59,1079,o),
(59,1062,cs),
(59,1038,o),
(-3,1001,o),
(-74,1001,c)
);
},
{
closed = 1;
nodes = (
(23,850,o),
(79,864,o),
(113,879,c),
(143,904,o),
(184,987,o),
(207,1096,c),
(191,1099,l),
(174,1053,o),
(158,1019,o),
(143,996,cs),
(110,944,o),
(12,874,o),
(-19,857,c),
(-15,841,l)
);
},
{
closed = 1;
nodes = (
(-44,1139,l),
(-20,1155,o),
(-7,1171,o),
(-7,1182,cs),
(-7,1192,o),
(-19,1204,o),
(-42,1219,c),
(-46,1219,l),
(-59,1205,o),
(-72,1190,o),
(-85,1176,c),
(-85,1171,l),
(-73,1162,o),
(-60,1151,o),
(-48,1139,c)
);
}
);
width = 0;
},
{
anchors = (
{
name = Anchor31;
pos = (0,1272);
},
{
name = _Anchor31;
pos = (0,830);
},
{
name = _top;
pos = (0,918);
}
);
layerId = "0A5D7F3A-D11E-4113-AD15-39410F1DC5C2";
shapes = (
{
closed = 1;
nodes = (
(-132,868,o),
(-128,888,o),
(-128,957,c),
(-114,946,o),
(-96,945,o),
(-78,945,cs),
(-33,945,o),
(6,963,o),
(40,1001,cs),
(74,1039,o),
(91,1073,o),
(91,1104,cs),
(91,1119,o),
(81,1135,o),
(56,1135,cs),
(-6,1135,o),
(-65,1061,o),
(-106,1004,c),
(-124,1010,o),
(-133,1027,o),
(-134,1054,cs),
(-135,1081,o),
(-138,1101,o),
(-143,1114,c),
(-147,1114,l),
(-154,1096,o),
(-168,1066,o),
(-170,1057,c),
(-170,1049,o),
(-168,1029,o),
(-163,998,cs),
(-158,967,o),
(-156,928,o),
(-156,881,cs),
(-156,839,o),
(-157,836,o),
(-158,829,c),
(-148,827,l)
);
},
{
closed = 1;
nodes = (
(-75,999,o),
(-80,999,o),
(-86,1000,c),
(-72,1017,ls),
(-38,1059,o),
(-12,1074,o),
(18,1074,cs),
(26,1074,o),
(49,1071,o),
(49,1055,cs),
(49,1030,o),
(-6,999,o),
(-70,999,cs)
);
},
{
closed = 1;
nodes = (
(58,866,o),
(96,878,o),
(109,888,cs),
(130,905,o),
(169,974,o),
(197,1084,c),
(182,1087,l),
(170,1053,o),
(157,1023,o),
(143,999,cs),
(110,943,o),
(17,876,o),
(-7,864,c),
(-5,853,l)
);
},
{
closed = 1;
nodes = (
(-44,1143,l),
(-26,1155,o),
(-11,1168,o),
(-11,1181,cs),
(-11,1191,o),
(-20,1201,o),
(-42,1215,c),
(-46,1215,l),
(-51,1210,o),
(-70,1192,o),
(-82,1175,c),
(-82,1171,l),
(-64,1158,o),
(-59,1154,o),
(-48,1143,c)
);
}
);
width = 0;
}
);
note = RadiallahNS;
subCategory = Nonspacing;
unicode = 1555;
}
{
category = Mark;
glyphname = TakhallusNS;
layers = (
{
anchors = (
{
name = Anchor31;
pos = (0,1127);
},
{
name = _Anchor31;
pos = (0,908);
},
{
name = _top;
pos = (0,995);
}
);
layerId = "67C28EBA-5AA6-4F74-BBA1-5BB358529C60";
shapes = (
{
closed = 1;
nodes = (
(-105,882,o),
(-75,890,o),
(-47,902,cs),
(-24,911,o),
(-3,923,o),
(13,935,cs),
(42,956,o),
(61,973,o),
(66,973,cs),
(70,973,o),
(77,969,o),
(87,960,cs),
(97,951,o),
(109,947,o),
(123,947,cs),
(159,947,o),
(184,975,o),
(207,1055,c),
(185,1060,l),
(174,1032,o),
(163,1017,o),
(141,1017,cs),
(133,1017,o),
(125,1021,o),
(117,1029,c),
(108,1037,o),
(100,1041,o),
(93,1041,cs),
(86,1041,o),
(77,1033,o),
(65,1020,cs),
(13,962,o),
(-96,946,o),
(-234,936,c),
(-237,925,l),
(-224,914,o),
(-149,882,o),
(-132,882,cs)
);
}
);
width = 0;
},
{
anchors = (
{
name = Anchor31;
pos = (0,1126);
},
{
name = _Anchor31;
pos = (0,907);
},
{
name = _top;
pos = (0,995);
}
);
layerId = "0A5D7F3A-D11E-4113-AD15-39410F1DC5C2";
shapes = (
{
closed = 1;
nodes = (
(-85,892,o),
(-56,900,o),
(-26,916,cs),
(3,931,o),
(24,944,o),
(36,956,cs),
(47,967,o),
(55,973,o),
(59,973,cs),
(62,973,o),
(68,969,o),
(79,961,cs),
(89,953,o),
(100,948,o),
(110,948,cs),
(147,948,o),
(167,982,o),
(186,1047,c),
(168,1053,l),
(154,1021,o),
(141,1013,o),
(126,1013,cs),
(119,1013,o),
(112,1017,o),
(105,1024,cs),
(98,1031,o),
(91,1035,o),
(84,1035,cs),
(77,1035,o),
(70,1026,o),
(58,1014,c),
(6,958,o),
(-109,946,o),
(-213,938,c),
(-217,932,l),
(-207,922,o),
(-172,909,o),
(-114,892,c)
);
}
);
width = 0;
}
);
note = TakhallusNS;
subCategory = Nonspacing;
unicode = 1556;
}
{
category = Mark;
glyphname = TahSmallAboveNS;
layers = (
{
anchors = (
{
name = Anchor31;
pos = (0,1244);
},
{
name = _Anchor31;
pos = (0,837);
},
{
name = _top;
pos = (0,934);
}
);
layerId = "67C28EBA-5AA6-4F74-BBA1-5BB358529C60";
shapes = (
{
closed = 1;
nodes = (
(-13,822,o),
(15,827,o),
(39,838,cs),
(59,847,o),
(77,860,o),
(92,877,cs),
(125,913,o),
(142,949,o),
(142,984,cs),
(142,1003,o),
(129,1020,o),
(101,1020,cs),
(65,1020,o),
(30,1001,o),
(-5,959,c),
(-6,962,l),
(6,1000,o),
(9,1016,o),
(10,1035,cs),
(16,1134,o),
(21,1172,o),
(27,1191,c),
(10,1194,l),
(-4,1171,o),
(-14,1151,o),
(-20,1132,cs),
(-25,1117,o),
(-28,1102,o),
(-29,1086,cs),
(-32,1039,o),
(-34,993,o),
(-37,946,cs),
(-38,932,o),
(-39,922,o),
(-44,911,cs),
(-50,897,o),
(-61,883,o),
(-82,862,c),
(-99,857,o),
(-123,854,o),
(-150,850,c),
(-152,829,l),
(-123,823,o),
(-82,822,o),
(-44,822,cs)
);
},
{
closed = 1;
nodes = (
(-29,881,o),
(-22,891,o),
(-15,900,cs),
(14,938,o),
(45,957,o),
(72,957,cs),
(82,957,o),
(99,954,o),
(99,938,cs),
(99,922,o),
(62,894,o),
(-36,872,c)
);
}
);
width = 0;
},
{
anchors = (
{
name = Anchor31;
pos = (0,1243);
},
{
name = _Anchor31;
pos = (0,837);
},
{
name = _top;
pos = (0,934);
}
);
layerId = "0A5D7F3A-D11E-4113-AD15-39410F1DC5C2";
shapes = (
{
closed = 1;
nodes = (
(-14,838,o),
(10,844,o),
(35,854,cs),
(53,861,o),
(70,874,o),
(84,889,cs),
(111,918,o),
(129,955,o),
(129,986,cs),
(129,1000,o),
(117,1018,o),
(90,1018,cs),
(48,1018,o),
(18,985,o),
(-4,960,c),
(-2,967,l),
(4,988,o),
(8,1010,o),
(9,1033,cs),
(13,1110,o),
(19,1157,o),
(24,1173,c),
(9,1177,l),
(-3,1158,o),
(-10,1142,o),
(-16,1126,cs),
(-22,1110,o),
(-24,1101,o),
(-26,1081,cs),
(-29,1055,o),
(-31,981,o),
(-34,955,cs),
(-36,937,o),
(-38,925,o),
(-41,917,c),
(-52,903,o),
(-64,889,o),
(-75,875,c),
(-103,869,o),
(-124,865,o),
(-137,864,c),
(-139,845,l),
(-112,840,o),
(-79,838,o),
(-41,838,cs)
);
},
{
closed = 1;
nodes = (
(-26,893,o),
(-20,901,o),
(-14,908,cs),
(20,949,o),
(36,961,o),
(62,961,cs),
(76,961,o),
(87,954,o),
(87,942,cs),
(87,914,o),
(-11,888,o),
(-33,884,c)
);
}
);
width = 0;
}
);
note = TahSmallNS;
subCategory = Nonspacing;
unicode = 1557;
}
{
glyphname = "semicolon-ar";
layers = (
{
background = {
shapes = (
{
closed = 1;
nodes = (
(174,354,l),
(201,373,o),
(223,393,o),
(242,415,cs),
(261,437,o),
(270,454,o),
(270,467,cs),
(270,490,o),
(260,500,o),
(226,530,cs),
(211,543,o),
(200,552,o),
(192,561,cs),
(180,574,o),
(175,584,o),
(175,601,cs),
(175,628,o),
(187,654,o),
(233,723,c),
(207,740,l),
(128,656,o),
(77,553,o),
(77,485,cs),
(77,428,o),
(104,388,o),
(163,354,c)
);
},
{
closed = 1;
nodes = (
(175,1,l),
(234,40,o),
(278,86,o),
(278,122,cs),
(278,155,o),
(253,183,o),
(183,228,c),
(171,228,l),
(150,213,o),
(86,139,o),
(63,106,c),
(63,94,l),
(103,64,o),
(132,35,o),
(167,1,c)
);
}
);
};
layerId = "67C28EBA-5AA6-4F74-BBA1-5BB358529C60";
shapes = (
{
closed = 1;
nodes = (
(175,1,l),
(234,40,o),
(278,86,o),
(278,122,cs),
(278,155,o),
(253,183,o),
(183,228,c),
(171,228,l),
(150,213,o),
(86,139,o),
(63,106,c),
(63,94,l),
(103,64,o),
(132,35,o),
(167,1,c)
);
},
{
pos = (-16,352);
ref = "comma-ar";
}
);
width = 338;
},
{
background = {
shapes = (
{
closed = 1;
nodes = (
(162,354,l),
(222,397,o),
(244,430,o),
(244,449,cs),
(244,466,o),
(234,477,o),
(223,486,cs),
(182,522,ls),
(159,542,o),
(156,551,o),
(156,567,cs),
(156,592,o),
(176,629,o),
(208,677,c),
(189,690,l),
(127,624,o),
(79,532,o),
(79,462,cs),
(79,419,o),
(97,399,o),
(152,354,c)
);
},
{
closed = 1;
nodes = (
(165,20,l),
(219,58,o),
(247,91,o),
(247,114,cs),
(247,141,o),
(225,163,o),
(169,199,c),
(160,199,l),
(148,191,o),
(94,135,o),
(73,103,c),
(73,94,l),
(101,71,o),
(128,48,o),
(156,20,c)
);
}
);
};
layerId = "0A5D7F3A-D11E-4113-AD15-39410F1DC5C2";
shapes = (
{
closed = 1;
nodes = (
(165,20,l),
(219,58,o),
(247,91,o),
(247,114,cs),
(247,141,o),
(225,163,o),
(169,199,c),
(160,199,l),
(148,191,o),
(94,135,o),
(73,103,c),
(73,94,l),
(101,71,o),
(128,48,o),
(156,20,c)
);
},
{
pos = (-23,334);
ref = "comma-ar";
}
);
width = 317;
}
);
unicode = 1563;
}
{
glyphname = ThreeDotPunct;
layers = (
{
layerId = "67C28EBA-5AA6-4F74-BBA1-5BB358529C60";
shapes = (
{
closed = 1;
nodes = (
(264,226,l),
(310,258,o),
(356,298,o),
(356,331,cs),
(356,363,o),
(325,388,o),
(270,423,c),
(260,423,l),
(243,412,o),
(182,345,o),
(164,317,c),
(164,307,l),
(191,287,o),
(215,267,o),
(256,226,c)
);
},
{
closed = 1;
nodes = (
(141,11,l),
(187,43,o),
(233,83,o),
(233,116,cs),
(233,148,o),
(202,173,o),
(147,208,c),
(137,208,l),
(120,197,o),
(59,130,o),
(41,102,c),
(41,92,l),
(70,71,o),
(104,40,o),
(133,11,c)
);
},
{
closed = 1;
nodes = (
(382,11,l),
(428,43,o),
(474,83,o),
(474,116,cs),
(474,148,o),
(443,173,o),
(388,208,c),
(378,208,l),
(361,197,o),
(300,130,o),
(282,102,c),
(282,92,l),
(309,72,o),
(339,46,o),
(374,11,c)
);
}
);
width = 512;
},
{
layerId = "0A5D7F3A-D11E-4113-AD15-39410F1DC5C2";
shapes = (
{
closed = 1;
nodes = (
(266,235,l),
(320,273,o),
(348,307,o),
(348,330,cs),
(348,359,o),
(320,383,o),
(270,414,c),
(261,414,l),
(250,406,o),
(195,351,o),
(174,318,c),
(174,310,l),
(202,287,o),
(229,262,o),
(257,235,c)
);
},
{
closed = 1;
nodes = (
(143,20,l),
(197,58,o),
(225,91,o),
(225,114,cs),
(225,144,o),
(197,167,o),
(147,199,c),
(138,199,l),
(126,191,o),
(72,135,o),
(51,103,c),
(51,94,l),
(79,71,o),
(106,48,o),
(134,20,c)
);
},
{
closed = 1;
nodes = (
(383,20,l),
(438,58,o),
(466,91,o),
(466,114,cs),
(466,144,o),
(438,167,o),
(388,199,c),
(379,199,l),
(367,191,o),
(313,135,o),
(292,103,c),
(292,94,l),
(320,70,o),
(347,46,o),
(375,20,c)
);
}
);
width = 514;
}
);
unicode = 1566;
}
{
glyphname = "questionmark-ar";
layers = (
{
layerId = "67C28EBA-5AA6-4F74-BBA1-5BB358529C60";
shapes = (
{
closed = 1;
nodes = (
(302,290,o),
(305,313,o),
(305,336,cs),
(305,420,o),
(279,475,o),
(217,526,cs),
(159,573,o),
(132,601,o),
(132,635,cs),
(132,699,o),
(211,731,o),
(287,731,cs),
(323,731,o),
(351,727,o),
(364,722,c),
(374,722,l),
(395,745,o),
(408,771,o),
(408,806,cs),
(408,860,o),
(354,876,o),
(307,876,cs),
(181,876,o),
(78,765,o),
(78,643,cs),
(78,580,o),
(94,532,o),
(127,496,cs),
(159,461,o),
(189,430,o),
(216,405,cs),
(243,380,o),
(262,334,o),
(272,268,c),
(297,267,l)
);
},
{
closed = 1;
nodes = (
(285,1,l),
(352,46,o),
(384,87,o),
(384,114,cs),
(384,145,o),
(354,172,o),
(291,212,c),
(281,212,l),
(262,197,o),
(191,119,o),
(178,98,c),
(178,88,l),
(206,67,o),
(238,39,o),
(277,1,c)
);
}
);
width = 504;
},
{
layerId = "0A5D7F3A-D11E-4113-AD15-39410F1DC5C2";
shapes = (
{
closed = 1;
nodes = (
(289,288,o),
(291,309,o),
(291,330,cs),
(291,417,o),
(257,496,o),
(190,567,cs),
(152,607,o),
(133,639,o),
(133,662,cs),
(133,720,o),
(202,747,o),
(271,747,cs),
(301,747,o),
(323,745,o),
(339,738,c),
(348,738,l),
(363,757,o),
(370,778,o),
(370,799,cs),
(370,833,o),
(339,856,o),
(279,856,cs),
(169,856,o),
(88,748,o),
(88,650,cs),
(88,590,o),
(108,544,o),
(163,474,cs),
(193,436,o),
(213,406,o),
(228,379,cs),
(248,342,o),
(258,310,o),
(265,268,c),
(284,267,l)
);
},
{
closed = 1;
nodes = (
(273,20,l),
(328,62,o),
(353,87,o),
(353,111,cs),
(353,137,o),
(329,159,o),
(278,191,c),
(269,191,l),
(260,186,o),
(216,143,o),
(186,100,c),
(186,91,l),
(220,64,o),
(247,41,o),
(265,20,c)
);
}
);
width = 476;
}
);
unicode = 1567;
}
{
glyphname = Hamza;
layers = (
{
anchors = (
{
name = bottom;
pos = (310,-103);
},
{
name = top;
pos = (257,774);
}
);
layerId = "67C28EBA-5AA6-4F74-BBA1-5BB358529C60";
shapes = (
{
closed = 1;
nodes = (
(124,68,o),
(182,113,o),
(245,156,cs),
(449,296,ls),
(480,318,o),
(502,341,o),
(516,366,cs),
(530,391,o),
(538,411,o),
(543,426,c),
(528,437,l),
(483,403,ls),
(464,388,o),
(471,394,o),
(402,346,cs),
(372,325,o),
(357,325,o),
(330,325,cs),
(276,325,o),
(204,355,o),
(204,419,cs),
(204,466,o),
(246,495,o),
(299,495,cs),
(339,495,o),
(371,469,o),
(385,452,c),
(392,452,l),
(424,464,o),
(439,491,o),
(439,523,cs),
(439,564,o),
(397,585,o),
(356,585,cs),
(299,585,o),
(238,555,o),
(171,494,cs),
(104,433,o),
(70,372,o),
(70,313,cs),
(70,267,o),
(92,211,o),
(169,191,c),
(136,164,o),
(111,135,o),
(95,106,cs),
(79,77,o),
(65,49,o),
(56,22,c),
(72,12,l)
);
}
);
width = 583;
},
{
anchors = (
{
name = bottom;
pos = (294,-104);
},
{
name = top;
pos = (196,703);
}
);
layerId = "0A5D7F3A-D11E-4113-AD15-39410F1DC5C2";
shapes = (
{
closed = 1;
nodes = (
(143,92,o),
(223,158,o),
(312,212,cs),
(411,272,ls),
(432,285,o),
(444,296,o),
(451,305,cs),
(467,325,o),
(478,347,o),
(486,369,c),
(473,380,l),
(404,335,ls),
(381,320,o),
(364,309,o),
(350,302,cs),
(326,290,o),
(312,288,o),
(293,288,cs),
(232,288,o),
(180,318,o),
(180,362,cs),
(180,405,o),
(228,438,o),
(277,438,cs),
(300,438,o),
(326,431,o),
(343,412,c),
(350,411,l),
(370,423,o),
(380,440,o),
(380,463,cs),
(380,502,o),
(338,516,o),
(310,516,cs),
(268,516,o),
(219,489,o),
(164,436,cs),
(108,382,o),
(80,331,o),
(80,283,cs),
(80,244,o),
(105,198,o),
(156,180,c),
(124,154,o),
(102,127,o),
(85,93,cs),
(75,74,o),
(66,52,o),
(58,27,c),
(72,17,l)
);
}
);
width = 544;
}
);
note = Hamza;
unicode = 1569;
}
{
glyphname = Tatweel;
layers = (
{
layerId = "67C28EBA-5AA6-4F74-BBA1-5BB358529C60";
shapes = (
{
closed = 1;
nodes = (
(65,0,ls),
(135,0,o),
(212,63,o),
(212,142,cs),
(212,199,o),
(191,220,o),
(172,220,cs),
(107,220,ls),
(36,220,o),
(-40,157,o),
(-40,78,cs),
(-40,26,o),
(-22,0,o),
(0,0,cs)
);
}
);
width = 65;
},
{
layerId = "0A5D7F3A-D11E-4113-AD15-39410F1DC5C2";
shapes = (
{
closed = 1;
nodes = (
(66,0,ls),
(127,0,o),
(182,59,o),
(182,126,cs),
(182,147,o),
(170,158,o),
(147,158,cs),
(84,158,ls),
(23,158,o),
(-33,99,o),
(-33,32,cs),
(-33,11,o),
(-21,0,o),
(2,0,cs)
);
}
);
width = 65;
}
);
unicode = 1600;
}
{
category = Mark;
glyphname = FathatanNS;
layers = (
{
anchors = (
{
name = Anchor31;
pos = (0,1193);
},
{
name = _Anchor31;
pos = (0,926);
},
{
name = _top;
pos = (0,959);
}
);
background = {
shapes = (
{
closed = 1;
nodes = (
(-96,969,o),
(-77,981,o),
(-49,996,cs),
(104,1080,ls),
(135,1097,o),
(152,1119,o),
(164,1155,c),
(151,1162,l),
(147,1159,o),
(138,1153,o),
(101,1132,cs),
(75,1117,o),
(35,1096,o),
(-26,1061,cs),
(-93,1023,o),
(-110,1003,o),
(-119,965,c),
(-107,957,l)
);
},
{
closed = 1;
nodes = (
(-106,867,o),
(-87,879,o),
(-59,894,cs),
(94,978,ls),
(125,995,o),
(142,1017,o),
(154,1053,c),
(141,1060,l),
(137,1057,o),
(128,1051,o),
(91,1030,cs),
(65,1015,o),
(25,994,o),
(-36,959,cs),
(-103,921,o),
(-120,901,o),
(-129,863,c),
(-117,855,l)
);
}
);
};
layerId = "67C28EBA-5AA6-4F74-BBA1-5BB358529C60";
shapes = (
{
ref = FathaNS;
},
{
alignment = -1;
pos = (10,102);
ref = FathaNS;
}
);
width = 0;
},
{
anchors = (
{
name = Anchor31;
pos = (0,1192);
},
{
name = _Anchor31;
pos = (0,926);
},
{
name = _top;
pos = (0,958);
}
);
background = {
shapes = (
{
closed = 1;
nodes = (
(-88,974,o),
(-75,983,o),
(-43,1001,cs),
(96,1077,ls),
(126,1094,o),
(140,1115,o),
(151,1143,c),
(142,1148,l),
(138,1145,o),
(130,1141,o),
(120,1135,cs),
(-17,1058,ls),
(-41,1044,o),
(-96,1014,o),
(-103,970,c),
(-96,965,l)
);
},
{
closed = 1;
nodes = (
(-101,874,o),
(-88,883,o),
(-56,901,cs),
(83,977,ls),
(113,994,o),
(127,1015,o),
(138,1043,c),
(129,1048,l),
(125,1045,o),
(117,1041,o),
(107,1035,cs),
(-30,958,ls),
(-54,944,o),
(-109,914,o),
(-116,870,c),
(-109,865,l)
);
}
);
};
layerId = "0A5D7F3A-D11E-4113-AD15-39410F1DC5C2";
shapes = (
{
pos = (1,1);
ref = FathaNS;
},
{
alignment = -1;
pos = (13,100);
ref = FathaNS;
}
);
width = 0;
}
);
note = FathatanNS;
subCategory = Nonspacing;
unicode = 1611;
}
{
category = Mark;
glyphname = "kasratan-ar";
layers = (
{
anchors = (
{
name = Anchor33;
pos = (0,-328);
},
{
name = _Anchor33;
pos = (0,-44);
},
{
name = _bottom;
pos = (0,-81);
}
);
background = {
shapes = (
{
closed = 1;
nodes = (
(-110,-185,o),
(-91,-173,o),
(-63,-158,cs),
(90,-74,ls),
(121,-57,o),
(138,-35,o),
(150,1,c),
(137,8,l),
(133,5,o),
(124,-1,o),
(87,-22,cs),
(61,-37,o),
(21,-58,o),
(-40,-93,cs),
(-107,-131,o),
(-124,-151,o),
(-133,-189,c),
(-121,-197,l)
);
},
{
closed = 1;
nodes = (
(-120,-288,o),
(-101,-276,o),
(-73,-261,cs),
(80,-177,ls),
(111,-160,o),
(128,-138,o),
(140,-102,c),
(127,-95,l),
(123,-98,o),
(114,-104,o),
(77,-125,cs),
(51,-140,o),
(11,-161,o),
(-50,-196,cs),
(-117,-234,o),
(-134,-254,o),
(-143,-292,c),
(-131,-300,l)
);
}
);
};
layerId = "67C28EBA-5AA6-4F74-BBA1-5BB358529C60";
shapes = (
{
pos = (-4,-1052);
ref = "fatha-ar";
},
{
alignment = -1;
pos = (-14,-1155);
ref = "fatha-ar";
}
);
width = 0;
},
{
anchors = (
{
name = Anchor33;
pos = (0,-328);
},
{
name = _Anchor33;
pos = (0,-44);
},
{
name = _bottom;
pos = (0,-82);
}
);
background = {
shapes = (
{
closed = 1;
nodes = (
(-105,-175,o),
(-92,-166,o),
(-60,-148,cs),
(79,-72,ls),
(109,-55,o),
(123,-34,o),
(134,-6,c),
(125,-1,l),
(121,-4,o),
(113,-9,o),
(103,-15,cs),
(-34,-91,ls),
(-58,-104,o),
(-113,-135,o),
(-120,-179,c),
(-113,-184,l)
);
},
{
closed = 1;
nodes = (
(-118,-275,o),
(-105,-266,o),
(-73,-248,cs),
(66,-172,ls),
(96,-155,o),
(110,-134,o),
(121,-106,c),
(112,-101,l),
(108,-104,o),
(100,-109,o),
(90,-115,cs),
(-47,-191,ls),
(-71,-204,o),
(-126,-235,o),
(-133,-279,c),
(-126,-284,l)
);
}
);
};
layerId = "0A5D7F3A-D11E-4113-AD15-39410F1DC5C2";
shapes = (
{
pos = (-4,-1049);
ref = "fatha-ar";
},
{
alignment = -1;
pos = (-17,-1149);
ref = "fatha-ar";
}
);
width = 0;
}
);
subCategory = Nonspacing;
unicode = 1613;
}
{
category = Mark;
glyphname = "fatha-ar";
layers = (
{
anchors = (
{
name = Anchor31;
pos = (0,1093);
},
{
name = _Anchor31;
pos = (0,926);
},
{
name = _top;
pos = (0,959);
}
);
layerId = "67C28EBA-5AA6-4F74-BBA1-5BB358529C60";
shapes = (
{
closed = 1;
nodes = (
(-106,867,o),
(-87,879,o),
(-59,894,cs),
(94,978,ls),
(125,995,o),
(142,1017,o),
(154,1053,c),
(141,1060,l),
(137,1057,o),
(128,1051,o),
(91,1030,cs),
(65,1015,o),
(25,994,o),
(-36,959,cs),
(-103,921,o),
(-120,901,o),
(-129,863,c),
(-117,855,l)
);
}
);
width = 0;
},
{
anchors = (
{
name = Anchor31;
pos = (0,1093);
},
{
name = _Anchor31;
pos = (0,926);
},
{
name = _top;
pos = (0,958);
}
);
layerId = "0A5D7F3A-D11E-4113-AD15-39410F1DC5C2";
shapes = (
{
closed = 1;
nodes = (
(-101,874,o),
(-88,883,o),
(-56,901,cs),
(83,977,ls),
(113,994,o),
(127,1015,o),
(138,1043,c),
(129,1048,l),
(125,1045,o),
(117,1041,o),
(107,1035,cs),
(61,1009,o),
(16,984,o),
(-30,958,cs),
(-54,944,o),
(-109,914,o),
(-116,870,c),
(-109,865,l)
);
}
);
width = 0;
}
);
note = "fatha-ar";
subCategory = Nonspacing;
unicode = 1614;
}
{
category = Mark;
glyphname = "damma-ar";
layers = (
{
anchors = (
{
name = Anchor31;
pos = (0,1172);
},
{
name = _Anchor31;
pos = (0,926);
},
{
name = _top;
pos = (-2,958);
}
);
layerId = "67C28EBA-5AA6-4F74-BBA1-5BB358529C60";
shapes = (
{
closed = 1;
nodes = (
(-25,888,o),
(120,961,o),
(120,1067,cs),
(120,1092,o),
(108,1118,o),
(76,1118,cs),
(25,1118,o),
(-9,1066,o),
(-9,1022,cs),
(-9,1010,o),
(-5,994,o),
(13,973,c),
(-37,934,ls),
(-66,911,o),
(-97,885,o),
(-127,857,c),
(-119,846,l)
);
},
{
closed = 1;
nodes = (
(37,1026,o),
(28,1037,o),
(28,1049,cs),
(28,1063,o),
(37,1076,o),
(56,1076,cs),
(74,1076,o),
(83,1063,o),
(83,1050,cs),
(83,1033,o),
(71,1020,o),
(59,1009,c)
);
}
);
width = 0;
},
{
anchors = (
{
name = Anchor31;
pos = (0,1172);
},
{
name = _Anchor31;
pos = (0,926);
},
{
name = _top;
pos = (-2,958);
}
);
layerId = "0A5D7F3A-D11E-4113-AD15-39410F1DC5C2";
shapes = (
{
closed = 1;
nodes = (
(14,923,o),
(109,980,o),
(109,1058,cs),
(109,1086,o),
(95,1102,o),
(71,1102,cs),
(37,1102,o),
(-2,1058,o),
(-2,1023,cs),
(-2,1013,o),
(2,995,o),
(17,978,c),
(-33,938,l),
(-64,913,o),
(-100,883,o),
(-116,868,c),
(-111,861,l)
);
},
{
closed = 1;
nodes = (
(29,1029,o),
(28,1033,o),
(28,1041,cs),
(28,1052,o),
(36,1064,o),
(54,1064,cs),
(65,1064,o),
(75,1059,o),
(75,1044,cs),
(75,1028,o),
(63,1016,o),
(53,1006,c)
);
}
);
width = 0;
}
);
note = "damma-ar";
subCategory = Nonspacing;
unicode = 1615;
}
{
category = Mark;
glyphname = KasraNS;
layers = (
{
anchors = (
{
name = Anchor33;
pos = (0,-229);
},
{
name = _Anchor33;
pos = (0,-24);
},
{
name = _bottom;
pos = (0,-81);
}
);
background = {
shapes = (
{
closed = 1;
nodes = (
(-110,-185,o),
(-91,-173,o),
(-63,-158,cs),
(90,-74,ls),
(121,-57,o),
(138,-35,o),
(150,1,c),
(137,8,l),
(133,5,o),
(124,-1,o),
(87,-22,cs),
(61,-37,o),
(21,-58,o),
(-40,-93,cs),
(-107,-131,o),
(-124,-151,o),
(-133,-189,c),
(-121,-197,l)
);
}
);
};
layerId = "67C28EBA-5AA6-4F74-BBA1-5BB358529C60";
shapes = (
{
pos = (-4,-1052);
ref = FathaNS;
}
);
width = 0;
},
{
anchors = (
{
name = Anchor33;
pos = (0,-229);
},
{
name = _Anchor33;
pos = (0,-44);
},
{
name = _bottom;
pos = (0,-82);
}
);
background = {
shapes = (
{
closed = 1;
nodes = (
(-105,-175,o),
(-92,-166,o),
(-60,-148,cs),
(79,-72,ls),
(109,-55,o),
(123,-34,o),
(134,-6,c),
(125,-1,l),
(121,-4,o),
(113,-9,o),
(103,-15,cs),
(-34,-91,ls),
(-58,-104,o),
(-113,-135,o),
(-120,-179,c),
(-113,-184,l)
);
}
);
};
layerId = "0A5D7F3A-D11E-4113-AD15-39410F1DC5C2";
shapes = (
{
pos = (-4,-1049);
ref = FathaNS;
}
);
width = 0;
}
);
note = KasraNS;
subCategory = Nonspacing;
unicode = 1616;
}
{
category = Mark;
glyphname = "shadda-ar";
layers = (
{
anchors = (
{
name = Anchor31;
pos = (0,1090);
},
{
name = _Anchor31;
pos = (0,892);
},
{
name = _top;
pos = (0,939);
}
);
layerId = "67C28EBA-5AA6-4F74-BBA1-5BB358529C60";
shapes = (
{
closed = 1;
nodes = (
(-45,862,o),
(-18,899,o),
(-6,938,c),
(1,932,o),
(15,928,o),
(27,928,cs),
(92,928,o),
(125,994,o),
(125,1060,cs),
(125,1077,l),
(98,1072,l),
(92,1023,o),
(75,996,o),
(45,996,cs),
(30,996,o),
(19,1003,o),
(13,1016,c),
(-10,1011,l),
(-22,956,o),
(-39,928,o),
(-74,928,cs),
(-93,928,o),
(-103,938,o),
(-105,958,cs),
(-106,970,l),
(-129,966,l),
(-136,948,o),
(-139,934,o),
(-139,917,cs),
(-139,883,o),
(-117,862,o),
(-88,862,cs)
);
}
);
width = 0;
},
{
anchors = (
{
name = Anchor31;
pos = (0,1089);
},
{
name = _Anchor31;
pos = (0,892);
},
{
name = _top;
pos = (0,969);
}
);
layerId = "0A5D7F3A-D11E-4113-AD15-39410F1DC5C2";
shapes = (
{
closed = 1;
nodes = (
(-45,881,o),
(-24,900,o),
(-6,942,c),
(0,937,o),
(11,934,o),
(19,934,cs),
(79,934,o),
(97,995,o),
(97,1043,cs),
(97,1054,l),
(79,1051,l),
(73,1007,o),
(65,985,o),
(40,985,cs),
(26,985,o),
(14,991,o),
(8,1003,c),
(-8,1000,l),
(-21,949,o),
(-35,932,o),
(-62,932,cs),
(-77,932,o),
(-85,939,o),
(-89,961,c),
(-89,966,l),
(-102,964,l),
(-108,953,o),
(-111,939,o),
(-111,923,cs),
(-111,897,o),
(-98,881,o),
(-74,881,cs)
);
}
);
width = 0;
}
);
subCategory = Nonspacing;
unicode = 1617;
}
{
category = Mark;
glyphname = SukunJazmNS;
layers = (
{
anchors = (
{
name = Anchor31;
pos = (0,1123);
},
{
name = _Anchor31;
pos = (0,868);
},
{
name = _top;
pos = (0,976);
}
);
layerId = "67C28EBA-5AA6-4F74-BBA1-5BB358529C60";
shapes = (
{
closed = 1;
nodes = (
(-105,905,o),
(-54,945,o),
(-6,982,c),
(88,923,o),
(103,916,o),
(133,891,c),
(148,899,l),
(145,925,o),
(138,946,o),
(125,962,cs),
(97,996,o),
(29,1045,o),
(-1,1063,c),
(-14,1061,l),
(-102,981,o),
(-150,931,o),
(-153,872,c),
(-137,869,l)
);
}
);
width = 0;
},
{
anchors = (
{
name = Anchor31;
pos = (0,1122);
},
{
name = _Anchor31;
pos = (0,867);
},
{
name = _top;
pos = (0,975);
}
);
layerId = "0A5D7F3A-D11E-4113-AD15-39410F1DC5C2";
shapes = (
{
closed = 1;
nodes = (
(-106,904,o),
(-75,932,o),
(-5,989,c),
(38,962,o),
(82,932,o),
(125,900,c),
(134,904,l),
(128,952,o),
(113,969,o),
(63,1009,cs),
(43,1025,o),
(23,1039,o),
(-1,1054,c),
(-13,1052,l),
(-112,965,o),
(-137,923,o),
(-139,881,c),
(-129,879,l)
);
}
);
width = 0;
}
);
note = SukunJazmNS;
subCategory = Nonspacing;
unicode = 1618;
}
{
category = Mark;
glyphname = "madda-ar";
layers = (
{
anchors = (
{
name = Anchor31;
pos = (40,1148);
},
{
name = _Anchor31;
pos = (-11,907);
},
{
name = _top;
pos = (0,980);
}
);
layerId = "67C28EBA-5AA6-4F74-BBA1-5BB358529C60";
shapes = (
{
closed = 1;
nodes = (
(-234,902,o),
(-223,921,o),
(-190,921,cs),
(-161,921,o),
(-108,900,o),
(-13,900,cs),
(94,900,o),
(207,943,o),
(295,1063,c),
(278,1077,l),
(220,1029,o),
(160,1012,o),
(64,1012,cs),
(-34,1012,o),
(-92,1034,o),
(-130,1034,cs),
(-185,1034,o),
(-235,974,o),
(-277,885,c),
(-255,875,l)
);
}
);
width = 0;
},
{
anchors = (
{
name = Anchor31;
pos = (40,1148);
},
{
name = _Anchor31;
pos = (-11,907);
},
{
name = _top;
pos = (0,979);
}
);
layerId = "0A5D7F3A-D11E-4113-AD15-39410F1DC5C2";
shapes = (
{
closed = 1;
nodes = (
(-221,913,o),
(-207,925,o),
(-183,925,cs),
(-137,925,o),
(-110,907,o),
(-11,907,cs),
(75,907,o),
(190,939,o),
(279,1057,c),
(266,1068,l),
(210,1021,o),
(141,1009,o),
(59,1009,cs),
(-35,1009,o),
(-96,1029,o),
(-128,1029,cs),
(-180,1029,o),
(-226,968,o),
(-262,893,c),
(-242,884,l)
);
}
);
width = 0;
}
);
subCategory = Nonspacing;
unicode = 1619;
}
{
category = Mark;
glyphname = "hamzaabove-ar";
layers = (
{
anchors = (
{
name = Anchor31;
pos = (0,1091);
},
{
name = _Anchor31;
pos = (0,856);
},
{
name = _top;
pos = (0,940);
}
);
layerId = "67C28EBA-5AA6-4F74-BBA1-5BB358529C60";
shapes = (
{
closed = 1;
nodes = (
(-68,837,o),
(-40,860,o),
(-13,907,cs),
(-1,927,o),
(9,943,o),
(19,954,cs),
(33,969,o),
(45,977,o),
(56,977,cs),
(78,977,o),
(87,964,o),
(82,942,c),
(100,937,l),
(117,957,o),
(134,1002,o),
(134,1029,cs),
(134,1065,o),
(112,1075,o),
(92,1075,cs),
(62,1075,o),
(42,1054,o),
(17,1015,cs),
(-12,970,ls),
(-30,943,o),
(-45,935,o),
(-59,935,cs),
(-80,935,o),
(-88,948,o),
(-82,970,c),
(-101,975,l),
(-116,957,o),
(-137,919,o),
(-137,882,cs),
(-137,853,o),
(-121,837,o),
(-98,837,cs)
);
}
);
width = 0;
},
{
anchors = (
{
name = Anchor31;
pos = (0,1090);
},
{
name = _Anchor31;
pos = (0,855);
},
{
name = _top;
pos = (0,940);
}
);
layerId = "0A5D7F3A-D11E-4113-AD15-39410F1DC5C2";
shapes = (
{
closed = 1;
nodes = (
(-65,848,o),
(-44,866,o),
(-19,905,cs),
(-8,922,o),
(4,940,o),
(15,957,cs),
(32,982,o),
(42,990,o),
(55,990,cs),
(64,990,o),
(75,983,o),
(75,964,c),
(91,960,l),
(108,979,o),
(122,1005,o),
(122,1031,cs),
(122,1057,o),
(104,1064,o),
(88,1064,cs),
(64,1064,o),
(45,1049,o),
(17,1008,cs),
(-17,957,ls),
(-35,931,o),
(-45,923,o),
(-58,923,cs),
(-68,923,o),
(-77,932,o),
(-77,948,c),
(-94,952,l),
(-111,934,o),
(-125,907,o),
(-125,881,cs),
(-125,859,o),
(-112,848,o),
(-90,848,cs)
);
}
);
width = 0;
}
);
subCategory = Nonspacing;
unicode = 1620;
}
{
category = Mark;
glyphname = HamzaBelowNS;
layers = (
{
anchors = (
{
name = Anchor33;
pos = (0,-269);
},
{
name = _Anchor33;
pos = (0,-67);
},
{
name = _bottom;
pos = (0,-161);
}
);
layerId = "67C28EBA-5AA6-4F74-BBA1-5BB358529C60";
shapes = (
{
closed = 1;
nodes = (
(-68,-288,o),
(-40,-265,o),
(-13,-218,cs),
(-7,-207,o),
(0,-197,o),
(5,-189,cs),
(25,-161,o),
(41,-148,o),
(56,-148,cs),
(78,-148,o),
(87,-161,o),
(82,-183,c),
(100,-188,l),
(117,-168,o),
(134,-123,o),
(134,-96,cs),
(134,-60,o),
(112,-50,o),
(92,-50,cs),
(62,-50,o),
(42,-71,o),
(17,-110,cs),
(-12,-155,ls),
(-30,-182,o),
(-45,-190,o),
(-59,-190,cs),
(-80,-190,o),
(-88,-177,o),
(-82,-155,c),
(-101,-150,l),
(-116,-168,o),
(-137,-206,o),
(-137,-243,cs),
(-137,-272,o),
(-121,-288,o),
(-98,-288,cs)
);
}
);
width = 0;
},
{
anchors = (
{
name = Anchor33;
pos = (0,-270);
},
{
name = _Anchor33;
pos = (0,-67);
},
{
name = _bottom;
pos = (0,-161);
}
);
layerId = "0A5D7F3A-D11E-4113-AD15-39410F1DC5C2";
shapes = (
{
closed = 1;
nodes = (
(-65,-277,o),
(-44,-259,o),
(-19,-220,cs),
(-8,-203,o),
(4,-185,o),
(15,-168,cs),
(32,-143,o),
(42,-135,o),
(55,-135,cs),
(64,-135,o),
(75,-142,o),
(75,-161,c),
(91,-165,l),
(108,-146,o),
(122,-120,o),
(122,-94,cs),
(122,-68,o),
(104,-61,o),
(88,-61,cs),
(64,-61,o),
(45,-75,o),
(17,-117,cs),
(-17,-168,ls),
(-34,-194,o),
(-45,-202,o),
(-58,-202,cs),
(-68,-202,o),
(-77,-193,o),
(-77,-177,c),
(-94,-173,l),
(-111,-191,o),
(-125,-218,o),
(-125,-244,cs),
(-125,-266,o),
(-112,-277,o),
(-90,-277,cs)
);
}
);
width = 0;
}
);
note = HamzaBelowNS;
subCategory = Nonspacing;
unicode = 1621;
}
{
category = Mark;
glyphname = "alefbelow-ar";
layers = (
{
anchors = (
{
name = Anchor33;
pos = (1,-338);
},
{
name = _Anchor33;
pos = (29,-8);
},
{
name = _bottom;
pos = (2,-108);
}
);
layerId = "67C28EBA-5AA6-4F74-BBA1-5BB358529C60";
shapes = (
{
closed = 1;
nodes = (
(16,-229,o),
(31,-177,o),
(34,-129,cs),
(35,-109,ls),
(38,-34,o),
(40,-11,o),
(45,1,c),
(28,4,l),
(0,-50,o),
(-8,-68,o),
(-11,-125,cs),
(-16,-218,o),
(-18,-254,o),
(-23,-278,c),
(-6,-281,l)
);
}
);
width = 0;
},
{
anchors = (
{
name = Anchor33;
pos = (0,-339);
},
{
name = _Anchor33;
pos = (28,-8);
},
{
name = _bottom;
pos = (1,-108);
}
);
layerId = "0A5D7F3A-D11E-4113-AD15-39410F1DC5C2";
shapes = (
{
closed = 1;
nodes = (
(13,-228,o),
(28,-174,o),
(30,-129,cs),
(31,-112,ls),
(33,-52,o),
(37,-21,o),
(40,-11,c),
(29,-8,l),
(1,-63,o),
(-4,-80,o),
(-6,-125,cs),
(-10,-204,o),
(-13,-243,o),
(-17,-265,c),
(-5,-267,l)
);
}
);
width = 0;
}
);
subCategory = Nonspacing;
unicode = 1622;
}
{
category = Mark;
glyphname = "dammainverted-ar";
layers = (
{
anchors = (
{
name = Anchor31;
pos = (0,1120);
},
{
name = _Anchor31;
pos = (0,865);
},
{
name = _top;
pos = (-18,958);
}
);
layerId = "67C28EBA-5AA6-4F74-BBA1-5BB358529C60";
shapes = (
{
closed = 1;
nodes = (
(-37,846,o),
(3,891,o),
(3,942,cs),
(3,958,o),
(-4,972,o),
(-19,991,c),
(59,1052,o),
(91,1079,o),
(121,1107,c),
(113,1118,l),
(92,1111,o),
(22,1074,o),
(-17,1049,cs),
(-60,1022,o),
(-126,968,o),
(-126,897,cs),
(-126,874,o),
(-114,846,o),
(-82,846,cs)
);
},
{
closed = 1;
nodes = (
(-78,888,o),
(-89,897,o),
(-89,914,cs),
(-89,927,o),
(-82,940,o),
(-65,955,c),
(-44,939,o),
(-34,927,o),
(-34,915,cs),
(-34,907,o),
(-37,900,o),
(-43,895,cs),
(-48,891,o),
(-55,888,o),
(-62,888,cs)
);
}
);
width = 0;
},
{
anchors = (
{
name = Anchor31;
pos = (0,1119);
},
{
name = _Anchor31;
pos = (0,864);
},
{
name = _top;
pos = (-18,958);
}
);
layerId = "0A5D7F3A-D11E-4113-AD15-39410F1DC5C2";
shapes = (
{
closed = 1;
nodes = (
(-40,862,o),
(-1,906,o),
(-1,941,cs),
(-1,956,o),
(-10,975,o),
(-20,987,c),
(-7,996,o),
(83,1068,o),
(112,1097,c),
(107,1103,l),
(56,1077,o),
(6,1053,o),
(-45,1014,cs),
(-83,985,o),
(-112,949,o),
(-112,906,cs),
(-112,885,o),
(-103,862,o),
(-75,862,cs)
);
},
{
closed = 1;
nodes = (
(-70,900,o),
(-78,907,o),
(-78,920,cs),
(-78,937,o),
(-67,948,o),
(-56,958,c),
(-44,947,o),
(-32,935,o),
(-32,924,cs),
(-32,916,o),
(-34,910,o),
(-40,906,c),
(-45,902,o),
(-51,900,o),
(-57,900,cs)
);
}
);
width = 0;
}
);
subCategory = Nonspacing;
unicode = 1623;
}
{
category = Mark;
glyphname = "noonghunnaabove-ar";
layers = (
{
anchors = (
{
name = Anchor31;
pos = (2,1066);
},
{
name = _Anchor31;
pos = (-9,906);
},
{
name = _top;
pos = (2,973);
}
);
layerId = "67C28EBA-5AA6-4F74-BBA1-5BB358529C60";
shapes = (
{
closed = 1;
nodes = (
(56,901,o),
(103,966,o),
(105,1028,c),
(87,1028,l),
(76,985,o),
(46,959,o),
(-7,959,cs),
(-50,959,o),
(-66,976,o),
(-66,1011,cs),
(-66,1015,o),
(-65,1019,o),
(-64,1022,c),
(-82,1024,l),
(-87,1011,o),
(-89,993,o),
(-89,981,cs),
(-89,927,o),
(-62,901,o),
(-10,901,cs)
);
}
);
width = 0;
},
{
anchors = (
{
name = Anchor31;
pos = (2,1066);
},
{
name = _Anchor31;
pos = (-9,906);
},
{
name = _top;
pos = (2,973);
}
);
layerId = "0A5D7F3A-D11E-4113-AD15-39410F1DC5C2";
shapes = (
{
closed = 1;
nodes = (
(53,906,o),
(94,965,o),
(96,1022,c),
(80,1022,l),
(67,966,o),
(29,952,o),
(-6,952,cs),
(-45,952,o),
(-60,970,o),
(-60,999,cs),
(-60,1011,o),
(-59,1014,o),
(-58,1017,c),
(-74,1019,l),
(-77,1005,o),
(-80,992,o),
(-80,977,cs),
(-80,922,o),
(-43,906,o),
(-9,906,cs)
);
}
);
width = 0;
}
);
note = "noonghunnaabove-ar";
subCategory = Nonspacing;
unicode = 1624;
}
{
category = Mark;
glyphname = "fathaHorizont-ar";
layers = (
{
anchors = (
{
name = Anchor31;
pos = (0,1032);
},
{
name = _Anchor31;
pos = (0,892);
},
{
name = _top;
pos = (0,989);
}
);
layerId = "67C28EBA-5AA6-4F74-BBA1-5BB358529C60";
shapes = (
{
closed = 1;
nodes = (
(-143,889,o),
(-132,890,o),
(-119,892,cs),
(-75,896,o),
(-6,902,o),
(109,907,c),
(158,954,l),
(153,963,l),
(106,962,o),
(65,960,o),
(31,959,cs),
(-41,956,o),
(-84,952,o),
(-99,948,cs),
(-121,942,o),
(-141,925,o),
(-158,900,c),
(-153,888,l)
);
}
);
width = 0;
},
{
anchors = (
{
name = Anchor31;
pos = (0,1031);
},
{
name = _Anchor31;
pos = (0,892);
},
{
name = _top;
pos = (0,988);
}
);
layerId = "0A5D7F3A-D11E-4113-AD15-39410F1DC5C2";
shapes = (
{
closed = 1;
nodes = (
(-137,895,o),
(-125,896,o),
(-112,897,cs),
(-40,905,o),
(32,907,o),
(104,912,c),
(153,954,l),
(148,963,l),
(111,962,o),
(74,960,o),
(37,959,cs),
(-39,956,o),
(-85,950,o),
(-102,945,cs),
(-119,940,o),
(-136,925,o),
(-152,900,c),
(-147,893,l)
);
}
);
width = 0;
}
);
subCategory = Nonspacing;
unicode = 1625;
}
{
category = Mark;
glyphname = "vabove-ar";
layers = (
{
anchors = (
{
name = Anchor31;
pos = (0,949);
},
{
name = _Anchor31;
pos = (0,841);
},
{
name = _top;
pos = (0,929);
}
);
layerId = "67C28EBA-5AA6-4F74-BBA1-5BB358529C60";
shapes = (
{
closed = 1;
nodes = (
(7,841,l),
(33,877,ls),
(40,887,o),
(79,941,o),
(102,964,c),
(91,987,l),
(81,987,l),
(76,981,o),
(70,974,o),
(65,968,cs),
(41,938,o),
(21,911,o),
(7,886,c),
(3,886,l),
(-53,973,l),
(-56,977,o),
(-60,982,o),
(-64,986,c),
(-74,986,l),
(-83,978,o),
(-90,968,o),
(-93,957,c),
(-86,948,o),
(-80,940,o),
(-73,931,cs),
(-44,893,o),
(-24,867,o),
(-6,840,c)
);
}
);
width = 0;
},
{
anchors = (
{
name = Anchor31;
pos = (0,1238);
},
{
name = _Anchor31;
pos = (0,841);
},
{
name = _top;
pos = (0,929);
}
);
layerId = "0A5D7F3A-D11E-4113-AD15-39410F1DC5C2";
shapes = (
{
closed = 1;
nodes = (
(7,856,l),
(51,919,ls),
(67,942,o),
(86,967,o),
(97,979,c),
(86,1002,l),
(81,1002,l),
(76,997,o),
(68,986,o),
(50,961,cs),
(35,941,o),
(20,919,o),
(7,896,c),
(3,896,l),
(-33,955,ls),
(-44,974,o),
(-54,989,o),
(-63,1001,c),
(-69,1000,l),
(-75,994,o),
(-83,983,o),
(-86,972,c),
(-71,951,o),
(-56,931,o),
(-42,910,cs),
(-30,891,o),
(-18,873,o),
(-6,855,c)
);
}
);
width = 0;
}
);
subCategory = Nonspacing;
unicode = 1626;
}
{
category = Mark;
glyphname = "vinvertedabove-ar";
layers = (
{
anchors = (
{
name = Anchor31;
pos = (0,949);
},
{
name = _Anchor31;
pos = (0,841);
},
{
name = _top;
pos = (0,929);
}
);
layerId = "67C28EBA-5AA6-4F74-BBA1-5BB358529C60";
shapes = (
{
closed = 1;
nodes = (
(-91,829,l),
(-79,848,o),
(-66,866,o),
(-54,885,cs),
(-29,924,o),
(-18,944,o),
(-1,975,c),
(2,975,l),
(17,948,o),
(32,920,o),
(47,893,cs),
(60,870,o),
(70,855,o),
(85,831,c),
(96,832,l),
(109,847,o),
(115,860,o),
(118,871,c),
(105,891,o),
(76,933,o),
(62,956,cs),
(48,979,o),
(31,1006,o),
(15,1031,c),
(-1,1030,l),
(-58,943,ls),
(-98,884,o),
(-108,870,o),
(-117,861,c),
(-103,829,l)
);
}
);
width = 0;
},
{
anchors = (
{
name = Anchor31;
pos = (0,1067);
},
{
name = _Anchor31;
pos = (0,841);
},
{
name = _top;
pos = (0,929);
}
);
layerId = "0A5D7F3A-D11E-4113-AD15-39410F1DC5C2";
shapes = (
{
closed = 1;
nodes = (
(-83,838,l),
(-75,849,o),
(-56,878,o),
(-49,889,cs),
(-32,914,o),
(-17,940,o),
(-1,971,c),
(2,971,l),
(16,946,o),
(28,921,o),
(43,896,cs),
(56,874,o),
(67,855,o),
(77,840,c),
(83,841,l),
(93,852,o),
(100,865,o),
(103,876,c),
(86,902,o),
(70,926,o),
(53,954,cs),
(39,977,o),
(27,999,o),
(14,1022,c),
(-1,1021,l),
(-50,942,ls),
(-66,917,o),
(-88,883,o),
(-102,867,c),
(-89,838,l)
);
}
);
width = 0;
}
);
note = CircumArabicNS;
subCategory = Nonspacing;
unicode = 1627;
}
{
category = Mark;
glyphname = "fathatwodots-ar";
layers = (
{
anchors = (
{
name = Anchor31;
pos = (0,1172);
},
{
name = _Anchor31;
pos = (0,844);
},
{
name = _top;
pos = (0,940);
}
);
layerId = "67C28EBA-5AA6-4F74-BBA1-5BB358529C60";
shapes = (
{
closed = 1;
nodes = (
(56,836,l),
(81,854,o),
(97,870,o),
(97,884,cs),
(97,895,o),
(84,909,o),
(58,925,c),
(54,925,l),
(47,919,o),
(24,897,o),
(10,877,c),
(10,873,l),
(20,865,o),
(41,848,o),
(51,836,c)
);
},
{
closed = 1;
nodes = (
(-46,1019,l),
(-19,1037,o),
(-5,1055,o),
(-5,1066,cs),
(-5,1077,o),
(-18,1091,o),
(-43,1108,c),
(-48,1108,l),
(-73,1082,o),
(-80,1076,o),
(-91,1059,c),
(-91,1055,l),
(-82,1048,o),
(-62,1031,o),
(-50,1019,c)
);
},
{
ref = "fatha-ar";
}
);
width = 0;
},
{
anchors = (
{
name = Anchor31;
pos = (0,1172);
},
{
name = _Anchor31;
pos = (0,843);
},
{
name = _top;
pos = (0,940);
}
);
background = {
shapes = (
{
closed = 1;
nodes = (
(-44,1018,l),
(-20,1034,o),
(-7,1050,o),
(-7,1061,cs),
(-7,1073,o),
(-17,1083,o),
(-42,1099,c),
(-46,1099,l),
(-51,1094,o),
(-70,1076,o),
(-85,1055,c),
(-85,1051,l),
(-74,1042,o),
(-57,1028,o),
(-48,1018,c)
);
}
);
};
layerId = "0A5D7F3A-D11E-4113-AD15-39410F1DC5C2";
shapes = (
{
closed = 1;
nodes = (
(53,844,l),
(77,860,o),
(90,875,o),
(90,887,cs),
(90,899,o),
(80,908,o),
(55,925,c),
(51,925,l),
(44,919,o),
(24,899,o),
(11,881,c),
(11,877,l),
(20,871,o),
(40,854,o),
(48,844,c)
);
},
{
closed = 1;
nodes = (
(-44,1018,l),
(-20,1034,o),
(-7,1050,o),
(-7,1061,cs),
(-7,1073,o),
(-17,1083,o),
(-42,1099,c),
(-46,1099,l),
(-51,1094,o),
(-70,1076,o),
(-85,1055,c),
(-85,1051,l),
(-74,1042,o),
(-57,1028,o),
(-48,1018,c)
);
},
{
ref = "fatha-ar";
}
);
width = 0;
}
);
subCategory = Nonspacing;
unicode = 1630;
}
{
category = Mark;
glyphname = "wavyhamzabelow-ar";
layers = (
{
anchors = (
{
name = Anchor33;
pos = (0,-401);
},
{
name = _Anchor33;
pos = (0,-83);
},
{
name = _bottom;
pos = (0,-178);
}
);
layerId = "67C28EBA-5AA6-4F74-BBA1-5BB358529C60";
shapes = (
{
closed = 1;
nodes = (
(-141,-338,l),
(-133,-310,o),
(-113,-288,o),
(-66,-288,cs),
(-21,-288,o),
(23,-275,o),
(65,-256,cs),
(107,-237,o),
(136,-205,o),
(151,-163,c),
(137,-154,l),
(116,-174,o),
(78,-200,o),
(52,-200,cs),
(17,-200,o),
(-7,-184,o),
(-7,-160,cs),
(-7,-135,o),
(16,-116,o),
(45,-116,cs),
(59,-116,o),
(75,-123,o),
(83,-135,c),
(91,-135,l),
(99,-129,o),
(109,-119,o),
(109,-100,cs),
(109,-77,o),
(89,-68,o),
(64,-68,cs),
(11,-68,o),
(-75,-153,o),
(-75,-206,cs),
(-75,-217,o),
(-72,-227,o),
(-67,-234,c),
(-68,-237,l),
(-72,-237,ls),
(-132,-237,o),
(-159,-266,o),
(-159,-317,cs),
(-159,-325,o),
(-158,-330,o),
(-157,-338,c)
);
}
);
width = 0;
},
{
anchors = (
{
name = Anchor33;
pos = (0,-401);
},
{
name = _Anchor33;
pos = (0,-83);
},
{
name = _bottom;
pos = (0,-178);
}
);
layerId = "0A5D7F3A-D11E-4113-AD15-39410F1DC5C2";
shapes = (
{
closed = 1;
nodes = (
(-147,-331,l),
(-139,-299,o),
(-111,-283,o),
(-66,-281,cs),
(-26,-279,o),
(20,-271,o),
(59,-251,cs),
(94,-233,o),
(123,-205,o),
(138,-163,c),
(129,-157,l),
(102,-184,o),
(71,-200,o),
(52,-200,cs),
(14,-200,o),
(-11,-182,o),
(-11,-158,cs),
(-11,-132,o),
(20,-118,o),
(42,-118,cs),
(55,-118,o),
(66,-123,o),
(76,-132,c),
(80,-132,l),
(88,-128,o),
(96,-118,o),
(96,-104,cs),
(96,-83,o),
(76,-77,o),
(59,-77,cs),
(11,-77,o),
(-65,-151,o),
(-65,-201,cs),
(-65,-220,o),
(-58,-227,o),
(-50,-233,c),
(-51,-236,l),
(-64,-236,ls),
(-139,-236,o),
(-159,-271,o),
(-159,-317,cs),
(-159,-323,o),
(-159,-325,o),
(-158,-331,c)
);
}
);
width = 0;
}
);
subCategory = Nonspacing;
unicode = 1631;
}
{
glyphname = ZeroArabic;
layers = (
{
layerId = "67C28EBA-5AA6-4F74-BBA1-5BB358529C60";
shapes = (
{
closed = 1;
nodes = (
(218,176,l),
(300,232,o),
(333,275,o),
(333,306,cs),
(333,342,o),
(305,369,o),
(227,420,c),
(214,420,l),
(198,410,o),
(124,335,o),
(95,290,c),
(95,276,l),
(115,263,o),
(177,210,o),
(210,176,c)
);
}
);
width = 439;
},
{
layerId = "0A5D7F3A-D11E-4113-AD15-39410F1DC5C2";
shapes = (
{
closed = 1;
nodes = (
(203,196,l),
(263,240,o),
(292,274,o),
(292,298,cs),
(292,330,o),
(260,356,o),
(208,389,c),
(199,389,l),
(190,384,o),
(134,330,o),
(104,287,c),
(104,277,l),
(145,245,o),
(174,218,o),
(193,196,c)
);
}
);
width = 409;
}
);
note = ZeroArabic;
unicode = 1632;
}
{
glyphname = OneArabic;
layers = (
{
layerId = "67C28EBA-5AA6-4F74-BBA1-5BB358529C60";
shapes = (
{
closed = 1;
nodes = (
(328,99,o),
(335,149,o),
(335,330,cs),
(335,438,o),
(313,650,o),
(300,683,c),
(278,684,l),
(247,616,ls),
(229,577,o),
(220,550,o),
(218,537,c),
(231,463,o),
(239,409,o),
(243,374,cs),
(247,342,o),
(251,309,o),
(255,277,cs),
(265,195,o),
(266,151,o),
(266,124,cs),
(266,65,o),
(264,26,o),
(260,2,c),
(286,-3,l)
);
}
);
width = 564;
},
{
layerId = "0A5D7F3A-D11E-4113-AD15-39410F1DC5C2";
shapes = (
{
closed = 1;
nodes = (
(322,91,o),
(328,157,o),
(328,324,cs),
(328,448,o),
(306,633,o),
(293,670,c),
(282,670,l),
(269,640,ls),
(248,592,o),
(234,558,o),
(229,536,c),
(233,508,o),
(236,481,o),
(240,453,cs),
(245,411,o),
(252,360,o),
(257,304,cs),
(262,247,o),
(266,185,o),
(266,122,cs),
(266,65,o),
(264,25,o),
(260,2,c),
(280,-2,l)
);
}
);
width = 567;
}
);
note = OneArabic;
unicode = 1633;
}
{
glyphname = "two-ar";
layers = (
{
layerId = "67C28EBA-5AA6-4F74-BBA1-5BB358529C60";
shapes = (
{
closed = 1;
nodes = (
(219,84,o),
(229,149,o),
(229,316,cs),
(229,338,o),
(226,386,o),
(225,399,c),
(245,392,o),
(279,386,o),
(310,386,cs),
(446,386,o),
(513,487,o),
(538,679,c),
(506,685,l),
(480,609,o),
(410,583,o),
(340,583,cs),
(245,583,o),
(210,621,o),
(200,632,c),
(194,646,o),
(193,650,o),
(185,683,c),
(163,684,l),
(143,641,o),
(136,626,o),
(132,616,cs),
(108,556,o),
(106,552,o),
(106,547,cs),
(106,542,o),
(108,530,o),
(112,512,cs),
(138,394,o),
(161,207,o),
(161,124,cs),
(161,65,o),
(159,26,o),
(155,2,c),
(181,-3,l)
);
}
);
width = 601;
},
{
layerId = "0A5D7F3A-D11E-4113-AD15-39410F1DC5C2";
shapes = (
{
closed = 1;
nodes = (
(216,94,o),
(222,140,o),
(222,324,cs),
(222,347,o),
(220,380,o),
(215,424,c),
(231,419,o),
(251,417,o),
(274,417,cs),
(425,417,o),
(470,506,o),
(494,666,c),
(472,670,l),
(439,569,o),
(384,542,o),
(304,542,cs),
(251,542,o),
(206,565,o),
(191,604,c),
(188,629,o),
(184,646,o),
(178,670,c),
(166,670,l),
(160,657,o),
(149,631,o),
(139,604,cs),
(130,580,o),
(121,554,o),
(116,536,c),
(121,510,o),
(125,485,o),
(130,459,cs),
(145,375,o),
(160,261,o),
(160,122,cs),
(160,68,o),
(158,29,o),
(154,2,c),
(175,-2,l)
);
}
);
width = 567;
}
);
note = "two-ar";
unicode = 1634;
}
{
glyphname = ThreeArabic;
layers = (
{
layerId = "67C28EBA-5AA6-4F74-BBA1-5BB358529C60";
shapes = (
{
closed = 1;
nodes = (
(167,95,o),
(175,161,o),
(175,310,cs),
(175,340,o),
(173,369,o),
(172,399,c),
(188,393,o),
(209,392,o),
(220,392,cs),
(258,392,o),
(286,402,o),
(305,422,c),
(323,407,o),
(356,397,o),
(389,397,cs),
(508,397,o),
(557,518,o),
(572,681,c),
(539,684,l),
(518,607,o),
(491,583,o),
(434,583,cs),
(408,583,o),
(377,594,o),
(367,612,c),
(371,633,o),
(373,645,o),
(376,680,c),
(344,683,l),
(324,602,o),
(285,583,o),
(229,583,cs),
(196,583,o),
(158,594,o),
(143,628,c),
(141,638,o),
(139,649,o),
(137,659,cs),
(135,668,o),
(133,676,o),
(130,683,c),
(109,684,l),
(79,616,ls),
(65,585,o),
(60,572,o),
(52,547,c),
(54,535,o),
(55,524,o),
(58,512,c),
(80,407,o),
(107,233,o),
(107,124,cs),
(107,65,o),
(105,26,o),
(101,2,c),
(127,-3,l)
);
}
);
width = 583;
},
{
layerId = "0A5D7F3A-D11E-4113-AD15-39410F1DC5C2";
shapes = (
{
closed = 1;
nodes = (
(162,92,o),
(168,142,o),
(168,324,cs),
(168,350,o),
(165,395,o),
(163,418,c),
(171,417,o),
(179,417,o),
(187,417,cs),
(228,417,o),
(261,428,o),
(286,451,c),
(308,434,o),
(333,425,o),
(363,425,cs),
(439,425,o),
(527,475,o),
(546,668,c),
(524,670,l),
(497,566,o),
(459,542,o),
(409,542,cs),
(377,542,o),
(355,551,o),
(344,570,c),
(350,594,o),
(354,626,o),
(358,667,c),
(336,670,l),
(312,574,o),
(283,542,o),
(214,542,cs),
(177,542,o),
(152,556,o),
(141,585,c),
(138,606,o),
(135,624,o),
(131,638,cs),
(129,651,o),
(126,662,o),
(123,670,c),
(112,670,l),
(85,601,l),
(76,578,o),
(68,554,o),
(63,536,c),
(68,510,o),
(72,485,o),
(77,459,cs),
(93,372,o),
(106,251,o),
(106,122,cs),
(106,69,o),
(104,29,o),
(100,2,c),
(121,-2,l)
);
}
);
width = 567;
}
);
note = ThreeArabic;
unicode = 1635;
}
{
glyphname = "four-ar";
layers = (
{
layerId = "67C28EBA-5AA6-4F74-BBA1-5BB358529C60";
shapes = (
{
closed = 1;
nodes = (
(350,0,o),
(443,52,o),
(539,152,c),
(535,164,l),
(476,164,o),
(416,169,o),
(355,178,cs),
(293,187,o),
(262,203,o),
(262,227,cs),
(262,245,o),
(284,271,o),
(328,305,cs),
(371,339,o),
(393,366,o),
(393,386,cs),
(393,400,o),
(383,416,o),
(351,427,cs),
(219,472,o),
(199,477,o),
(199,500,cs),
(199,521,o),
(243,541,o),
(345,578,c),
(378,615,o),
(426,684,o),
(433,703,c),
(420,707,l),
(327,678,o),
(247,633,o),
(182,572,cs),
(116,511,o),
(83,456,o),
(83,407,cs),
(83,336,o),
(134,306,o),
(221,276,c),
(127,196,o),
(104,148,o),
(104,104,cs),
(104,23,o),
(177,0,o),
(269,0,cs)
);
}
);
width = 618;
},
{
layerId = "0A5D7F3A-D11E-4113-AD15-39410F1DC5C2";
shapes = (
{
closed = 1;
nodes = (
(336,0,o),
(405,30,o),
(476,91,c),
(472,99,l),
(426,99,o),
(378,102,o),
(328,107,cs),
(232,117,o),
(205,130,o),
(205,171,cs),
(205,200,o),
(240,246,o),
(310,309,cs),
(338,334,o),
(352,355,o),
(352,375,cs),
(352,389,o),
(336,402,o),
(306,413,cs),
(210,447,o),
(178,462,o),
(178,483,cs),
(178,511,o),
(224,543,o),
(314,581,c),
(349,621,o),
(376,669,o),
(383,687,c),
(375,691,l),
(316,669,o),
(241,623,o),
(183,569,cs),
(131,521,o),
(93,467,o),
(93,421,cs),
(93,357,o),
(148,330,o),
(240,300,c),
(137,216,o),
(104,149,o),
(104,92,cs),
(104,31,o),
(160,0,o),
(271,0,cs)
);
}
);
width = 565;
}
);
unicode = 1636;
}
{
glyphname = FiveArabic;
layers = (
{
layerId = "67C28EBA-5AA6-4F74-BBA1-5BB358529C60";
shapes = (
{
closed = 1;
nodes = (
(416,25,o),
(487,140,o),
(487,335,cs),
(487,474,o),
(403,616,o),
(304,616,cs),
(174,616,o),
(69,372,o),
(69,204,cs),
(69,80,o),
(137,25,o),
(240,25,cs)
);
},
{
closed = 1;
nodes = (
(199,223,o),
(142,240,o),
(142,296,cs),
(142,348,o),
(206,417,o),
(267,417,cs),
(330,417,o),
(429,361,o),
(429,294,cs),
(429,255,o),
(384,223,o),
(271,223,cs)
);
}
);
width = 558;
},
{
layerId = "0A5D7F3A-D11E-4113-AD15-39410F1DC5C2";
shapes = (
{
closed = 1;
nodes = (
(405,24,o),
(486,125,o),
(486,326,cs),
(486,483,o),
(392,594,o),
(306,594,cs),
(186,594,o),
(79,311,o),
(79,178,cs),
(79,87,o),
(135,24,o),
(244,24,cs)
);
},
{
closed = 1;
nodes = (
(203,156,o),
(143,179,o),
(143,251,cs),
(143,302,o),
(196,461,o),
(276,461,cs),
(347,461,o),
(432,333,o),
(432,255,cs),
(432,195,o),
(381,156,o),
(271,156,cs)
);
}
);
width = 567;
}
);
note = FiveArabic;
unicode = 1637;
}
{
glyphname = SixArabic;
layers = (
{
layerId = "67C28EBA-5AA6-4F74-BBA1-5BB358529C60";
shapes = (
{
closed = 1;
nodes = (
(445,46,o),
(458,77,o),
(476,132,c),
(447,339,o),
(443,372,o),
(443,549,cs),
(443,624,o),
(445,654,o),
(447,665,c),
(420,670,l),
(381,637,o),
(304,622,o),
(261,622,cs),
(173,622,o),
(118,638,o),
(80,676,c),
(59,674,l),
(42,616,o),
(36,574,o),
(36,526,cs),
(36,480,o),
(57,451,o),
(98,438,cs),
(139,425,o),
(181,419,o),
(222,419,cs),
(282,419,o),
(356,435,o),
(385,451,c),
(379,382,o),
(376,307,o),
(376,267,cs),
(376,184,o),
(387,56,o),
(408,0,c),
(424,-1,l)
);
}
);
width = 588;
},
{
layerId = "0A5D7F3A-D11E-4113-AD15-39410F1DC5C2";
shapes = (
{
closed = 1;
nodes = (
(417,48,o),
(433,91,o),
(445,129,c),
(419,295,o),
(413,340,o),
(413,538,cs),
(413,599,o),
(414,637,o),
(417,652,c),
(396,657,l),
(368,625,o),
(313,603,o),
(247,603,cs),
(167,603,o),
(109,623,o),
(72,663,c),
(63,661,l),
(52,629,o),
(46,598,o),
(46,568,cs),
(46,537,o),
(62,521,o),
(97,505,cs),
(130,490,o),
(182,482,o),
(227,482,cs),
(267,482,o),
(325,493,o),
(364,520,c),
(356,461,o),
(353,382,o),
(353,282,cs),
(353,205,o),
(365,63,o),
(385,0,c),
(396,-1,l)
);
}
);
width = 567;
}
);
note = SixArabic;
unicode = 1638;
}
{
glyphname = "seven-ar";
layers = (
{
layerId = "67C28EBA-5AA6-4F74-BBA1-5BB358529C60";
shapes = (
{
closed = 1;
nodes = (
(279,0,l),
(282,5,o),
(287,12,o),
(292,21,cs),
(370,162,o),
(439,308,o),
(510,455,cs),
(529,494,o),
(545,525,o),
(557,550,c),
(557,554,o),
(556,560,o),
(541,614,cs),
(528,662,o),
(524,673,o),
(519,684,c),
(505,684,l),
(435,506,ls),
(407,434,o),
(352,282,o),
(338,247,c),
(334,247,l),
(282,396,o),
(194,588,o),
(147,684,c),
(133,684,l),
(117,673,o),
(89,624,o),
(69,585,cs),
(30,509,o),
(20,486,o),
(18,472,c),
(63,377,o),
(109,282,o),
(154,187,cs),
(221,47,o),
(236,15,o),
(249,0,c)
);
}
);
width = 591;
},
{
layerId = "0A5D7F3A-D11E-4113-AD15-39410F1DC5C2";
shapes = (
{
closed = 1;
nodes = (
(266,0,l),
(274,10,o),
(301,70,o),
(346,180,cs),
(387,280,o),
(432,385,o),
(483,495,cs),
(496,523,o),
(509,551,o),
(523,580,c),
(523,584,o),
(518,602,o),
(509,624,cs),
(504,638,o),
(497,654,o),
(490,670,c),
(481,670,l),
(420,517,l),
(355,354,o),
(313,241,o),
(290,177,c),
(284,177,l),
(264,256,o),
(160,547,o),
(99,670,c),
(90,670,l),
(82,657,o),
(69,634,o),
(57,610,cs),
(44,586,o),
(33,561,o),
(28,543,c),
(76,438,o),
(136,288,o),
(209,93,cs),
(228,41,o),
(235,23,o),
(246,0,c)
);
}
);
width = 567;
}
);
unicode = 1639;
}
{
glyphname = "eight-ar";
layers = (
{
layerId = "67C28EBA-5AA6-4F74-BBA1-5BB358529C60";
shapes = (
{
closed = 1;
nodes = (
(72,0,l),
(103,85,o),
(136,169,o),
(166,254,cs),
(180,295,o),
(195,335,o),
(209,376,cs),
(215,394,o),
(223,415,o),
(232,438,c),
(236,438,l),
(251,397,o),
(296,285,o),
(330,211,cs),
(391,77,o),
(406,44,o),
(430,0,c),
(444,0,l),
(473,23,o),
(549,180,o),
(555,212,c),
(509,307,o),
(370,591,o),
(355,619,cs),
(338,651,o),
(328,669,o),
(317,684,c),
(287,684,l),
(274,662,o),
(217,548,o),
(195,503,cs),
(145,400,o),
(25,152,o),
(18,135,c),
(18,122,o),
(48,21,o),
(58,0,c)
);
}
);
width = 589;
},
{
layerId = "0A5D7F3A-D11E-4113-AD15-39410F1DC5C2";
shapes = (
{
closed = 1;
nodes = (
(69,0,l),
(83,32,o),
(122,130,o),
(162,233,cs),
(183,286,o),
(204,341,o),
(222,389,cs),
(238,432,o),
(252,469,o),
(261,494,c),
(267,494,l),
(279,449,o),
(315,342,o),
(355,235,cs),
(389,145,o),
(425,54,o),
(452,0,c),
(460,0,l),
(481,33,o),
(513,94,o),
(523,127,c),
(482,214,o),
(422,364,o),
(342,578,cs),
(332,604,o),
(322,638,o),
(305,670,c),
(285,670,l),
(276,660,o),
(250,600,o),
(205,490,cs),
(159,377,o),
(123,298,o),
(28,90,c),
(28,82,o),
(50,20,o),
(61,0,c)
);
}
);
width = 567;
}
);
unicode = 1640;
}
{
glyphname = "nine-ar";
layers = (
{
layerId = "67C28EBA-5AA6-4F74-BBA1-5BB358529C60";
shapes = (
{
closed = 1;
nodes = (
(446,85,o),
(458,117,o),
(459,131,c),
(454,165,o),
(435,304,o),
(431,384,cs),
(425,500,o),
(406,595,o),
(383,631,cs),
(360,666,o),
(324,684,o),
(275,684,cs),
(220,684,o),
(175,649,o),
(140,580,cs),
(104,510,o),
(86,441,o),
(86,372,cs),
(86,286,o),
(122,204,o),
(238,204,cs),
(285,204,o),
(337,227,o),
(367,279,c),
(374,129,o),
(380,54,o),
(390,0,c),
(406,-1,l)
);
},
{
closed = 1;
nodes = (
(215,384,o),
(152,401,o),
(152,440,cs),
(152,488,o),
(210,518,o),
(247,518,cs),
(319,518,o),
(363,474,o),
(363,409,c),
(345,391,o),
(299,384,o),
(269,384,cs)
);
}
);
width = 590;
},
{
layerId = "0A5D7F3A-D11E-4113-AD15-39410F1DC5C2";
shapes = (
{
closed = 1;
nodes = (
(399,48,o),
(416,91,o),
(427,129,c),
(413,229,o),
(402,304,o),
(400,376,cs),
(396,498,o),
(386,586,o),
(351,632,cs),
(332,657,o),
(306,670,o),
(270,670,cs),
(227,670,o),
(190,647,o),
(162,612,cs),
(119,558,o),
(96,477,o),
(96,412,cs),
(96,316,o),
(163,287,o),
(227,287,cs),
(275,287,o),
(312,304,o),
(338,339,c),
(345,152,o),
(354,40,o),
(367,0,c),
(379,-1,l)
);
},
{
closed = 1;
nodes = (
(195,402,o),
(154,423,o),
(154,471,cs),
(154,511,o),
(195,560,o),
(243,560,cs),
(287,560,o),
(336,532,o),
(336,418,c),
(315,408,o),
(288,402,o),
(252,402,cs)
);
}
);
width = 567;
}
);
unicode = 1641;
}
{
glyphname = "decimalpoint-ar";
layers = (
{
layerId = "67C28EBA-5AA6-4F74-BBA1-5BB358529C60";
shapes = (
{
closed = 1;
nodes = (
(190,-94,o),
(246,5,o),
(246,75,cs),
(246,129,o),
(217,170,o),
(159,207,c),
(149,207,l),
(137,200,o),
(72,134,o),
(44,96,c),
(44,86,l),
(121,27,o),
(147,7,o),
(147,-33,cs),
(147,-68,o),
(129,-98,o),
(89,-158,c),
(115,-175,l)
);
}
);
width = 289;
},
{
layerId = "0A5D7F3A-D11E-4113-AD15-39410F1DC5C2";
shapes = (
{
closed = 1;
nodes = (
(208,-48,o),
(232,28,o),
(232,73,cs),
(232,119,o),
(206,158,o),
(153,190,c),
(144,190,l),
(134,185,o),
(83,130,o),
(54,91,c),
(54,83,l),
(115,39,o),
(146,13,o),
(146,-23,cs),
(146,-51,o),
(135,-75,o),
(99,-133,c),
(117,-146,l)
);
}
);
width = 285;
}
);
unicode = 1643;
}
{
glyphname = "thousandmarker-ar";
layers = (
{
layerId = "67C28EBA-5AA6-4F74-BBA1-5BB358529C60";
shapes = (
{
closed = 1;
nodes = (
(166,473,o),
(227,573,o),
(227,646,cs),
(227,698,o),
(198,735,o),
(148,767,c),
(138,767,l),
(126,760,o),
(74,707,o),
(41,665,c),
(41,656,l),
(100,611,o),
(135,585,o),
(135,547,cs),
(135,512,o),
(112,473,o),
(81,428,c),
(107,410,l)
);
}
);
width = 290;
},
{
layerId = "0A5D7F3A-D11E-4113-AD15-39410F1DC5C2";
shapes = (
{
closed = 1;
nodes = (
(150,492,o),
(212,576,o),
(212,646,cs),
(212,687,o),
(188,722,o),
(141,751,c),
(133,751,l),
(124,746,o),
(81,704,o),
(51,663,c),
(51,655,l),
(107,613,o),
(134,590,o),
(134,560,cs),
(134,537,o),
(120,504,o),
(91,461,c),
(108,449,l)
);
}
);
width = 285;
}
);
note = "thousandmarker-ar";
unicode = 1644;
}
{
glyphname = "asterisk-ar";
layers = (
{
layerId = "67C28EBA-5AA6-4F74-BBA1-5BB358529C60";
shapes = (
{
closed = 1;
nodes = (
(235,263,o),
(236,265,o),
(236,269,cs),
(236,280,o),
(173,355,o),
(149,355,cs),
(139,355,o),
(134,350,o),
(134,340,cs),
(134,315,o),
(207,263,o),
(232,263,cs)
);
},
{
closed = 1;
nodes = (
(185,101,o),
(240,166,o),
(240,198,cs),
(240,202,o),
(239,204,o),
(237,204,cs),
(221,204,o),
(151,144,o),
(151,116,cs),
(151,106,o),
(156,101,o),
(166,101,cs)
);
},
{
closed = 1;
nodes = (
(180,206,o),
(224,223,o),
(224,234,cs),
(224,242,o),
(202,246,o),
(159,246,cs),
(116,246,o),
(95,238,o),
(95,223,cs),
(95,212,o),
(106,206,o),
(128,206,cs)
);
},
{
closed = 1;
nodes = (
(293,64,o),
(299,75,o),
(299,96,cs),
(299,151,o),
(281,193,o),
(272,193,cs),
(263,193,o),
(259,171,o),
(259,126,cs),
(259,85,o),
(267,64,o),
(282,64,cs)
);
},
{
closed = 1;
nodes = (
(399,119,o),
(404,123,o),
(404,132,cs),
(404,159,o),
(333,209,o),
(306,209,cs),
(303,209,o),
(301,208,o),
(301,205,cs),
(301,188,o),
(365,119,o),
(389,119,cs)
);
},
{
closed = 1;
nodes = (
(274,280,o),
(279,302,o),
(279,347,cs),
(279,389,o),
(271,410,o),
(256,410,cs),
(245,410,o),
(239,399,o),
(239,378,cs),
(239,349,o),
(261,280,o),
(265,280,cs)
);
},
{
closed = 1;
nodes = (
(420,227,o),
(441,235,o),
(441,250,cs),
(441,261,o),
(430,267,o),
(409,267,cs),
(355,267,o),
(312,250,o),
(312,240,cs),
(312,231,o),
(334,227,o),
(379,227,cs)
);
},
{
closed = 1;
nodes = (
(316,269,o),
(386,332,o),
(386,357,cs),
(386,367,o),
(381,372,o),
(372,372,cs),
(360,372,o),
(344,359,o),
(325,333,cs),
(305,306,o),
(295,287,o),
(295,274,cs),
(295,271,o),
(297,269,o),
(300,269,cs)
);
}
);
width = 537;
},
{
layerId = "0A5D7F3A-D11E-4113-AD15-39410F1DC5C2";
shapes = (
{
closed = 1;
nodes = (
(231,261,o),
(233,263,o),
(233,266,cs),
(233,279,o),
(178,344,o),
(154,344,cs),
(145,344,o),
(140,339,o),
(140,331,cs),
(140,309,o),
(203,261,o),
(229,261,cs)
);
},
{
closed = 1;
nodes = (
(188,113,o),
(237,178,o),
(237,202,cs),
(237,206,o),
(236,208,o),
(234,208,cs),
(221,208,o),
(156,152,o),
(156,127,cs),
(156,118,o),
(160,113,o),
(169,113,cs)
);
},
{
closed = 1;
nodes = (
(194,210,o),
(222,226,o),
(222,234,cs),
(222,241,o),
(202,245,o),
(163,245,cs),
(125,245,o),
(105,238,o),
(105,224,cs),
(105,214,o),
(116,209,o),
(136,209,cs)
);
},
{
closed = 1;
nodes = (
(285,80,o),
(290,90,o),
(290,109,cs),
(290,150,o),
(276,197,o),
(266,197,cs),
(258,197,o),
(254,177,o),
(254,136,cs),
(254,99,o),
(261,80,o),
(275,80,cs)
);
},
{
closed = 1;
nodes = (
(381,130,o),
(386,134,o),
(386,143,cs),
(386,166,o),
(319,212,o),
(297,212,cs),
(293,212,o),
(292,211,o),
(292,208,cs),
(292,192,o),
(347,130,o),
(372,130,cs)
);
},
{
closed = 1;
nodes = (
(268,276,o),
(271,296,o),
(271,336,cs),
(271,375,o),
(265,394,o),
(250,394,cs),
(240,394,o),
(235,384,o),
(235,365,cs),
(235,306,o),
(252,276,o),
(259,276,cs)
);
},
{
closed = 1;
nodes = (
(400,228,o),
(419,235,o),
(419,250,cs),
(419,259,o),
(409,264,o),
(388,264,cs),
(357,264,o),
(302,251,o),
(302,240,cs),
(302,231,o),
(322,228,o),
(363,228,cs)
);
},
{
closed = 1;
nodes = (
(306,267,o),
(369,322,o),
(369,345,cs),
(369,354,o),
(365,359,o),
(357,359,cs),
(346,359,o),
(329,344,o),
(316,327,cs),
(300,307,o),
(288,284,o),
(288,271,cs),
(288,268,o),
(289,266,o),
(292,266,c)
);
}
);
width = 525;
}
);
unicode = 1645;
}
{
category = Mark;
glyphname = "alefabove-ar";
layers = (
{
anchors = (
{
name = Anchor31;
pos = (0,1181);
},
{
name = _Anchor31;
pos = (-5,851);
},
{
name = _top;
pos = (0,950);
}
);
layerId = "67C28EBA-5AA6-4F74-BBA1-5BB358529C60";
shapes = (
{
closed = 1;
nodes = (
(16,890,o),
(31,942,o),
(34,990,cs),
(35,1010,ls),
(38,1085,o),
(40,1108,o),
(45,1120,c),
(28,1123,l),
(0,1069,o),
(-8,1051,o),
(-11,994,cs),
(-16,902,o),
(-18,865,o),
(-23,841,c),
(-6,838,l)
);
}
);
width = 0;
},
{
anchors = (
{
name = Anchor31;
pos = (0,1181);
},
{
name = _Anchor31;
pos = (-6,850);
},
{
name = _top;
pos = (0,950);
}
);
layerId = "0A5D7F3A-D11E-4113-AD15-39410F1DC5C2";
shapes = (
{
closed = 1;
nodes = (
(14,893,o),
(28,945,o),
(30,989,cs),
(31,1006,ls),
(33,1066,o),
(37,1097,o),
(40,1106,c),
(29,1110,l),
(4,1061,o),
(-3,1042,o),
(-6,992,cs),
(-10,914,o),
(-13,877,o),
(-17,854,c),
(-5,851,l)
);
}
);
width = 0;
}
);
subCategory = Nonspacing;
unicode = 1648;
}
{
glyphname = PeriodUrdu;
layers = (
{
layerId = "67C28EBA-5AA6-4F74-BBA1-5BB358529C60";
shapes = (
{
closed = 1;
nodes = (
(79,65,o),
(74,63,o),
(447,98,cs),
(504,103,o),
(549,110,o),
(584,119,cs),
(662,138,o),
(707,228,o),
(733,298,c),
(725,319,l),
(709,315,o),
(677,309,o),
(623,304,cs),
(383,280,o),
(299,275,o),
(241,258,cs),
(152,232,o),
(101,178,o),
(48,77,c),
(58,59,l)
);
}
);
width = 781;
},
{
layerId = "0A5D7F3A-D11E-4113-AD15-39410F1DC5C2";
shapes = (
{
closed = 1;
nodes = (
(84,77,o),
(159,87,o),
(287,99,cs),
(405,110,o),
(478,119,o),
(508,126,cs),
(540,133,o),
(587,169,o),
(604,243,c),
(600,250,l),
(545,234,o),
(462,228,o),
(387,221,cs),
(262,209,o),
(184,197,o),
(151,182,cs),
(105,161,o),
(74,126,o),
(58,77,c),
(63,69,l)
);
}
);
width = 663;
}
);
note = PeriodUrdu;
unicode = 1748;
}
{
glyphname = k_RubElHizb;
layers = (
{
layerId = "67C28EBA-5AA6-4F74-BBA1-5BB358529C60";
shapes = (
{
closed = 1;
nodes = (
(766,38,l),
(789,6,o),
(822,-21,o),
(877,-21,cs),
(923,-21,o),
(960,1,o),
(986,36,c),
(1053,-19,l),
(1069,59,l),
(1088,50,o),
(1107,46,o),
(1128,46,cs),
(1133,46,ls),
(1191,46,o),
(1252,90,o),
(1262,168,c),
(1348,155,l),
(1322,229,l),
(1400,237,o),
(1445,297,o),
(1445,356,cs),
(1445,361,ls),
(1445,380,o),
(1441,399,o),
(1434,419,c),
(1515,450,l),
(1455,504,l),
(1494,532,o),
(1514,568,o),
(1514,615,cs),
(1514,665,o),
(1489,700,o),
(1457,724,c),
(1512,791,l),
(1434,807,l),
(1442,828,o),
(1446,849,o),
(1446,871,cs),
(1446,939,o),
(1395,991,o),
(1325,1000,c),
(1338,1086,l),
(1262,1060,l),
(1256,1139,o),
(1195,1180,o),
(1137,1183,c),
(1130,1183,ls),
(1111,1183,o),
(1092,1179,o),
(1073,1172,c),
(1042,1253,l),
(989,1193,l),
(958,1236,o),
(920,1252,o),
(877,1252,cs),
(820,1252,o),
(786,1219,o),
(769,1195,c),
(702,1250,l),
(685,1172,l),
(664,1180,o),
(643,1184,o),
(622,1184,cs),
(558,1184,o),
(504,1136,o),
(493,1063,c),
(407,1076,l),
(432,1000,l),
(354,994,o),
(310,931,o),
(310,874,cs),
(310,849,o),
(311,837,o),
(321,811,c),
(240,780,l),
(300,727,l),
(257,696,o),
(241,658,o),
(241,615,cs),
(241,566,o),
(264,530,o),
(297,508,c),
(243,440,l),
(321,423,l),
(312,405,o),
(308,386,o),
(308,365,cs),
(308,360,ls),
(308,297,o),
(354,242,o),
(429,231,c),
(417,145,l),
(491,171,l),
(501,87,o),
(564,48,o),
(619,48,cs),
(644,48,o),
(655,49,o),
(681,59,c),
(712,-22,l)
);
},
{
closed = 1;
nodes = (
(451,230,l),
(472,232,o),
(490,238,o),
(505,247,c),
(494,216,o),
(491,208,o),
(491,193,c),
(433,166,l)
);
},
{
closed = 1;
nodes = (
(700,69,l),
(717,80,o),
(729,94,o),
(738,111,c),
(741,92,o),
(746,74,o),
(754,57,c),
(717,3,l)
);
},
{
closed = 1;
nodes = (
(267,448,l),
(316,495,l),
(333,487,o),
(351,483,o),
(371,483,c),
(364,476,o),
(357,469,o),
(350,464,c),
(342,459,o),
(337,451,o),
(332,442,c)
);
},
{
closed = 1;
nodes = (
(374,250,o),
(331,327,o),
(331,374,cs),
(331,453,o),
(424,499,o),
(556,542,c),
(535,524,o),
(526,503,o),
(526,484,cs),
(526,429,o),
(577,402,o),
(607,402,c),
(611,403,o),
(614,403,o),
(615,403,c),
(574,356,o),
(549,324,o),
(540,308,cs),
(530,291,o),
(522,281,o),
(515,276,cs),
(498,264,ls),
(478,250,o),
(459,250,o),
(446,250,cs)
);
},
{
closed = 1;
nodes = (
(610,70,o),
(583,80,o),
(555,100,cs),
(527,120,o),
(513,147,o),
(513,182,cs),
(513,233,o),
(549,297,o),
(621,374,cs),
(693,451,o),
(761,514,o),
(826,565,c),
(830,560,o),
(835,557,o),
(840,554,c),
(810,475,o),
(786,401,o),
(769,333,cs),
(752,264,o),
(741,213,o),
(739,179,cs),
(735,108,o),
(687,70,o),
(637,70,cs)
);
},
{
closed = 1;
nodes = (
(997,54,l),
(1006,69,o),
(1010,88,o),
(1010,109,c),
(1027,88,o),
(1038,78,o),
(1051,70,c),
(1044,5,l)
);
},
{
closed = 1;
nodes = (
(265,776,l),
(331,793,l),
(344,772,o),
(359,761,o),
(372,753,c),
(345,749,o),
(333,746,o),
(318,738,c)
);
},
{
closed = 1;
nodes = (
(320,501,o),
(269,537,o),
(269,615,cs),
(269,685,o),
(313,733,o),
(401,733,cs),
(499,733,o),
(627,700,o),
(731,664,c),
(648,641,l),
(724,605,l),
(663,594,o),
(607,580,o),
(556,565,cs),
(505,550,o),
(466,534,o),
(441,521,cs),
(415,508,o),
(392,501,o),
(373,501,cs)
);
},
{
closed = 1;
nodes = (
(816,7,o),
(759,42,o),
(759,139,cs),
(759,249,o),
(818,454,o),
(857,547,c),
(862,544,o),
(868,543,o),
(877,543,c),
(888,462,o),
(904,386,o),
(924,315,cs),
(944,244,o),
(960,198,o),
(973,175,cs),
(986,152,o),
(991,131,o),
(991,111,cs),
(991,58,o),
(954,7,o),
(877,7,cs)
);
},
{
closed = 1;
nodes = (
(584,417,o),
(551,439,o),
(551,478,cs),
(551,497,o),
(559,515,o),
(576,530,cs),
(593,545,o),
(629,560,o),
(684,572,cs),
(731,582,ls),
(767,590,o),
(788,593,o),
(809,596,c),
(816,579,l),
(781,551,ls),
(721,503,o),
(684,468,o),
(667,448,cs),
(649,427,o),
(630,417,o),
(611,417,cs)
);
},
{
closed = 1;
nodes = (
(1069,69,o),
(1027,107,o),
(992,184,cs),
(957,260,o),
(929,354,o),
(908,465,c),
(984,400,l),
(965,486,l),
(998,449,o),
(1034,411,o),
(1073,372,cs),
(1112,333,o),
(1150,302,o),
(1187,277,cs),
(1224,252,o),
(1243,221,o),
(1243,184,cs),
(1243,107,o),
(1159,69,o),
(1119,69,cs)
);
},
{
closed = 1;
nodes = (
(693,637,l),
(753,655,l),
(809,635,l),
(807,629,o),
(806,622,o),
(806,615,c),
(751,608,l)
);
},
{
closed = 1;
nodes = (
(755,676,o),
(687,699,o),
(612,720,cs),
(537,741,o),
(481,751,o),
(446,753,cs),
(370,757,o),
(332,806,o),
(332,856,cs),
(332,898,o),
(367,980,o),
(444,980,cs),
(494,980,o),
(556,945,o),
(631,876,cs),
(706,807,o),
(771,737,o),
(827,667,c),
(823,663,o),
(819,658,o),
(816,651,c)
);
},
{
closed = 1;
nodes = (
(906,485,l),
(895,546,l),
(900,547,o),
(906,549,o),
(913,553,c),
(929,531,ls),
(937,520,o),
(942,512,o),
(947,507,c),
(958,442,l)
);
},
{
closed = 1;
nodes = (
(495,993,o),
(479,1001,o),
(455,1001,c),
(428,1060,l),
(492,1042,l),
(493,1021,o),
(499,1003,o),
(509,987,c)
);
},
{
closed = 1;
nodes = (
(851,564,o),
(826,585,o),
(826,615,cs),
(826,646,o),
(850,666,o),
(877,666,cs),
(904,666,o),
(928,647,o),
(928,615,cs),
(928,589,o),
(909,564,o),
(877,564,cs)
);
},
{
closed = 1;
nodes = (
(1262,189,l),
(1261,207,o),
(1256,225,o),
(1246,243,c),
(1269,234,o),
(1282,229,o),
(1300,229,c),
(1327,171,l)
);
},
{
closed = 1;
nodes = (
(1096,395,o),
(1057,419,o),
(982,501,cs),
(962,523,l),
(955,530,o),
(949,538,o),
(943,545,c),
(928,564,l),
(931,566,o),
(934,568,o),
(935,571,c),
(940,579,l),
(986,563,ls),
(1058,538,o),
(1110,520,o),
(1143,513,cs),
(1175,506,o),
(1193,487,o),
(1193,457,cs),
(1193,438,o),
(1187,423,o),
(1174,412,cs),
(1161,401,o),
(1148,395,o),
(1133,395,cs)
);
},
{
closed = 1;
nodes = (
(802,728,o),
(756,780,o),
(703,835,cs),
(650,890,o),
(605,929,o),
(568,954,cs),
(531,979,o),
(512,1010,o),
(512,1047,cs),
(512,1111,o),
(576,1161,o),
(636,1161,cs),
(693,1161,o),
(741,1110,o),
(778,1007,cs),
(815,904,o),
(843,797,o),
(860,685,c),
(842,678,l)
);
},
{
closed = 1;
nodes = (
(1254,251,o),
(1187,294,o),
(1100,375,c),
(1109,371,o),
(1116,369,o),
(1135,369,cs),
(1166,369,o),
(1210,398,o),
(1210,449,cs),
(1210,466,o),
(1205,481,o),
(1194,495,c),
(1235,486,o),
(1273,480,o),
(1309,478,cs),
(1394,473,o),
(1422,416,o),
(1422,375,cs),
(1422,324,o),
(1383,251,o),
(1310,251,cs)
);
},
{
closed = 1;
nodes = (
(925,670,o),
(920,674,o),
(913,677,c),
(920,691,o),
(930,715,o),
(935,729,c),
(996,771,l),
(974,704,l),
(929,666,l)
);
},
{
closed = 1;
nodes = (
(892,687,o),
(885,688,o),
(878,688,c),
(849,836,ls),
(840,881,o),
(832,908,o),
(832,916,cs),
(832,950,o),
(856,976,o),
(891,976,cs),
(933,976,o),
(957,939,o),
(957,904,cs),
(957,874,o),
(941,816,o),
(914,733,cs),
(898,684,l)
);
},
{
closed = 1;
nodes = (
(1243,497,o),
(1036,557,o),
(946,595,c),
(948,602,o),
(949,608,o),
(949,615,c),
(1028,626,o),
(1102,641,o),
(1172,661,cs),
(1242,681,o),
(1290,697,o),
(1316,710,cs),
(1341,723,o),
(1363,729,o),
(1382,729,cs),
(1425,729,o),
(1486,701,o),
(1486,615,cs),
(1486,540,o),
(1439,497,o),
(1354,497,cs)
);
},
{
closed = 1;
nodes = (
(1413,454,o),
(1399,467,o),
(1382,477,c),
(1401,479,o),
(1419,484,o),
(1436,492,c),
(1489,455,l),
(1424,438,l)
);
},
{
closed = 1;
nodes = (
(738,1128,o),
(731,1135,o),
(726,1142,c),
(721,1150,o),
(713,1155,o),
(704,1160,c),
(710,1226,l),
(757,1177,l),
(749,1159,o),
(745,1140,o),
(745,1121,c)
);
},
{
closed = 1;
nodes = (
(968,976,o),
(934,996,o),
(897,996,cs),
(860,996,o),
(835,977,o),
(823,948,c),
(809,993,o),
(796,1029,o),
(783,1054,cs),
(770,1079,o),
(763,1101,o),
(763,1120,cs),
(763,1165,o),
(793,1224,o),
(877,1224,cs),
(951,1224,o),
(995,1177,o),
(995,1092,cs),
(995,1033,o),
(986,985,o),
(974,929,c)
);
},
{
closed = 1;
nodes = (
(940,651,l),
(985,685,o),
(1036,730,o),
(1094,787,cs),
(1152,844,o),
(1193,889,o),
(1218,926,cs),
(1243,963,o),
(1272,981,o),
(1309,981,cs),
(1374,981,o),
(1423,914,o),
(1423,857,cs),
(1423,799,o),
(1372,751,o),
(1270,714,cs),
(1167,677,o),
(1060,649,o),
(947,632,c)
);
},
{
closed = 1;
nodes = (
(1027,811,l),
(945,753,l),
(984,863,o),
(1007,958,o),
(1014,1039,cs),
(1021,1120,o),
(1055,1160,o),
(1118,1160,cs),
(1161,1160,o),
(1242,1127,o),
(1242,1048,cs),
(1242,1005,o),
(1215,952,o),
(1162,889,cs),
(1109,826,o),
(1052,768,o),
(991,717,c)
);
},
{
closed = 1;
nodes = (
(1422,744,o),
(1404,748,o),
(1383,748,c),
(1398,760,o),
(1412,772,o),
(1422,789,c),
(1488,782,l),
(1439,735,l)
);
},
{
closed = 1;
nodes = (
(1011,1146,o),
(1009,1157,o),
(1000,1174,c),
(1038,1227,l),
(1055,1162,l),
(1040,1151,o),
(1026,1137,o),
(1015,1120,c)
);
},
{
closed = 1;
nodes = (
(1255,997,o),
(1259,1009,o),
(1263,1038,c),
(1322,1065,l),
(1304,1000,l),
(1287,999,o),
(1268,994,o),
(1249,984,c)
);
}
);
width = 1754;
},
{
layerId = "0A5D7F3A-D11E-4113-AD15-39410F1DC5C2";
shapes = (
{
closed = 1;
nodes = (
(766,38,l),
(789,6,o),
(822,-21,o),
(877,-21,cs),
(923,-21,o),
(960,1,o),
(986,36,c),
(1053,-19,l),
(1069,59,l),
(1088,50,o),
(1107,46,o),
(1128,46,cs),
(1133,46,ls),
(1191,46,o),
(1252,90,o),
(1262,168,c),
(1348,155,l),
(1322,229,l),
(1400,237,o),
(1445,297,o),
(1445,356,cs),
(1445,361,ls),
(1445,380,o),
(1441,399,o),
(1434,419,c),
(1515,450,l),
(1455,504,l),
(1494,532,o),
(1514,568,o),
(1514,615,cs),
(1514,665,o),
(1489,700,o),
(1457,724,c),
(1512,791,l),
(1434,807,l),
(1442,828,o),
(1446,849,o),
(1446,871,cs),
(1446,939,o),
(1395,991,o),
(1325,1000,c),
(1338,1086,l),
(1262,1060,l),
(1256,1139,o),
(1195,1180,o),
(1137,1183,c),
(1130,1183,ls),
(1111,1183,o),
(1092,1179,o),
(1073,1172,c),
(1042,1253,l),
(989,1193,l),
(958,1236,o),
(920,1252,o),
(877,1252,cs),
(820,1252,o),
(786,1219,o),
(769,1195,c),
(702,1250,l),
(685,1172,l),
(664,1180,o),
(643,1184,o),
(622,1184,cs),
(558,1184,o),
(504,1136,o),
(493,1063,c),
(407,1076,l),
(432,1000,l),
(354,994,o),
(310,931,o),
(310,874,cs),
(310,849,o),
(311,837,o),
(321,811,c),
(240,780,l),
(300,727,l),
(257,696,o),
(241,658,o),
(241,615,cs),
(241,566,o),
(264,530,o),
(297,508,c),
(243,440,l),
(321,423,l),
(312,405,o),
(308,386,o),
(308,365,cs),
(308,360,ls),
(308,297,o),
(354,242,o),
(429,231,c),
(417,145,l),
(491,171,l),
(501,87,o),
(564,48,o),
(619,48,cs),
(644,48,o),
(655,49,o),
(681,59,c),
(712,-22,l)
);
},
{
closed = 1;
nodes = (
(451,230,l),
(472,232,o),
(490,238,o),
(505,247,c),
(494,216,o),
(491,208,o),
(491,193,c),
(433,166,l)
);
},
{
closed = 1;
nodes = (
(700,69,l),
(717,80,o),
(729,94,o),
(738,111,c),
(741,92,o),
(746,74,o),
(754,57,c),
(717,3,l)
);
},
{
closed = 1;
nodes = (
(267,448,l),
(316,495,l),
(333,487,o),
(351,483,o),
(371,483,c),
(364,476,o),
(357,469,o),
(350,464,c),
(342,459,o),
(337,451,o),
(332,442,c)
);
},
{
closed = 1;
nodes = (
(374,250,o),
(331,327,o),
(331,374,cs),
(331,453,o),
(424,499,o),
(556,542,c),
(535,524,o),
(526,503,o),
(526,484,cs),
(526,429,o),
(577,402,o),
(607,402,c),
(611,403,o),
(614,403,o),
(615,403,c),
(574,356,o),
(549,324,o),
(540,308,cs),
(530,291,o),
(522,281,o),
(515,276,cs),
(498,264,ls),
(478,250,o),
(459,250,o),
(446,250,cs)
);
},
{
closed = 1;
nodes = (
(610,70,o),
(583,80,o),
(555,100,cs),
(527,120,o),
(513,147,o),
(513,182,cs),
(513,233,o),
(549,297,o),
(621,374,cs),
(693,451,o),
(761,514,o),
(826,565,c),
(830,560,o),
(835,557,o),
(840,554,c),
(810,475,o),
(786,401,o),
(769,333,cs),
(752,264,o),
(741,213,o),
(739,179,cs),
(735,108,o),
(687,70,o),
(637,70,cs)
);
},
{
closed = 1;
nodes = (
(997,54,l),
(1006,69,o),
(1010,88,o),
(1010,109,c),
(1027,88,o),
(1038,78,o),
(1051,70,c),
(1044,5,l)
);
},
{
closed = 1;
nodes = (
(265,776,l),
(331,793,l),
(344,772,o),
(359,761,o),
(372,753,c),
(345,749,o),
(333,746,o),
(318,738,c)
);
},
{
closed = 1;
nodes = (
(320,501,o),
(269,537,o),
(269,615,cs),
(269,685,o),
(313,733,o),
(401,733,cs),
(499,733,o),
(627,700,o),
(731,664,c),
(648,641,l),
(724,605,l),
(663,594,o),
(607,580,o),
(556,565,cs),
(505,550,o),
(466,534,o),
(441,521,cs),
(415,508,o),
(392,501,o),
(373,501,cs)
);
},
{
closed = 1;
nodes = (
(816,7,o),
(759,42,o),
(759,139,cs),
(759,249,o),
(818,454,o),
(857,547,c),
(862,544,o),
(868,543,o),
(877,543,c),
(888,462,o),
(904,386,o),
(924,315,cs),
(944,244,o),
(960,198,o),
(973,175,cs),
(986,152,o),
(991,131,o),
(991,111,cs),
(991,58,o),
(954,7,o),
(877,7,cs)
);
},
{
closed = 1;
nodes = (
(584,417,o),
(551,439,o),
(551,478,cs),
(551,497,o),
(559,515,o),
(576,530,cs),
(593,545,o),
(629,560,o),
(684,572,cs),
(731,582,ls),
(767,590,o),
(788,593,o),
(809,596,c),
(816,579,l),
(781,551,ls),
(721,503,o),
(684,468,o),
(667,448,cs),
(649,427,o),
(630,417,o),
(611,417,cs)
);
},
{
closed = 1;
nodes = (
(1069,69,o),
(1027,107,o),
(992,184,cs),
(957,260,o),
(929,354,o),
(908,465,c),
(984,400,l),
(965,486,l),
(998,449,o),
(1034,411,o),
(1073,372,cs),
(1112,333,o),
(1150,302,o),
(1187,277,cs),
(1224,252,o),
(1243,221,o),
(1243,184,cs),
(1243,107,o),
(1159,69,o),
(1119,69,cs)
);
},
{
closed = 1;
nodes = (
(693,637,l),
(753,655,l),
(809,635,l),
(807,629,o),
(806,622,o),
(806,615,c),
(751,608,l)
);
},
{
closed = 1;
nodes = (
(755,676,o),
(687,699,o),
(612,720,cs),
(537,741,o),
(481,751,o),
(446,753,cs),
(370,757,o),
(332,806,o),
(332,856,cs),
(332,898,o),
(367,980,o),
(444,980,cs),
(494,980,o),
(556,945,o),
(631,876,cs),
(706,807,o),
(771,737,o),
(827,667,c),
(823,663,o),
(819,658,o),
(816,651,c)
);
},
{
closed = 1;
nodes = (
(906,485,l),
(895,546,l),
(900,547,o),
(906,549,o),
(913,553,c),
(929,531,ls),
(937,520,o),
(942,512,o),
(947,507,c),
(958,442,l)
);
},
{
closed = 1;
nodes = (
(495,993,o),
(479,1001,o),
(455,1001,c),
(428,1060,l),
(492,1042,l),
(493,1021,o),
(499,1003,o),
(509,987,c)
);
},
{
closed = 1;
nodes = (
(851,564,o),
(826,585,o),
(826,615,cs),
(826,646,o),
(850,666,o),
(877,666,cs),
(904,666,o),
(928,647,o),
(928,615,cs),
(928,589,o),
(909,564,o),
(877,564,cs)
);
},
{
closed = 1;
nodes = (
(1262,189,l),
(1261,207,o),
(1256,225,o),
(1246,243,c),
(1269,234,o),
(1282,229,o),
(1300,229,c),
(1327,171,l)
);
},
{
closed = 1;
nodes = (
(1096,395,o),
(1057,419,o),
(982,501,cs),
(962,523,l),
(955,530,o),
(949,538,o),
(943,545,c),
(928,564,l),
(931,566,o),
(934,568,o),
(935,571,c),
(940,579,l),
(986,563,ls),
(1058,538,o),
(1110,520,o),
(1143,513,cs),
(1175,506,o),
(1193,487,o),
(1193,457,cs),
(1193,438,o),
(1187,423,o),
(1174,412,cs),
(1161,401,o),
(1148,395,o),
(1133,395,cs)
);
},
{
closed = 1;
nodes = (
(802,728,o),
(756,780,o),
(703,835,cs),
(650,890,o),
(605,929,o),
(568,954,cs),
(531,979,o),
(512,1010,o),
(512,1047,cs),
(512,1111,o),
(576,1161,o),
(636,1161,cs),
(693,1161,o),
(741,1110,o),
(778,1007,cs),
(815,904,o),
(843,797,o),
(860,685,c),
(842,678,l)
);
},
{
closed = 1;
nodes = (
(1254,251,o),
(1187,294,o),
(1100,375,c),
(1109,371,o),
(1116,369,o),
(1135,369,cs),
(1166,369,o),
(1210,398,o),
(1210,449,cs),
(1210,466,o),
(1205,481,o),
(1194,495,c),
(1235,486,o),
(1273,480,o),
(1309,478,cs),
(1394,473,o),
(1422,416,o),
(1422,375,cs),
(1422,324,o),
(1383,251,o),
(1310,251,cs)
);
},
{
closed = 1;
nodes = (
(925,670,o),
(920,674,o),
(913,677,c),
(920,691,o),
(930,715,o),
(935,729,c),
(996,771,l),
(974,704,l),
(929,666,l)
);
},
{
closed = 1;
nodes = (
(892,687,o),
(885,688,o),
(878,688,c),
(849,836,ls),
(840,881,o),
(832,908,o),
(832,916,cs),
(832,950,o),
(856,976,o),
(891,976,cs),
(933,976,o),
(957,939,o),
(957,904,cs),
(957,874,o),
(941,816,o),
(914,733,cs),
(898,684,l)
);
},
{
closed = 1;
nodes = (
(1243,497,o),
(1036,557,o),
(946,595,c),
(948,602,o),
(949,608,o),
(949,615,c),
(1028,626,o),
(1102,641,o),
(1172,661,cs),
(1242,681,o),
(1290,697,o),
(1316,710,cs),
(1341,723,o),
(1363,729,o),
(1382,729,cs),
(1425,729,o),
(1486,701,o),
(1486,615,cs),
(1486,540,o),
(1439,497,o),
(1354,497,cs)
);
},
{
closed = 1;
nodes = (
(1413,454,o),
(1399,467,o),
(1382,477,c),
(1401,479,o),
(1419,484,o),
(1436,492,c),
(1489,455,l),
(1424,438,l)
);
},
{
closed = 1;
nodes = (
(738,1128,o),
(731,1135,o),
(726,1142,c),
(721,1150,o),
(713,1155,o),
(704,1160,c),
(710,1226,l),
(757,1177,l),
(749,1159,o),
(745,1140,o),
(745,1121,c)
);
},
{
closed = 1;
nodes = (
(968,976,o),
(934,996,o),
(897,996,cs),
(860,996,o),
(835,977,o),
(823,948,c),
(809,993,o),
(796,1029,o),
(783,1054,cs),
(770,1079,o),
(763,1101,o),
(763,1120,cs),
(763,1165,o),
(793,1224,o),
(877,1224,cs),
(951,1224,o),
(995,1177,o),
(995,1092,cs),
(995,1033,o),
(986,985,o),
(974,929,c)
);
},
{
closed = 1;
nodes = (
(940,651,l),
(985,685,o),
(1036,730,o),
(1094,787,cs),
(1152,844,o),
(1193,889,o),
(1218,926,cs),
(1243,963,o),
(1272,981,o),
(1309,981,cs),
(1374,981,o),
(1423,914,o),
(1423,857,cs),
(1423,799,o),
(1372,751,o),
(1270,714,cs),
(1167,677,o),
(1060,649,o),
(947,632,c)
);
},
{
closed = 1;
nodes = (
(1027,811,l),
(945,753,l),
(984,863,o),
(1007,958,o),
(1014,1039,cs),
(1021,1120,o),
(1055,1160,o),
(1118,1160,cs),
(1161,1160,o),
(1242,1127,o),
(1242,1048,cs),
(1242,1005,o),
(1215,952,o),
(1162,889,cs),
(1109,826,o),
(1052,768,o),
(991,717,c)
);
},
{
closed = 1;
nodes = (
(1422,744,o),
(1404,748,o),
(1383,748,c),
(1398,760,o),
(1412,772,o),
(1422,789,c),
(1488,782,l),
(1439,735,l)
);
},
{
closed = 1;
nodes = (
(1011,1146,o),
(1009,1157,o),
(1000,1174,c),
(1038,1227,l),
(1055,1162,l),
(1040,1151,o),
(1026,1137,o),
(1015,1120,c)
);
},
{
closed = 1;
nodes = (
(1255,997,o),
(1259,1009,o),
(1263,1038,c),
(1322,1065,l),
(1304,1000,l),
(1287,999,o),
(1268,994,o),
(1249,984,c)
);
}
);
width = 1754;
}
);
unicode = 1758;
}
{
category = Mark;
glyphname = "sukunoval-ar";
layers = (
{
anchors = (
{
name = Anchor31;
pos = (0,1165);
},
{
name = _Anchor31;
pos = (1,857);
},
{
name = _top;
pos = (0,955);
}
);
layerId = "67C28EBA-5AA6-4F74-BBA1-5BB358529C60";
shapes = (
{
closed = 1;
nodes = (
(65,845,o),
(111,894,o),
(111,968,cs),
(111,1047,o),
(75,1105,o),
(-3,1105,cs),
(-66,1105,o),
(-113,1054,o),
(-113,983,cs),
(-113,895,o),
(-70,845,o),
(1,845,cs)
);
},
{
closed = 1;
nodes = (
(-23,872,o),
(-35,918,o),
(-35,1011,cs),
(-35,1061,o),
(-25,1078,o),
(-3,1078,cs),
(21,1078,o),
(33,1032,o),
(33,939,cs),
(33,889,o),
(23,872,o),
(1,872,cs)
);
}
);
width = 0;
},
{
anchors = (
{
name = Anchor31;
pos = (0,1164);
},
{
name = _Anchor31;
pos = (0,856);
},
{
name = _top;
pos = (0,954);
}
);
layerId = "0A5D7F3A-D11E-4113-AD15-39410F1DC5C2";
shapes = (
{
closed = 1;
nodes = (
(53,857,o),
(87,904,o),
(87,968,cs),
(87,1043,o),
(58,1092,o),
(-2,1092,cs),
(-52,1092,o),
(-89,1048,o),
(-89,982,cs),
(-89,901,o),
(-56,857,o),
(1,857,cs)
);
},
{
closed = 1;
nodes = (
(-21,881,o),
(-32,923,o),
(-32,1008,cs),
(-32,1051,o),
(-24,1069,o),
(-2,1069,cs),
(19,1069,o),
(30,1026,o),
(30,941,cs),
(30,900,o),
(23,881,o),
(1,881,cs)
);
}
);
width = 0;
}
);
subCategory = Nonspacing;
unicode = 1760;
}
{
glyphname = k_Sajdah;
layers = (
{
layerId = "67C28EBA-5AA6-4F74-BBA1-5BB358529C60";
shapes = (
{
closed = 1;
nodes = (
(1013,26,ls),
(1036,26,o),
(1042,36,o),
(1042,52,cs),
(1042,66,o),
(1032,80,o),
(1023,91,c),
(1008,108,l),
(1008,729,l),
(1099,750,o),
(1158,810,o),
(1158,906,cs),
(1158,942,o),
(1147,977,o),
(1125,1011,cs),
(1103,1045,o),
(1046,1093,o),
(954,1154,cs),
(862,1215,o),
(803,1269,o),
(777,1314,cs),
(737,1384,o),
(732,1393,o),
(711,1393,cs),
(690,1393,o),
(686,1386,o),
(645,1314,cs),
(619,1269,o),
(561,1215,o),
(468,1154,cs),
(376,1093,o),
(319,1045,o),
(297,1011,cs),
(275,977,o),
(264,942,o),
(264,906,cs),
(264,794,o),
(342,745,o),
(414,729,c),
(414,108,l),
(399,91,ls),
(390,81,o),
(380,67,o),
(380,52,cs),
(380,33,o),
(390,26,o),
(409,26,cs)
);
},
{
closed = 1;
nodes = (
(555,840,l),
(443,844,o),
(411,870,o),
(411,908,cs),
(411,940,o),
(449,979,o),
(523,1022,cs),
(598,1066,o),
(661,1118,o),
(711,1177,c),
(761,1118,o),
(824,1066,o),
(899,1022,cs),
(974,978,o),
(1011,940,o),
(1011,908,cs),
(1011,869,o),
(977,844,o),
(868,840,c),
(868,160,l),
(555,160,l)
);
},
{
closed = 1;
nodes = (
(890,138,l),
(890,820,l),
(990,824,o),
(1035,855,o),
(1035,906,cs),
(1035,956,o),
(999,986,o),
(877,1063,cs),
(812,1104,o),
(756,1153,o),
(711,1210,c),
(666,1153,o),
(611,1104,o),
(545,1063,cs),
(424,988,o),
(388,957,o),
(388,906,cs),
(388,860,o),
(424,825,o),
(533,820,c),
(533,138,l)
);
},
{
closed = 1;
nodes = (
(502,794,l),
(401,805,o),
(354,847,o),
(354,905,cs),
(354,954,o),
(390,1000,o),
(461,1045,cs),
(596,1131,o),
(660,1181,o),
(711,1268,c),
(739,1221,o),
(772,1181,o),
(812,1148,cs),
(852,1115,o),
(904,1079,o),
(970,1038,cs),
(1036,997,o),
(1069,952,o),
(1069,905,cs),
(1069,854,o),
(1030,806,o),
(920,794,c),
(920,107,l),
(502,107,l)
);
},
{
closed = 1;
nodes = (
(942,85,l),
(942,774,l),
(1038,786,o),
(1091,835,o),
(1091,905,cs),
(1091,980,o),
(1036,1025,o),
(908,1105,cs),
(829,1154,o),
(763,1221,o),
(711,1304,c),
(660,1221,o),
(594,1154,o),
(514,1105,cs),
(385,1026,o),
(332,980,o),
(332,905,cs),
(332,841,o),
(377,787,o),
(480,774,c),
(480,85,l)
);
},
{
closed = 1;
nodes = (
(449,95,l),
(449,757,l),
(370,766,o),
(299,818,o),
(299,906,cs),
(299,988,o),
(362,1044,o),
(473,1115,cs),
(580,1183,o),
(664,1251,o),
(709,1358,c),
(713,1358,l),
(731,1315,o),
(757,1275,o),
(792,1239,cs),
(828,1202,o),
(879,1161,o),
(949,1115,cs),
(1055,1046,o),
(1123,990,o),
(1123,906,cs),
(1123,819,o),
(1053,766,o),
(973,757,c),
(973,95,l),
(1002,62,l),
(420,62,l)
);
}
);
width = 1422;
},
{
layerId = "0A5D7F3A-D11E-4113-AD15-39410F1DC5C2";
shapes = (
{
closed = 1;
nodes = (
(1013,26,ls),
(1036,26,o),
(1042,36,o),
(1042,52,cs),
(1042,66,o),
(1032,80,o),
(1023,91,c),
(1008,108,l),
(1008,729,l),
(1099,750,o),
(1158,810,o),
(1158,906,cs),
(1158,942,o),
(1147,977,o),
(1125,1011,cs),
(1103,1045,o),
(1046,1093,o),
(954,1154,cs),
(862,1215,o),
(803,1269,o),
(777,1314,cs),
(737,1384,o),
(732,1393,o),
(711,1393,cs),
(690,1393,o),
(686,1386,o),
(645,1314,cs),
(619,1269,o),
(561,1215,o),
(468,1154,cs),
(376,1093,o),
(319,1045,o),
(297,1011,cs),
(275,977,o),
(264,942,o),
(264,906,cs),
(264,794,o),
(342,745,o),
(414,729,c),
(414,108,l),
(399,91,ls),
(390,81,o),
(380,67,o),
(380,52,cs),
(380,33,o),
(390,26,o),
(409,26,cs)
);
},
{
closed = 1;
nodes = (
(555,840,l),
(443,844,o),
(411,870,o),
(411,908,cs),
(411,940,o),
(449,979,o),
(523,1022,cs),
(598,1066,o),
(661,1118,o),
(711,1177,c),
(761,1118,o),
(824,1066,o),
(899,1022,cs),
(974,978,o),
(1011,940,o),
(1011,908,cs),
(1011,869,o),
(977,844,o),
(868,840,c),
(868,160,l),
(555,160,l)
);
},
{
closed = 1;
nodes = (
(890,138,l),
(890,820,l),
(990,824,o),
(1035,855,o),
(1035,906,cs),
(1035,956,o),
(999,986,o),
(877,1063,cs),
(812,1104,o),
(756,1153,o),
(711,1210,c),
(666,1153,o),
(611,1104,o),
(545,1063,cs),
(424,988,o),
(388,957,o),
(388,906,cs),
(388,860,o),
(424,825,o),
(533,820,c),
(533,138,l)
);
},
{
closed = 1;
nodes = (
(502,794,l),
(401,805,o),
(354,847,o),
(354,905,cs),
(354,954,o),
(390,1000,o),
(461,1045,cs),
(596,1131,o),
(660,1181,o),
(711,1268,c),
(739,1221,o),
(772,1181,o),
(812,1148,cs),
(852,1115,o),
(904,1079,o),
(970,1038,cs),
(1036,997,o),
(1069,952,o),
(1069,905,cs),
(1069,854,o),
(1030,806,o),
(920,794,c),
(920,107,l),
(502,107,l)
);
},
{
closed = 1;
nodes = (
(942,85,l),
(942,774,l),
(1038,786,o),
(1091,835,o),
(1091,905,cs),
(1091,980,o),
(1036,1025,o),
(908,1105,cs),
(829,1154,o),
(763,1221,o),
(711,1304,c),
(660,1221,o),
(594,1154,o),
(514,1105,cs),
(385,1026,o),
(332,980,o),
(332,905,cs),
(332,841,o),
(377,787,o),
(480,774,c),
(480,85,l)
);
},
{
closed = 1;
nodes = (
(449,95,l),
(449,757,l),
(370,766,o),
(299,818,o),
(299,906,cs),
(299,988,o),
(362,1044,o),
(473,1115,cs),
(580,1183,o),
(664,1251,o),
(709,1358,c),
(713,1358,l),
(731,1315,o),
(757,1275,o),
(792,1239,cs),
(828,1202,o),
(879,1161,o),
(949,1115,cs),
(1055,1046,o),
(1123,990,o),
(1123,906,cs),
(1123,819,o),
(1053,766,o),
(973,757,c),
(973,95,l),
(1002,62,l),
(420,62,l)
);
}
);
width = 1422;
}
);
note = k_Sajdah;
unicode = 1769;
}
{
glyphname = OneFarsi;
layers = (
{
background = {
shapes = (
{
closed = 1;
nodes = (
(328,99,o),
(335,149,o),
(335,330,cs),
(335,438,o),
(313,650,o),
(300,683,c),
(278,684,l),
(247,616,ls),
(229,577,o),
(220,550,o),
(218,537,c),
(231,463,o),
(239,409,o),
(243,374,cs),
(247,342,o),
(251,309,o),
(255,277,cs),
(265,195,o),
(266,151,o),
(266,124,cs),
(266,65,o),
(264,26,o),
(260,2,c),
(286,-3,l)
);
}
);
};
layerId = "67C28EBA-5AA6-4F74-BBA1-5BB358529C60";
shapes = (
{
ref = OneArabic;
}
);
width = 564;
},
{
layerId = "0A5D7F3A-D11E-4113-AD15-39410F1DC5C2";
shapes = (
{
ref = OneArabic;
}
);
width = 567;
}
);
note = OneFarsi;
unicode = 1777;
}
{
glyphname = FourUrdu;
layers = (
{
layerId = "67C28EBA-5AA6-4F74-BBA1-5BB358529C60";
shapes = (
{
closed = 1;
nodes = (
(179,43,o),
(189,112,o),
(189,174,cs),
(189,246,o),
(177,326,o),
(166,383,cs),
(159,424,o),
(153,454,o),
(153,462,cs),
(153,488,o),
(162,501,o),
(188,501,cs),
(253,501,o),
(321,361,o),
(340,285,c),
(365,285,l),
(400,362,o),
(472,451,o),
(498,475,c),
(505,478,o),
(547,635,o),
(560,706,c),
(541,711,l),
(502,672,o),
(466,621,o),
(417,525,c),
(411,525,l),
(373,655,o),
(305,686,o),
(240,686,cs),
(132,686,o),
(71,546,o),
(71,438,cs),
(71,408,o),
(79,370,o),
(104,247,cs),
(127,134,o),
(133,93,o),
(133,23,cs),
(133,10,o),
(133,4,o),
(131,-4,c),
(157,-5,l)
);
}
);
width = 594;
},
{
layerId = "0A5D7F3A-D11E-4113-AD15-39410F1DC5C2";
shapes = (
{
closed = 1;
nodes = (
(171,41,o),
(181,100,o),
(181,170,cs),
(181,250,o),
(173,331,o),
(158,418,cs),
(149,473,o),
(144,506,o),
(144,518,cs),
(145,550,o),
(162,566,o),
(197,566,cs),
(275,566,o),
(319,425,o),
(330,369,c),
(344,369,l),
(374,430,o),
(404,472,o),
(474,549,c),
(489,584,o),
(505,631,o),
(523,692,c),
(516,697,l),
(475,655,o),
(432,599,o),
(388,528,c),
(381,528,l),
(353,625,o),
(304,673,o),
(235,673,cs),
(134,673,o),
(81,546,o),
(81,450,cs),
(81,428,o),
(89,366,o),
(104,266,cs),
(126,121,o),
(131,93,o),
(131,23,cs),
(131,14,o),
(131,7,o),
(130,-3,c),
(150,-5,l)
);
}
);
width = 567;
}
);
note = FourUrdu;
unicode = 1780;
}
{
glyphname = "fiveFarsi-ar";
layers = (
{
layerId = "67C28EBA-5AA6-4F74-BBA1-5BB358529C60";
shapes = (
{
closed = 1;
nodes = (
(231,17,o),
(262,42,o),
(278,65,c),
(295,41,o),
(321,33,o),
(363,33,cs),
(410,33,o),
(447,63,o),
(475,124,cs),
(503,185,o),
(516,247,o),
(516,312,cs),
(516,445,o),
(427,567,o),
(314,686,c),
(305,688,l),
(267,655,o),
(194,559,o),
(194,519,c),
(195,517,o),
(195,515,o),
(195,510,c),
(88,371,o),
(52,277,o),
(52,161,cs),
(52,80,o),
(98,17,o),
(178,17,cs)
);
},
{
closed = 1;
nodes = (
(158,209,o),
(128,224,o),
(128,266,cs),
(128,307,o),
(172,389,o),
(273,456,c),
(291,444,o),
(308,432,o),
(326,420,cs),
(397,372,o),
(452,310,o),
(452,270,cs),
(452,241,o),
(431,215,o),
(386,215,cs),
(355,215,o),
(330,226,o),
(312,249,c),
(292,250,l),
(267,225,o),
(240,209,o),
(199,209,cs)
);
}
);
width = 575;
},
{
layerId = "0A5D7F3A-D11E-4113-AD15-39410F1DC5C2";
shapes = (
{
closed = 1;
nodes = (
(215,17,o),
(248,32,o),
(270,64,c),
(287,41,o),
(311,32,o),
(354,32,cs),
(403,32,o),
(437,69,o),
(461,120,cs),
(487,177,o),
(498,250,o),
(498,306,cs),
(498,429,o),
(421,541,o),
(305,663,c),
(296,665,l),
(269,639,o),
(232,586,o),
(232,570,c),
(232,567,o),
(233,565,o),
(233,562,c),
(137,431,o),
(62,298,o),
(62,153,cs),
(62,81,o),
(89,17,o),
(172,17,cs)
);
},
{
closed = 1;
nodes = (
(146,142,o),
(123,170,o),
(123,228,cs),
(123,303,o),
(182,409,o),
(272,503,c),
(292,483,o),
(312,461,o),
(331,440,cs),
(390,373,o),
(439,302,o),
(439,234,cs),
(439,184,o),
(417,151,o),
(375,151,cs),
(339,151,o),
(314,168,o),
(301,202,c),
(288,203,l),
(262,162,o),
(229,142,o),
(191,142,cs)
);
}
);
width = 567;
}
);
note = "fiveFarsi-ar";
unicode = 1781;
}
{
glyphname = SevenUrdu;
layers = (
{
layerId = "67C28EBA-5AA6-4F74-BBA1-5BB358529C60";
shapes = (
{
closed = 1;
nodes = (
(473,29,o),
(516,130,o),
(525,166,c),
(524,180,l),
(520,180,o),
(396,196,o),
(358,202,cs),
(237,220,o),
(192,226,o),
(163,233,c),
(163,237,l),
(168,248,o),
(178,263,o),
(193,280,cs),
(220,311,o),
(261,353,o),
(310,400,cs),
(347,435,o),
(383,470,o),
(420,505,c),
(425,517,o),
(431,542,o),
(440,591,cs),
(454,671,l),
(434,675,l),
(395,630,o),
(324,544,o),
(252,447,cs),
(158,319,o),
(62,173,o),
(38,80,c),
(46,60,l),
(82,48,o),
(384,2,o),
(452,2,c)
);
}
);
width = 590;
},
{
layerId = "0A5D7F3A-D11E-4113-AD15-39410F1DC5C2";
shapes = (
{
closed = 1;
nodes = (
(458,35,o),
(475,67,o),
(492,109,c),
(491,122,l),
(470,125,o),
(413,132,o),
(321,145,cs),
(229,158,o),
(165,167,o),
(130,174,c),
(130,178,l),
(139,198,o),
(154,222,o),
(175,249,cs),
(195,276,o),
(241,332,o),
(297,400,cs),
(330,439,o),
(367,482,o),
(404,525,c),
(408,540,o),
(413,562,o),
(416,584,c),
(424,640,l),
(416,642,l),
(350,563,o),
(294,495,o),
(250,438,cs),
(85,226,o),
(59,146,o),
(48,81,c),
(55,69,l),
(110,53,o),
(383,13,o),
(440,13,c)
);
}
);
width = 567;
}
);
note = SevenUrdu;
unicode = 1783;
}
{
glyphname = uni0775;
layers = (
{
layerId = "67C28EBA-5AA6-4F74-BBA1-5BB358529C60";
width = 907;
},
{
background = {
shapes = (
{
closed = 1;
nodes = (
(292,501,o),
(294,520,o),
(294,582,cs),
(294,617,l),
(301,616,o),
(306,614,o),
(311,614,cs),
(357,614,o),
(380,637,o),
(391,706,c),
(375,708,l),
(363,674,o),
(346,664,o),
(320,664,cs),
(300,664,o),
(289,670,o),
(286,684,cs),
(280,708,l),
(270,708,l),
(261,686,ls),
(257,676,o),
(255,667,o),
(252,659,c),
(255,646,ls),
(261,621,o),
(268,569,o),
(268,539,cs),
(268,531,o),
(268,503,o),
(266,473,c),
(280,470,l)
);
}
);
};
layerId = "0A5D7F3A-D11E-4113-AD15-39410F1DC5C2";
width = 860;
}
);
note = uni0775;
unicode = 1909;
}
{
glyphname = uni08A2;
layers = (
{
background = {
shapes = (
{
closed = 1;
nodes = (
(574,-373,o),
(760,-207,o),
(889,124,c),
(856,135,l),
(772,-39,o),
(632,-139,o),
(433,-139,cs),
(284,-139,o),
(141,-67,o),
(141,100,cs),
(141,165,o),
(159,227,o),
(194,285,cs),
(229,342,o),
(274,394,o),
(329,439,cs),
(384,484,o),
(442,526,o),
(503,563,cs),
(564,600,o),
(609,648,o),
(639,705,c),
(637,719,l),
(573,738,o),
(458,760,o),
(379,760,cs),
(300,760,o),
(244,743,o),
(209,708,cs),
(174,673,o),
(145,621,o),
(123,552,c),
(156,542,l),
(179,589,o),
(206,597,o),
(276,597,cs),
(308,597,o),
(351,593,o),
(403,589,cs),
(415,588,o),
(424,586,o),
(430,584,c),
(275,478,o),
(167,377,o),
(108,281,cs),
(49,185,o),
(18,80,o),
(18,-35,cs),
(18,-234,o),
(145,-373,o),
(355,-373,cs)
);
},
{
closed = 1;
nodes = (
(442,124,l),
(488,156,o),
(534,196,o),
(534,229,cs),
(534,261,o),
(503,286,o),
(448,321,c),
(438,321,l),
(421,310,o),
(360,243,o),
(342,215,c),
(342,205,l),
(371,184,o),
(378,176,o),
(434,124,c)
);
},
{
closed = 1;
nodes = (
(364,908,l),
(401,933,o),
(429,958,o),
(444,981,c),
(460,968,o),
(476,953,o),
(504,926,c),
(512,926,l),
(558,958,o),
(604,998,o),
(604,1031,cs),
(604,1063,o),
(573,1088,o),
(518,1123,c),
(508,1123,l),
(496,1115,o),
(466,1084,o),
(438,1051,c),
(425,1066,o),
(404,1083,o),
(370,1105,c),
(360,1105,l),
(343,1094,o),
(282,1027,o),
(264,999,c),
(264,989,l),
(293,968,o),
(307,955,o),
(356,908,c)
);
}
);
};
layerId = "67C28EBA-5AA6-4F74-BBA1-5BB358529C60";
width = 900;
},
{
background = {
shapes = (
{
closed = 1;
nodes = (
(444,-341,o),
(542,-302,o),
(630,-224,cs),
(719,-146,o),
(792,-34,o),
(850,112,c),
(819,121,l),
(727,-69,o),
(597,-163,o),
(417,-163,cs),
(245,-163,o),
(124,-72,o),
(124,87,cs),
(124,288,o),
(324,470,o),
(499,582,cs),
(535,605,o),
(564,635,o),
(584,677,c),
(583,684,l),
(539,705,o),
(413,720,o),
(353,720,cs),
(267,720,o),
(200,708,o),
(154,568,c),
(179,560,l),
(205,611,o),
(240,613,o),
(288,613,cs),
(328,613,o),
(441,607,o),
(446,599,c),
(310,511,o),
(206,413,o),
(135,306,cs),
(64,198,o),
(28,86,o),
(28,-30,cs),
(28,-214,o),
(141,-341,o),
(337,-341,cs)
);
},
{
closed = 1;
nodes = (
(454,133,l),
(509,172,o),
(536,204,o),
(536,228,cs),
(536,250,o),
(519,273,o),
(458,312,c),
(449,312,l),
(433,301,o),
(379,242,o),
(362,216,c),
(362,208,l),
(389,187,o),
(417,162,o),
(445,133,c)
);
},
{
closed = 1;
nodes = (
(365,919,l),
(407,949,o),
(433,975,o),
(443,995,c),
(462,979,o),
(483,960,o),
(506,937,c),
(515,937,l),
(568,975,o),
(595,1007,o),
(595,1032,cs),
(595,1059,o),
(569,1082,o),
(516,1116,c),
(508,1116,l),
(495,1108,o),
(459,1070,o),
(437,1042,c),
(425,1060,o),
(401,1078,o),
(369,1098,c),
(360,1098,l),
(344,1088,o),
(292,1029,o),
(273,1002,c),
(273,993,l),
(299,972,o),
(327,948,o),
(356,919,c)
);
}
);
};
layerId = "0A5D7F3A-D11E-4113-AD15-39410F1DC5C2";
width = 871;
}
);
note = "jeem-ar";
unicode = 2210;
}
{
glyphname = uni08AD;
layers = (
{
layerId = "67C28EBA-5AA6-4F74-BBA1-5BB358529C60";
shapes = (
{
closed = 1;
nodes = (
(159,-501,o),
(184,-426,o),
(190,-311,cs),
(195,-220,ls),
(202,-92,o),
(211,-41,o),
(221,-10,c),
(196,-2,l),
(132,-110,o),
(124,-121,o),
(118,-270,cs),
(113,-386,ls),
(107,-522,o),
(96,-568,o),
(91,-593,c),
(117,-599,l)
);
}
);
width = 320;
},
{
layerId = "0A5D7F3A-D11E-4113-AD15-39410F1DC5C2";
shapes = (
{
closed = 1;
nodes = (
(165,-501,o),
(188,-409,o),
(194,-323,cs),
(201,-214,ls),
(208,-106,o),
(217,-52,o),
(226,-25,c),
(205,-17,l),
(138,-135,o),
(125,-171,o),
(122,-290,cs),
(119,-399,ls),
(116,-496,o),
(107,-564,o),
(101,-594,c),
(123,-599,l)
);
}
);
width = 330;
}
);
note = "alef-ar.isol";
unicode = 2221;
}
{
glyphname = uni08B6;
layers = (
{
background = {
shapes = (
{
closed = 1;
nodes = (
(551,491,l),
(554,530,o),
(560,591,o),
(564,624,cs),
(573,719,o),
(599,742,o),
(712,758,cs),
(721,759,o),
(729,765,o),
(735,773,cs),
(748,789,o),
(760,828,o),
(760,839,cs),
(760,854,o),
(720,863,o),
(709,863,cs),
(691,863,o),
(680,841,o),
(667,808,cs),
(614,783,o),
(562,741,o),
(541,693,cs),
(526,662,o),
(523,621,o),
(526,560,cs),
(529,491,l)
);
}
);
};
layerId = "67C28EBA-5AA6-4F74-BBA1-5BB358529C60";
width = 1227;
},
{
background = {
shapes = (
{
closed = 1;
nodes = (
(539,428,l),
(542,463,o),
(548,519,o),
(551,549,cs),
(560,635,o),
(583,656,o),
(686,671,cs),
(694,672,o),
(701,677,o),
(707,684,cs),
(718,699,o),
(729,734,o),
(729,744,cs),
(729,758,o),
(693,766,o),
(683,766,cs),
(667,766,o),
(657,746,o),
(645,716,cs),
(597,693,o),
(549,655,o),
(530,612,cs),
(517,583,o),
(515,546,o),
(517,491,cs),
(519,428,l)
);
},
{
ref = Beh;
}
);
};
layerId = "0A5D7F3A-D11E-4113-AD15-39410F1DC5C2";
width = 1175;
}
);
note = Beh;
unicode = 2230;
}
{
category = Letter;
glyphname = uni08C5;
layers = (
{
background = {
shapes = (
{
closed = 1;
nodes = (
(363,908,l),
(400,933,o),
(428,958,o),
(443,981,c),
(454,972,o),
(466,962,o),
(477,951,cs),
(503,926,l),
(511,926,l),
(557,958,o),
(603,998,o),
(603,1031,cs),
(603,1061,o),
(579,1085,o),
(519,1123,c),
(509,1123,l),
(497,1115,o),
(465,1084,o),
(437,1051,c),
(424,1067,o),
(402,1085,o),
(371,1105,c),
(361,1105,l),
(348,1097,o),
(284,1030,o),
(263,999,c),
(263,989,l),
(274,981,o),
(288,971,o),
(312,949,cs),
(355,908,l)
);
},
{
closed = 1;
nodes = (
(436,1091,l),
(492,1135,o),
(514,1163,o),
(514,1183,cs),
(514,1201,o),
(497,1220,o),
(440,1258,c),
(432,1258,l),
(422,1251,o),
(420,1249,o),
(395,1224,cs),
(379,1208,o),
(362,1189,o),
(349,1170,c),
(349,1162,l),
(390,1127,l),
(394,1123,o),
(402,1116,o),
(427,1091,c)
);
}
);
};
layerId = "67C28EBA-5AA6-4F74-BBA1-5BB358529C60";
width = 900;
},
{
background = {
shapes = (
{
closed = 1;
nodes = (
(365,918,l),
(407,948,o),
(432,974,o),
(442,994,c),
(462,978,o),
(483,959,o),
(506,936,c),
(515,936,l),
(568,975,o),
(595,1006,o),
(595,1031,cs),
(595,1059,o),
(569,1082,o),
(517,1116,c),
(508,1116,l),
(495,1107,o),
(460,1068,o),
(437,1041,c),
(426,1058,o),
(403,1075,o),
(369,1097,c),
(360,1097,l),
(344,1087,o),
(292,1028,o),
(273,1001,c),
(273,993,l),
(299,972,o),
(327,947,o),
(356,918,c)
);
},
{
closed = 1;
nodes = (
(434,1092,l),
(488,1136,o),
(512,1162,o),
(512,1183,cs),
(512,1203,o),
(491,1223,o),
(438,1259,c),
(431,1259,l),
(422,1255,o),
(376,1212,o),
(347,1171,c),
(347,1163,l),
(354,1157,o),
(409,1110,o),
(425,1092,c)
);
}
);
};
layerId = "0A5D7F3A-D11E-4113-AD15-39410F1DC5C2";
width = 871;
}
);
script = arabic;
unicode = 2245;
}
{
category = Mark;
glyphname = "dammaturnedbelow-ar";
layers = (
{
anchors = (
{
name = Anchor31;
pos = (0,1172);
},
{
name = Anchor33;
pos = (0,-328);
},
{
name = _Anchor33;
pos = (0,-24);
},
{
name = _bottom;
pos = (0,-81);
}
);
layerId = "67C28EBA-5AA6-4F74-BBA1-5BB358529C60";
shapes = (
{
closed = 1;
nodes = (
(28,-37,o),
(-117,-110,o),
(-117,-216,cs),
(-117,-241,o),
(-105,-267,o),
(-73,-267,cs),
(-22,-267,o),
(12,-215,o),
(12,-171,cs),
(12,-159,o),
(8,-143,o),
(-10,-122,c),
(7,-109,o),
(23,-96,o),
(40,-83,cs),
(69,-60,o),
(100,-34,o),
(130,-6,c),
(122,5,l)
);
},
{
closed = 1;
nodes = (
(-34,-175,o),
(-25,-186,o),
(-25,-198,cs),
(-25,-212,o),
(-34,-225,o),
(-53,-225,cs),
(-71,-225,o),
(-80,-212,o),
(-80,-199,cs),
(-80,-182,o),
(-68,-169,o),
(-56,-158,c)
);
}
);
width = 0;
},
{
anchors = (
{
name = Anchor31;
pos = (0,1172);
},
{
name = Anchor33;
pos = (0,-328);
},
{
name = _Anchor33;
pos = (0,-44);
},
{
name = _bottom;
pos = (0,-82);
}
);
layerId = "0A5D7F3A-D11E-4113-AD15-39410F1DC5C2";
shapes = (
{
closed = 1;
nodes = (
(-9,-66,o),
(-104,-123,o),
(-104,-201,cs),
(-104,-229,o),
(-90,-245,o),
(-66,-245,cs),
(-32,-245,o),
(7,-201,o),
(7,-166,cs),
(7,-156,o),
(3,-138,o),
(-12,-121,c),
(-6,-117,o),
(12,-102,o),
(33,-85,cs),
(65,-59,o),
(104,-27,o),
(121,-11,c),
(116,-4,l)
);
},
{
closed = 1;
nodes = (
(-24,-172,o),
(-23,-176,o),
(-23,-184,cs),
(-23,-195,o),
(-31,-207,o),
(-49,-207,cs),
(-60,-207,o),
(-70,-202,o),
(-70,-187,cs),
(-70,-171,o),
(-58,-159,o),
(-48,-149,c)
);
}
);
width = 0;
}
);
note = "damma-ar";
subCategory = Nonspacing;
unicode = 2275;
}
{
category = Mark;
glyphname = uni08E5_NS;
layers = (
{
anchors = (
{
name = Anchor31;
pos = (0,1172);
},
{
name = _Anchor31;
pos = (-2,958);
},
{
name = _top;
pos = (-2,958);
}
);
layerId = "67C28EBA-5AA6-4F74-BBA1-5BB358529C60";
shapes = (
{
closed = 1;
nodes = (
(37,926,o),
(-2,905,o),
(-32,905,cs),
(-70,905,o),
(-84,928,o),
(-84,966,cs),
(-84,971,o),
(-83,985,o),
(-81,993,c),
(-97,996,l),
(-103,980,o),
(-108,959,o),
(-108,937,cs),
(-108,891,o),
(-85,849,o),
(-31,849,cs),
(6,849,o),
(48,869,o),
(90,913,cs),
(133,958,o),
(154,1013,o),
(154,1058,cs),
(154,1089,o),
(147,1118,o),
(110,1118,cs),
(59,1118,o),
(25,1066,o),
(25,1022,cs),
(25,1007,o),
(31,985,o),
(65,955,c),
(115,993,l),
(77,1020,o),
(62,1034,o),
(62,1049,cs),
(62,1062,o),
(70,1076,o),
(90,1076,cs),
(108,1076,o),
(117,1063,o),
(117,1051,cs),
(117,1033,o),
(113,1016,o),
(81,977,c),
(71,964,l)
);
}
);
width = 0;
},
{
anchors = (
{
name = Anchor31;
pos = (0,1172);
},
{
name = _Anchor31;
pos = (0,926);
},
{
name = _top;
pos = (-2,958);
}
);
layerId = "0A5D7F3A-D11E-4113-AD15-39410F1DC5C2";
shapes = (
{
closed = 1;
nodes = (
(39,910,o),
(6,892,o),
(-19,892,cs),
(-50,892,o),
(-62,911,o),
(-62,943,cs),
(-62,947,o),
(-61,959,o),
(-60,965,c),
(-73,968,l),
(-78,955,o),
(-82,937,o),
(-82,919,cs),
(-82,880,o),
(-63,845,o),
(-18,845,cs),
(13,845,o),
(48,862,o),
(83,899,cs),
(119,937,o),
(136,986,o),
(136,1024,cs),
(136,1052,o),
(128,1071,o),
(99,1071,cs),
(69,1071,o),
(31,1033,o),
(31,997,cs),
(31,981,o),
(34,961,o),
(64,934,c),
(104,965,l),
(69,988,o),
(60,1001,o),
(60,1013,cs),
(60,1024,o),
(66,1035,o),
(83,1035,cs),
(98,1035,o),
(104,1027,o),
(104,1016,cs),
(104,1001,o),
(102,985,o),
(75,952,c),
(67,941,l)
);
}
);
width = 0;
}
);
note = DammatanNS;
subCategory = Nonspacing;
unicode = 2277;
}
{
category = Mark;
glyphname = "kasraCurly-ar";
layers = (
{
anchors = (
{
name = Anchor33;
pos = (0,-229);
},
{
name = _Anchor33;
pos = (0,-24);
},
{
name = _bottom;
pos = (0,-81);
}
);
layerId = "67C28EBA-5AA6-4F74-BBA1-5BB358529C60";
shapes = (
{
closed = 1;
nodes = (
(-108,-207,l),
(-109,-190,o),
(-100,-178,o),
(-63,-158,cs),
(99,-69,ls),
(132,-51,o),
(147,-28,o),
(147,4,cs),
(147,14,o),
(146,25,o),
(143,37,c),
(128,32,l),
(129,10,o),
(123,-1,o),
(87,-22,cs),
(60,-38,o),
(-15,-78,o),
(-75,-111,cs),
(-109,-130,o),
(-126,-153,o),
(-126,-188,cs),
(-126,-196,o),
(-125,-205,o),
(-123,-214,c)
);
}
);
width = 0;
},
{
anchors = (
{
name = Anchor33;
pos = (0,-229);
},
{
name = _Anchor33;
pos = (0,-44);
},
{
name = _bottom;
pos = (0,-82);
}
);
layerId = "0A5D7F3A-D11E-4113-AD15-39410F1DC5C2";
shapes = (
{
closed = 1;
nodes = (
(-102,-192,l),
(-103,-178,o),
(-95,-168,o),
(-64,-151,cs),
(85,-70,ls),
(113,-55,o),
(125,-36,o),
(125,-9,cs),
(125,-1,o),
(124,9,o),
(121,19,c),
(109,14,l),
(110,-4,o),
(105,-13,o),
(75,-31,cs),
(52,-44,o),
(-24,-84,o),
(-74,-112,cs),
(-103,-128,o),
(-117,-147,o),
(-117,-176,cs),
(-117,-183,o),
(-116,-190,o),
(-114,-198,c)
);
}
);
width = 0;
}
);
note = "kasra-ar";
subCategory = Nonspacing;
unicode = 2278;
}
{
category = Mark;
glyphname = "fathatanCurly-ar";
layers = (
{
anchors = (
{
name = Anchor31;
pos = (0,1193);
},
{
name = _Anchor31;
pos = (0,959);
},
{
name = _top;
pos = (0,959);
}
);
layerId = "67C28EBA-5AA6-4F74-BBA1-5BB358529C60";
shapes = (
{
closed = 1;
nodes = (
(-94,957,l),
(-95,974,o),
(-86,986,o),
(-49,1006,cs),
(113,1095,ls),
(146,1113,o),
(161,1136,o),
(161,1168,cs),
(161,1178,o),
(160,1189,o),
(157,1201,c),
(142,1196,l),
(143,1174,o),
(137,1163,o),
(101,1142,cs),
(74,1126,o),
(-1,1086,o),
(-61,1053,cs),
(-95,1034,o),
(-112,1011,o),
(-112,976,cs),
(-112,968,o),
(-111,959,o),
(-109,950,c)
);
},
{
closed = 1;
nodes = (
(-100,840,l),
(-101,862,o),
(-95,873,o),
(-59,894,cs),
(-32,910,o),
(43,950,o),
(103,983,cs),
(137,1002,o),
(154,1025,o),
(154,1060,cs),
(154,1068,o),
(153,1077,o),
(151,1086,c),
(136,1079,l),
(137,1062,o),
(128,1050,o),
(91,1030,cs),
(-71,941,ls),
(-104,923,o),
(-119,900,o),
(-119,868,cs),
(-119,858,o),
(-118,847,o),
(-115,835,c)
);
}
);
width = 0;
},
{
anchors = (
{
name = Anchor31;
pos = (0,1192);
},
{
name = _Anchor31;
pos = (0,926);
},
{
name = _top;
pos = (0,958);
}
);
layerId = "0A5D7F3A-D11E-4113-AD15-39410F1DC5C2";
shapes = (
{
closed = 1;
nodes = (
(-85,958,l),
(-86,972,o),
(-78,982,o),
(-47,999,cs),
(102,1080,ls),
(130,1095,o),
(142,1114,o),
(142,1141,cs),
(142,1149,o),
(141,1159,o),
(138,1169,c),
(126,1164,l),
(127,1146,o),
(122,1137,o),
(92,1119,cs),
(69,1106,o),
(-7,1066,o),
(-57,1038,cs),
(-86,1022,o),
(-100,1003,o),
(-100,974,cs),
(-100,967,o),
(-99,960,o),
(-97,952,c)
);
},
{
closed = 1;
nodes = (
(-90,856,l),
(-91,874,o),
(-86,883,o),
(-56,901,cs),
(-33,914,o),
(43,954,o),
(93,982,cs),
(122,998,o),
(136,1017,o),
(136,1046,cs),
(136,1053,o),
(135,1060,o),
(133,1068,c),
(121,1062,l),
(122,1048,o),
(114,1038,o),
(83,1021,cs),
(-66,940,ls),
(-94,925,o),
(-106,906,o),
(-106,879,cs),
(-106,871,o),
(-105,862,o),
(-102,852,c)
);
}
);
width = 0;
}
);
subCategory = Nonspacing;
unicode = 2279;
}
{
category = Mark;
glyphname = "dammatanCurly-ar";
layers = (
{
anchors = (
{
name = Anchor31;
pos = (0,1141);
},
{
name = _Anchor31;
pos = (0,968);
},
{
name = _top;
pos = (0,968);
}
);
layerId = "67C28EBA-5AA6-4F74-BBA1-5BB358529C60";
shapes = (
{
closed = 1;
nodes = (
(9,914,o),
(-29,905,o),
(-54,905,cs),
(-93,905,o),
(-124,939,o),
(-115,985,c),
(-131,988,l),
(-137,973,o),
(-140,957,o),
(-140,942,cs),
(-140,897,o),
(-112,859,o),
(-58,859,cs),
(-21,859,o),
(19,872,o),
(62,911,cs),
(106,950,o),
(127,997,o),
(127,1038,cs),
(127,1060,o),
(115,1089,o),
(83,1089,cs),
(32,1089,o),
(-2,1037,o),
(-2,993,cs),
(-2,978,o),
(4,956,o),
(38,926,c),
(88,964,l),
(50,991,o),
(35,1005,o),
(35,1020,cs),
(35,1033,o),
(43,1047,o),
(63,1047,cs),
(81,1047,o),
(90,1034,o),
(90,1022,cs),
(90,1003,o),
(87,995,o),
(51,960,c),
(43,952,l)
);
},
{
closed = 1;
nodes = (
(-10,1192,o),
(28,1201,o),
(53,1201,cs),
(92,1201,o),
(124,1167,o),
(115,1121,c),
(131,1118,l),
(137,1133,o),
(140,1149,o),
(140,1164,cs),
(140,1209,o),
(111,1247,o),
(57,1247,cs),
(20,1247,o),
(-20,1234,o),
(-63,1195,cs),
(-107,1156,o),
(-128,1109,o),
(-128,1068,cs),
(-128,1046,o),
(-116,1017,o),
(-84,1017,cs),
(-33,1017,o),
(1,1069,o),
(1,1113,cs),
(1,1128,o),
(-5,1150,o),
(-39,1180,c),
(-89,1142,l),
(-51,1115,o),
(-36,1101,o),
(-36,1086,cs),
(-36,1073,o),
(-44,1059,o),
(-64,1059,cs),
(-82,1059,o),
(-91,1072,o),
(-91,1084,cs),
(-91,1103,o),
(-88,1111,o),
(-52,1146,c),
(-44,1154,l)
);
}
);
width = 0;
},
{
anchors = (
{
name = Anchor31;
pos = (0,1140);
},
{
name = _Anchor31;
pos = (0,864);
},
{
name = _top;
pos = (0,967);
}
);
layerId = "0A5D7F3A-D11E-4113-AD15-39410F1DC5C2";
shapes = (
{
closed = 1;
nodes = (
(8,924,o),
(-23,917,o),
(-44,917,cs),
(-77,917,o),
(-102,945,o),
(-95,983,c),
(-108,986,l),
(-113,973,o),
(-116,960,o),
(-116,947,cs),
(-116,909,o),
(-92,878,o),
(-47,878,cs),
(-17,878,o),
(17,889,o),
(53,922,cs),
(89,954,o),
(107,993,o),
(107,1028,cs),
(107,1046,o),
(97,1070,o),
(70,1070,cs),
(28,1070,o),
(-1,1027,o),
(-1,990,cs),
(-1,978,o),
(4,959,o),
(33,934,c),
(74,966,l),
(43,988,o),
(30,1000,o),
(30,1013,cs),
(30,1023,o),
(37,1035,o),
(53,1035,cs),
(68,1035,o),
(76,1024,o),
(76,1014,cs),
(76,998,o),
(73,992,o),
(43,963,c),
(37,956,l)
);
},
{
closed = 1;
nodes = (
(-7,1156,o),
(24,1163,o),
(45,1163,cs),
(78,1163,o),
(104,1135,o),
(97,1097,c),
(110,1094,l),
(115,1107,o),
(118,1121,o),
(118,1133,cs),
(118,1171,o),
(93,1202,o),
(48,1202,cs),
(18,1202,o),
(-16,1191,o),
(-52,1158,cs),
(-88,1126,o),
(-106,1087,o),
(-106,1053,cs),
(-106,1034,o),
(-96,1010,o),
(-69,1010,cs),
(-27,1010,o),
(2,1053,o),
(2,1090,cs),
(2,1103,o),
(-3,1121,o),
(-32,1146,c),
(-73,1114,l),
(-42,1092,o),
(-29,1080,o),
(-29,1068,cs),
(-29,1057,o),
(-36,1045,o),
(-52,1045,cs),
(-67,1045,o),
(-75,1056,o),
(-75,1066,cs),
(-75,1082,o),
(-72,1088,o),
(-42,1118,c),
(-36,1124,l)
);
}
);
width = 0;
}
);
subCategory = Nonspacing;
unicode = 2280;
}
{
category = Mark;
glyphname = uni08E9_NS;
layers = (
{
anchors = (
{
name = Anchor33;
pos = (0,-328);
},
{
name = _Anchor33;
pos = (0,-24);
},
{
name = _bottom;
pos = (0,-81);
}
);
layerId = "67C28EBA-5AA6-4F74-BBA1-5BB358529C60";
shapes = (
{
closed = 1;
nodes = (
(-108,-207,l),
(-109,-190,o),
(-100,-178,o),
(-63,-158,cs),
(99,-69,ls),
(132,-51,o),
(147,-28,o),
(147,4,cs),
(147,14,o),
(146,25,o),
(143,37,c),
(128,32,l),
(129,10,o),
(123,-1,o),
(87,-22,cs),
(60,-38,o),
(-15,-78,o),
(-75,-111,cs),
(-109,-130,o),
(-126,-153,o),
(-126,-188,cs),
(-126,-196,o),
(-125,-205,o),
(-123,-214,c)
);
},
{
closed = 1;
nodes = (
(-114,-324,l),
(-115,-302,o),
(-109,-291,o),
(-73,-270,cs),
(-46,-254,o),
(29,-214,o),
(89,-181,cs),
(123,-162,o),
(140,-139,o),
(140,-104,cs),
(140,-96,o),
(139,-87,o),
(137,-78,c),
(122,-85,l),
(123,-102,o),
(114,-114,o),
(77,-134,cs),
(-85,-223,ls),
(-118,-241,o),
(-133,-264,o),
(-133,-296,cs),
(-133,-306,o),
(-132,-317,o),
(-129,-329,c)
);
}
);
width = 0;
},
{
anchors = (
{
name = Anchor33;
pos = (0,-328);
},
{
name = _Anchor33;
pos = (0,-44);
},
{
name = _bottom;
pos = (0,-82);
}
);
layerId = "0A5D7F3A-D11E-4113-AD15-39410F1DC5C2";
shapes = (
{
closed = 1;
nodes = (
(-102,-192,l),
(-103,-178,o),
(-95,-168,o),
(-64,-151,cs),
(85,-70,ls),
(113,-55,o),
(125,-36,o),
(125,-9,cs),
(125,-1,o),
(124,9,o),
(121,19,c),
(109,14,l),
(110,-4,o),
(105,-13,o),
(75,-31,cs),
(52,-44,o),
(-24,-84,o),
(-74,-112,cs),
(-103,-128,o),
(-117,-147,o),
(-117,-176,cs),
(-117,-183,o),
(-116,-190,o),
(-114,-198,c)
);
},
{
closed = 1;
nodes = (
(-107,-294,l),
(-108,-276,o),
(-103,-267,o),
(-73,-249,cs),
(-50,-236,o),
(26,-196,o),
(76,-168,cs),
(105,-152,o),
(119,-133,o),
(119,-104,cs),
(119,-97,o),
(118,-90,o),
(116,-82,c),
(104,-88,l),
(105,-102,o),
(97,-112,o),
(66,-129,cs),
(-83,-210,ls),
(-111,-225,o),
(-123,-244,o),
(-123,-271,cs),
(-123,-279,o),
(-122,-288,o),
(-119,-298,c)
);
}
);
width = 0;
}
);
note = KasratanNS;
subCategory = Nonspacing;
unicode = 2281;
}
{
category = Mark;
glyphname = "toneonedotabove-ar";
layers = (
{
anchors = (
{
name = Anchor31;
pos = (0,1081);
},
{
name = _Anchor31;
pos = (-4,832);
},
{
name = _top;
pos = (0,921);
}
);
layerId = "67C28EBA-5AA6-4F74-BBA1-5BB358529C60";
shapes = (
{
closed = 1;
nodes = (
(20,918,l),
(49,937,o),
(65,957,o),
(65,969,cs),
(65,981,o),
(51,997,o),
(23,1015,c),
(18,1015,l),
(-10,987,o),
(-18,980,o),
(-30,962,c),
(-30,957,l),
(-20,949,o),
(2,931,o),
(15,918,c)
);
}
);
width = 0;
},
{
anchors = (
{
name = Anchor31;
pos = (0,1081);
},
{
name = _Anchor31;
pos = (-5,831);
},
{
name = _top;
pos = (0,920);
}
);
layerId = "0A5D7F3A-D11E-4113-AD15-39410F1DC5C2";
shapes = (
{
closed = 1;
nodes = (
(2,929,l),
(29,947,o),
(43,964,o),
(43,976,cs),
(43,990,o),
(32,1001,o),
(5,1018,c),
(0,1018,l),
(-5,1013,o),
(-26,993,o),
(-43,970,c),
(-43,965,l),
(-31,955,o),
(-12,940,o),
(-2,929,c)
);
}
);
width = 0;
}
);
subCategory = Nonspacing;
unicode = 2282;
}
{
category = Mark;
glyphname = "tonetwodotsabove-ar";
layers = (
{
anchors = (
{
name = Anchor31;
pos = (0,1081);
},
{
name = _Anchor31;
pos = (-4,832);
},
{
name = _top;
pos = (0,921);
}
);
layerId = "67C28EBA-5AA6-4F74-BBA1-5BB358529C60";
shapes = (
{
closed = 1;
nodes = (
(88,931,l),
(117,950,o),
(133,970,o),
(133,982,cs),
(133,994,o),
(119,1010,o),
(91,1028,c),
(86,1028,l),
(58,1000,o),
(50,993,o),
(38,975,c),
(38,970,l),
(48,962,o),
(70,944,o),
(83,931,c)
);
},
{
closed = 1;
nodes = (
(-59,889,l),
(-30,908,o),
(-14,928,o),
(-14,940,cs),
(-14,952,o),
(-28,968,o),
(-56,986,c),
(-61,986,l),
(-89,958,o),
(-97,951,o),
(-109,933,c),
(-109,928,l),
(-99,920,o),
(-77,902,o),
(-64,889,c)
);
}
);
width = 0;
},
{
anchors = (
{
name = Anchor31;
pos = (0,1081);
},
{
name = _Anchor31;
pos = (-5,831);
},
{
name = _top;
pos = (0,920);
}
);
layerId = "0A5D7F3A-D11E-4113-AD15-39410F1DC5C2";
shapes = (
{
closed = 1;
nodes = (
(87,954,l),
(114,972,o),
(128,988,o),
(128,1001,cs),
(128,1014,o),
(117,1024,o),
(89,1043,c),
(85,1043,l),
(77,1036,o),
(55,1014,o),
(41,995,c),
(41,990,l),
(51,984,o),
(73,965,o),
(82,954,c)
);
},
{
closed = 1;
nodes = (
(-63,913,l),
(-36,931,o),
(-22,948,o),
(-22,960,cs),
(-22,973,o),
(-33,984,o),
(-61,1002,c),
(-65,1002,l),
(-70,997,o),
(-91,977,o),
(-108,954,c),
(-108,949,l),
(-96,939,o),
(-77,924,o),
(-67,913,c)
);
}
);
width = 0;
}
);
subCategory = Nonspacing;
unicode = 2283;
}
{
category = Mark;
glyphname = uni08EC_NS;
layers = (
{
anchors = (
{
name = Anchor31;
pos = (0,1081);
},
{
name = _Anchor31;
pos = (-4,832);
},
{
name = _top;
pos = (0,921);
}
);
layerId = "67C28EBA-5AA6-4F74-BBA1-5BB358529C60";
shapes = (
{
closed = 1;
nodes = (
(63,946,o),
(90,924,o),
(126,886,c),
(147,903,l),
(129,925,o),
(75,989,o),
(48,1011,cs),
(18,1035,o),
(-7,1046,o),
(-37,1046,cs),
(-83,1046,o),
(-146,1008,o),
(-146,954,cs),
(-146,913,o),
(-110,883,o),
(-69,883,cs),
(-14,883,o),
(33,913,o),
(78,954,cs),
(153,1023,l),
(136,1040,l),
(42,962,l),
(12,939,o),
(-20,928,o),
(-46,928,cs),
(-76,928,o),
(-100,945,o),
(-100,968,cs),
(-100,984,o),
(-84,1005,o),
(-54,1005,cs),
(-27,1005,o),
(3,992,o),
(44,959,c),
(54,952,l)
);
}
);
width = 0;
},
{
anchors = (
{
name = Anchor31;
pos = (0,1081);
},
{
name = _Anchor31;
pos = (-5,831);
},
{
name = _top;
pos = (0,920);
}
);
layerId = "0A5D7F3A-D11E-4113-AD15-39410F1DC5C2";
shapes = (
{
closed = 1;
nodes = (
(53,949,o),
(76,931,o),
(106,899,c),
(123,913,l),
(108,932,o),
(63,985,o),
(41,1003,cs),
(16,1023,o),
(-5,1032,o),
(-30,1032,cs),
(-69,1032,o),
(-121,1001,o),
(-121,956,cs),
(-121,922,o),
(-91,897,o),
(-57,897,cs),
(-11,897,o),
(28,922,o),
(66,956,cs),
(128,1013,l),
(114,1027,l),
(36,962,l),
(11,943,o),
(-16,934,o),
(-38,934,cs),
(-63,934,o),
(-83,948,o),
(-83,967,cs),
(-83,981,o),
(-69,998,o),
(-44,998,cs),
(-22,998,o),
(3,987,o),
(37,960,c),
(46,954,l)
);
}
);
width = 0;
}
);
note = TahSmallNS;
subCategory = Nonspacing;
unicode = 2284;
}
{
category = Mark;
glyphname = uni08EF_NS;
layers = (
{
anchors = (
{
name = Anchor33;
pos = (0,-229);
},
{
name = _Anchor33;
pos = (0,-24);
},
{
name = _bottom;
pos = (0,-81);
}
);
layerId = "67C28EBA-5AA6-4F74-BBA1-5BB358529C60";
shapes = (
{
closed = 1;
nodes = (
(59,-106,o),
(86,-128,o),
(122,-166,c),
(143,-149,l),
(125,-127,o),
(71,-63,o),
(44,-41,cs),
(14,-17,o),
(-11,-6,o),
(-41,-6,cs),
(-87,-6,o),
(-150,-44,o),
(-150,-98,cs),
(-150,-139,o),
(-114,-169,o),
(-73,-169,cs),
(-18,-169,o),
(29,-139,o),
(74,-98,cs),
(149,-29,l),
(132,-12,l),
(38,-90,l),
(8,-113,o),
(-24,-124,o),
(-50,-124,cs),
(-80,-124,o),
(-104,-107,o),
(-104,-84,cs),
(-104,-68,o),
(-88,-47,o),
(-58,-47,cs),
(-31,-47,o),
(-1,-60,o),
(40,-93,c),
(50,-100,l)
);
}
);
width = 0;
},
{
anchors = (
{
name = Anchor33;
pos = (0,-229);
},
{
name = _Anchor33;
pos = (0,-44);
},
{
name = _bottom;
pos = (0,-82);
}
);
layerId = "0A5D7F3A-D11E-4113-AD15-39410F1DC5C2";
shapes = (
{
closed = 1;
nodes = (
(53,-99,o),
(76,-117,o),
(106,-149,c),
(123,-135,l),
(108,-116,o),
(63,-63,o),
(41,-45,cs),
(16,-25,o),
(-5,-16,o),
(-30,-16,cs),
(-69,-16,o),
(-121,-47,o),
(-121,-92,cs),
(-121,-126,o),
(-91,-151,o),
(-57,-151,cs),
(-11,-151,o),
(28,-127,o),
(66,-92,cs),
(128,-35,l),
(114,-21,l),
(36,-86,l),
(11,-105,o),
(-16,-114,o),
(-38,-114,cs),
(-63,-114,o),
(-83,-100,o),
(-83,-81,cs),
(-83,-67,o),
(-69,-50,o),
(-44,-50,cs),
(-22,-50,o),
(3,-61,o),
(37,-88,c),
(46,-94,l)
);
}
);
width = 0;
}
);
note = Fatha2dotsAltNS;
subCategory = Nonspacing;
unicode = 2287;
}
{
category = Mark;
glyphname = "wawHigh-ar";
layers = (
{
anchors = (
{
name = Anchor31;
pos = (0,1172);
},
{
name = _Anchor31;
pos = (0,926);
},
{
name = _top;
pos = (-2,958);
}
);
layerId = "0A5D7F3A-D11E-4113-AD15-39410F1DC5C2";
shapes = (
{
closed = 1;
nodes = (
(93,1103,o),
(72,1110,o),
(47,1103,cs),
(17,1095,o),
(-8,1046,o),
(1,1014,cs),
(5,999,o),
(13,983,o),
(34,971,c),
(27,963,o),
(22,953,o),
(15,947,c),
(-9,929,l),
(-41,905,o),
(-81,889,o),
(-117,868,c),
(-113,846,l),
(-24,879,l),
(18,897,l),
(87,935,o),
(122,1004,o),
(102,1073,cs)
);
},
{
closed = 1;
nodes = (
(39,1015,o),
(29,1025,o),
(30,1037,cs),
(29,1052,o),
(39,1060,o),
(52,1059,cs),
(68,1059,o),
(74,1051,o),
(73,1040,cs),
(73,1024,o),
(64,1014,o),
(53,1003,c)
);
}
);
width = 0;
},
{
anchors = (
{
name = Anchor31;
pos = (0,1172);
},
{
name = _Anchor31;
pos = (-2,958);
},
{
name = _top;
pos = (-2,958);
}
);
layerId = "67C28EBA-5AA6-4F74-BBA1-5BB358529C60";
shapes = (
{
closed = 1;
nodes = (
(94,1117,o),
(71,1125,o),
(44,1117,cs),
(11,1109,o),
(-16,1055,o),
(-6,1020,cs),
(-2,1004,o),
(7,987,o),
(29,974,c),
(22,965,o),
(16,954,o),
(9,947,c),
(-17,928,l),
(-52,902,o),
(-96,884,o),
(-135,861,c),
(-131,837,l),
(-34,873,l),
(12,893,l),
(87,934,o),
(125,1010,o),
(104,1085,cs)
);
},
{
closed = 1;
nodes = (
(35,1022,o),
(24,1032,o),
(25,1046,cs),
(24,1062,o),
(35,1071,o),
(49,1069,cs),
(67,1069,o),
(73,1061,o),
(72,1049,cs),
(72,1031,o),
(62,1020,o),
(50,1008,c)
);
}
);
width = 0;
}
);
subCategory = Nonspacing;
unicode = 2291;
}
{
category = Mark;
glyphname = "fathaRing-ar";
layers = (
{
anchors = (
{
name = Anchor31;
pos = (0,1093);
},
{
name = _Anchor31;
pos = (0,959);
},
{
name = _top;
pos = (0,959);
}
);
layerId = "67C28EBA-5AA6-4F74-BBA1-5BB358529C60";
shapes = (
{
closed = 1;
nodes = (
(-136,863,o),
(-117,875,o),
(-89,890,cs),
(100,994,ls),
(130,1010,o),
(148,1033,o),
(160,1069,c),
(147,1076,l),
(143,1073,o),
(132,1065,o),
(92,1043,cs),
(-66,955,ls),
(-134,917,o),
(-150,897,o),
(-159,859,c),
(-147,851,l)
);
},
{
closed = 1;
nodes = (
(25,857,o),
(49,868,o),
(69,890,cs),
(88,911,o),
(97,938,o),
(97,972,cs),
(97,1027,o),
(57,1073,o),
(9,1073,cs),
(-63,1073,o),
(-100,1009,o),
(-100,951,cs),
(-100,897,o),
(-58,857,o),
(-6,857,cs)
);
},
{
closed = 1;
nodes = (
(-46,899,o),
(-69,923,o),
(-69,961,cs),
(-69,1006,o),
(-33,1027,o),
(0,1027,cs),
(27,1027,o),
(68,1014,o),
(68,973,cs),
(68,936,o),
(45,899,o),
(-1,899,cs)
);
}
);
width = 0;
},
{
anchors = (
{
name = Anchor31;
pos = (0,1093);
},
{
name = _Anchor31;
pos = (0,926);
},
{
name = _top;
pos = (0,958);
}
);
layerId = "0A5D7F3A-D11E-4113-AD15-39410F1DC5C2";
shapes = (
{
closed = 1;
nodes = (
(-113,875,o),
(-97,885,o),
(-74,897,cs),
(83,984,ls),
(108,997,o),
(123,1016,o),
(133,1046,c),
(123,1052,l),
(119,1050,o),
(110,1043,o),
(77,1025,cs),
(-55,951,ls),
(-112,920,o),
(-125,903,o),
(-132,871,c),
(-122,865,l)
);
},
{
closed = 1;
nodes = (
(21,870,o),
(41,879,o),
(58,897,cs),
(73,915,o),
(81,937,o),
(81,966,cs),
(81,1011,o),
(48,1050,o),
(8,1050,cs),
(-52,1050,o),
(-83,996,o),
(-83,948,cs),
(-83,903,o),
(-48,870,o),
(-5,870,cs)
);
},
{
closed = 1;
nodes = (
(-38,905,o),
(-57,925,o),
(-57,956,cs),
(-57,994,o),
(-27,1011,o),
(0,1011,cs),
(23,1011,o),
(57,1001,o),
(57,966,cs),
(57,936,o),
(38,905,o),
(-1,905,cs)
);
}
);
width = 0;
}
);
subCategory = Nonspacing;
unicode = 2292;
}
{
category = Mark;
glyphname = uni08F5_NS;
layers = (
{
anchors = (
{
name = Anchor31;
pos = (0,1093);
},
{
name = _Anchor31;
pos = (0,926);
},
{
name = _top;
pos = (0,959);
}
);
layerId = "67C28EBA-5AA6-4F74-BBA1-5BB358529C60";
shapes = (
{
closed = 1;
nodes = (
(-108,884,o),
(-89,896,o),
(-61,911,cs),
(92,995,ls),
(123,1012,o),
(140,1034,o),
(152,1070,c),
(139,1077,l),
(134,1073,o),
(126,1068,o),
(115,1062,cs),
(64,1033,o),
(13,1005,o),
(-38,976,cs),
(-106,938,o),
(-122,918,o),
(-131,880,c),
(-119,872,l)
);
},
{
closed = 1;
nodes = (
(-46,1019,l),
(-19,1037,o),
(-5,1055,o),
(-5,1066,cs),
(-5,1077,o),
(-18,1091,o),
(-43,1108,c),
(-48,1108,l),
(-73,1082,o),
(-80,1076,o),
(-91,1059,c),
(-91,1055,l),
(-82,1048,o),
(-62,1031,o),
(-50,1019,c)
);
}
);
width = 0;
},
{
anchors = (
{
name = Anchor31;
pos = (0,1093);
},
{
name = _Anchor31;
pos = (0,926);
},
{
name = _top;
pos = (0,958);
}
);
layerId = "0A5D7F3A-D11E-4113-AD15-39410F1DC5C2";
shapes = (
{
closed = 1;
nodes = (
(-101,892,o),
(-88,900,o),
(-56,918,cs),
(83,994,ls),
(113,1011,o),
(127,1033,o),
(138,1061,c),
(129,1066,l),
(125,1063,o),
(117,1058,o),
(107,1052,cs),
(52,1020,o),
(-5,993,o),
(-59,958,cs),
(-94,935,o),
(-108,919,o),
(-116,888,c),
(-109,882,l)
);
},
{
closed = 1;
nodes = (
(-24,1037,l),
(0,1053,o),
(13,1069,o),
(13,1080,cs),
(13,1092,o),
(3,1102,o),
(-22,1118,c),
(-26,1118,l),
(-31,1113,o),
(-50,1095,o),
(-65,1074,c),
(-65,1070,l),
(-54,1061,o),
(-37,1047,o),
(-28,1037,c)
);
}
);
width = 0;
}
);
note = Fatha2dotsAltNS;
subCategory = Nonspacing;
unicode = 2293;
}
{
category = Mark;
glyphname = "leftarrowheadabove-ar";
layers = (
{
anchors = (
{
name = Anchor31;
pos = (0,1120);
},
{
name = _Anchor31;
pos = (-18,958);
},
{
name = _top;
pos = (-18,958);
}
);
layerId = "67C28EBA-5AA6-4F74-BBA1-5BB358529C60";
shapes = (
{
closed = 1;
nodes = (
(54,1124,l),
(39,1109,o),
(5,1082,o),
(-95,999,c),
(-97,981,l),
(-33,937,o),
(-16,924,o),
(45,876,c),
(56,879,o),
(68,888,o),
(79,899,c),
(80,906,l),
(47,934,o),
(30,943,o),
(-47,996,c),
(-47,999,l),
(-28,1010,o),
(64,1077,o),
(82,1093,c),
(82,1101,l)
);
}
);
width = 0;
},
{
anchors = (
{
name = Anchor31;
pos = (0,1119);
},
{
name = _Anchor31;
pos = (0,864);
},
{
name = _top;
pos = (-18,958);
}
);
layerId = "0A5D7F3A-D11E-4113-AD15-39410F1DC5C2";
shapes = (
{
closed = 1;
nodes = (
(37,1111,l),
(24,1097,o),
(-6,1073,o),
(-96,999,c),
(-97,983,l),
(-40,944,o),
(-25,932,o),
(29,889,c),
(39,892,o),
(50,900,o),
(60,910,c),
(61,916,l),
(31,941,o),
(16,949,o),
(-53,996,c),
(-53,999,l),
(-36,1009,o),
(46,1069,o),
(62,1083,c),
(62,1090,l)
);
}
);
width = 0;
}
);
note = "fathatan-ar";
subCategory = Nonspacing;
unicode = 2295;
}
{
category = Mark;
glyphname = "rightarrowheadabove-ar";
layers = (
{
anchors = (
{
name = Anchor31;
pos = (0,1120);
},
{
name = _Anchor31;
pos = (-18,958);
},
{
name = _top;
pos = (-18,958);
}
);
layerId = "67C28EBA-5AA6-4F74-BBA1-5BB358529C60";
shapes = (
{
closed = 1;
nodes = (
(-59,876,l),
(-44,891,o),
(-10,918,o),
(90,1001,c),
(92,1019,l),
(28,1063,o),
(11,1076,o),
(-50,1124,c),
(-61,1121,o),
(-73,1112,o),
(-84,1101,c),
(-85,1094,l),
(-52,1066,o),
(-35,1057,o),
(42,1004,c),
(42,1001,l),
(23,990,o),
(-69,923,o),
(-87,907,c),
(-87,899,l)
);
}
);
width = 0;
},
{
anchors = (
{
name = Anchor31;
pos = (0,1119);
},
{
name = _Anchor31;
pos = (0,864);
},
{
name = _top;
pos = (-18,958);
}
);
layerId = "0A5D7F3A-D11E-4113-AD15-39410F1DC5C2";
shapes = (
{
closed = 1;
nodes = (
(-42,889,l),
(-29,903,o),
(1,927,o),
(91,1001,c),
(92,1017,l),
(35,1056,o),
(20,1068,o),
(-34,1111,c),
(-44,1108,o),
(-55,1100,o),
(-65,1090,c),
(-66,1084,l),
(-36,1059,o),
(-21,1051,o),
(48,1004,c),
(48,1001,l),
(31,991,o),
(-51,931,o),
(-67,917,c),
(-67,910,l)
);
}
);
width = 0;
}
);
note = "fathatan-ar";
subCategory = Nonspacing;
unicode = 2296;
}
{
category = Mark;
glyphname = "leftarrowheadbelow-ar";
layers = (
{
anchors = (
{
name = Anchor33;
pos = (0,-257);
},
{
name = _Anchor33;
pos = (0,-8);
},
{
name = _bottom;
pos = (0,-99);
}
);
layerId = "67C28EBA-5AA6-4F74-BBA1-5BB358529C60";
shapes = (
{
closed = 1;
nodes = (
(54,-9,l),
(39,-24,o),
(5,-51,o),
(-95,-134,c),
(-97,-152,l),
(-33,-196,o),
(-16,-209,o),
(45,-257,c),
(56,-254,o),
(68,-245,o),
(79,-234,c),
(80,-227,l),
(47,-199,o),
(30,-190,o),
(-47,-137,c),
(-47,-134,l),
(-28,-123,o),
(64,-56,o),
(82,-40,c),
(82,-32,l)
);
}
);
width = 0;
},
{
anchors = (
{
name = Anchor33;
pos = (0,-258);
},
{
name = _Anchor33;
pos = (0,-8);
},
{
name = _bottom;
pos = (0,-99);
}
);
layerId = "0A5D7F3A-D11E-4113-AD15-39410F1DC5C2";
shapes = (
{
closed = 1;
nodes = (
(37,-11,l),
(24,-25,o),
(-6,-49,o),
(-96,-123,c),
(-97,-139,l),
(-40,-178,o),
(-25,-190,o),
(29,-233,c),
(39,-230,o),
(50,-222,o),
(60,-212,c),
(61,-206,l),
(31,-181,o),
(16,-173,o),
(-53,-126,c),
(-53,-123,l),
(-36,-113,o),
(46,-53,o),
(62,-39,c),
(62,-32,l)
);
}
);
width = 0;
}
);
note = "fathatan-ar";
subCategory = Nonspacing;
unicode = 2297;
}
{
category = Mark;
glyphname = uni08FA_NS;
layers = (
{
anchors = (
{
name = Anchor33;
pos = (0,-257);
},
{
name = _Anchor33;
pos = (0,-8);
},
{
name = _bottom;
pos = (0,-99);
}
);
layerId = "67C28EBA-5AA6-4F74-BBA1-5BB358529C60";
shapes = (
{
closed = 1;
nodes = (
(-59,-257,l),
(-44,-242,o),
(-10,-215,o),
(90,-132,c),
(92,-114,l),
(28,-70,o),
(11,-57,o),
(-50,-9,c),
(-61,-12,o),
(-73,-21,o),
(-84,-32,c),
(-85,-39,l),
(-52,-67,o),
(-35,-76,o),
(42,-129,c),
(42,-132,l),
(23,-143,o),
(-69,-210,o),
(-87,-226,c),
(-87,-234,l)
);
}
);
width = 0;
},
{
anchors = (
{
name = Anchor33;
pos = (0,-258);
},
{
name = _Anchor33;
pos = (0,-8);
},
{
name = _bottom;
pos = (0,-99);
}
);
layerId = "0A5D7F3A-D11E-4113-AD15-39410F1DC5C2";
shapes = (
{
closed = 1;
nodes = (
(-42,-233,l),
(-29,-219,o),
(1,-195,o),
(91,-121,c),
(92,-105,l),
(35,-66,o),
(20,-54,o),
(-34,-11,c),
(-44,-14,o),
(-55,-22,o),
(-65,-32,c),
(-66,-38,l),
(-36,-63,o),
(-21,-71,o),
(48,-118,c),
(48,-121,l),
(31,-131,o),
(-51,-191,o),
(-67,-205,c),
(-67,-212,l)
);
}
);
width = 0;
}
);
note = FathatanNS;
subCategory = Nonspacing;
unicode = 2298;
}
{
category = Mark;
glyphname = uni08FC_NS;
layers = (
{
anchors = (
{
name = Anchor31;
pos = (0,1120);
},
{
name = _Anchor31;
pos = (-18,958);
},
{
name = _top;
pos = (-18,958);
}
);
layerId = "67C28EBA-5AA6-4F74-BBA1-5BB358529C60";
shapes = (
{
closed = 1;
nodes = (
(-149,957,l),
(-124,974,o),
(-111,991,o),
(-111,1001,cs),
(-111,1011,o),
(-123,1025,o),
(-147,1040,c),
(-151,1040,l),
(-175,1017,o),
(-182,1010,o),
(-192,994,c),
(-192,991,l),
(-183,984,o),
(-165,969,o),
(-154,957,c)
);
},
{
closed = 1;
nodes = (
(-118,876,l),
(-103,891,o),
(-70,914,o),
(31,997,c),
(32,1011,l),
(-29,1055,o),
(-50,1074,o),
(-111,1124,c),
(-122,1121,o),
(-132,1112,o),
(-143,1101,c),
(-145,1094,l),
(-111,1066,o),
(-94,1053,o),
(-17,1000,c),
(-17,997,l),
(-36,985,o),
(-128,923,o),
(-146,907,c),
(-146,899,l)
);
},
{
closed = 1;
nodes = (
(6,876,l),
(20,891,o),
(54,920,o),
(154,1003,c),
(156,1021,l),
(100,1065,o),
(86,1073,o),
(26,1124,c),
(14,1121,o),
(2,1112,o),
(-9,1101,c),
(-10,1094,l),
(23,1067,o),
(39,1057,o),
(106,1007,c),
(106,1003,l),
(87,992,o),
(-5,919,o),
(-22,904,c),
(-22,896,l)
);
}
);
width = 0;
},
{
anchors = (
{
name = Anchor31;
pos = (0,1119);
},
{
name = _Anchor31;
pos = (0,864);
},
{
name = _top;
pos = (-18,958);
}
);
layerId = "0A5D7F3A-D11E-4113-AD15-39410F1DC5C2";
shapes = (
{
closed = 1;
nodes = (
(-135,962,l),
(-113,977,o),
(-101,992,o),
(-101,1001,cs),
(-101,1010,o),
(-112,1022,o),
(-133,1036,c),
(-137,1036,l),
(-158,1014,o),
(-164,1009,o),
(-173,995,c),
(-173,992,l),
(-165,986,o),
(-149,972,o),
(-139,962,c)
);
},
{
closed = 1;
nodes = (
(-107,889,l),
(-94,903,o),
(-64,923,o),
(26,997,c),
(27,1010,l),
(-28,1049,o),
(-47,1066,o),
(-101,1111,c),
(-111,1108,o),
(-120,1100,o),
(-130,1090,c),
(-131,1084,l),
(-101,1059,o),
(-86,1047,o),
(-17,1000,c),
(-17,997,l),
(-34,987,o),
(-116,931,o),
(-132,917,c),
(-132,910,l)
);
},
{
closed = 1;
nodes = (
(3,889,l),
(16,903,o),
(46,929,o),
(136,1003,c),
(137,1019,l),
(87,1058,o),
(75,1065,o),
(21,1111,c),
(11,1108,o),
(0,1100,o),
(-10,1090,c),
(-11,1084,l),
(19,1060,o),
(33,1051,o),
(93,1006,c),
(93,1003,l),
(76,993,o),
(-6,928,o),
(-22,914,c),
(-22,907,l)
);
}
);
width = 0;
}
);
note = FathatanNS;
subCategory = Nonspacing;
unicode = 2300;
}
{
category = Mark;
glyphname = "dammaDot-ar";
layers = (
{
anchors = (
{
name = Anchor31;
pos = (0,1120);
},
{
name = _Anchor31;
pos = (-18,958);
},
{
name = _top;
pos = (-18,958);
}
);
background = {
shapes = (
{
closed = 1;
nodes = (
(-106,972,l),
(-77,991,o),
(-61,1011,o),
(-61,1023,cs),
(-61,1035,o),
(-75,1051,o),
(-103,1069,c),
(-108,1069,l),
(-136,1041,o),
(-144,1034,o),
(-156,1016,c),
(-156,1011,l),
(-146,1003,o),
(-124,985,o),
(-111,972,c)
);
}
);
};
layerId = "67C28EBA-5AA6-4F74-BBA1-5BB358529C60";
shapes = (
{
closed = 1;
nodes = (
(-106,972,l),
(-77,991,o),
(-61,1011,o),
(-61,1023,cs),
(-61,1035,o),
(-75,1051,o),
(-103,1069,c),
(-108,1069,l),
(-136,1041,o),
(-144,1034,o),
(-156,1016,c),
(-156,1011,l),
(-146,1003,o),
(-124,985,o),
(-111,972,c)
);
},
{
ref = "damma-ar";
}
);
width = 0;
},
{
anchors = (
{
name = Anchor31;
pos = (0,1119);
},
{
name = _Anchor31;
pos = (0,864);
},
{
name = _top;
pos = (-18,958);
}
);
background = {
shapes = (
{
closed = 1;
nodes = (
(14,923,o),
(109,980,o),
(109,1058,cs),
(109,1086,o),
(95,1102,o),
(71,1102,cs),
(37,1102,o),
(-2,1058,o),
(-2,1023,cs),
(-2,1013,o),
(2,995,o),
(17,978,c),
(2,967,o),
(-88,895,o),
(-116,868,c),
(-111,861,l)
);
},
{
closed = 1;
nodes = (
(29,1029,o),
(28,1033,o),
(28,1041,cs),
(28,1052,o),
(36,1064,o),
(54,1064,cs),
(65,1064,o),
(75,1059,o),
(75,1044,cs),
(75,1028,o),
(63,1016,o),
(53,1006,c)
);
}
);
};
layerId = "0A5D7F3A-D11E-4113-AD15-39410F1DC5C2";
shapes = (
{
closed = 1;
nodes = (
(-88,969,l),
(-61,987,o),
(-47,1004,o),
(-47,1016,cs),
(-47,1030,o),
(-58,1041,o),
(-85,1058,c),
(-90,1058,l),
(-95,1053,o),
(-116,1033,o),
(-133,1010,c),
(-133,1005,l),
(-121,995,o),
(-102,980,o),
(-92,969,c)
);
},
{
ref = "damma-ar";
}
);
width = 0;
}
);
note = "damma-ar";
subCategory = Nonspacing;
unicode = 2302;
}
{
category = Mark;
glyphname = ShortVwlNS;
layers = (
{
anchors = (
{
name = Anchor31;
pos = (34,1112);
},
{
name = _Anchor31;
pos = (31,805);
},
{
name = _top;
pos = (31,805);
}
);
layerId = "67C28EBA-5AA6-4F74-BBA1-5BB358529C60";
shapes = (
{
closed = 1;
nodes = (
(45,800,o),
(136,867,o),
(136,960,cs),
(136,1025,o),
(106,1070,o),
(23,1070,cs),
(5,1070,o),
(-19,1068,o),
(-37,1061,c),
(-34,1036,l),
(-30,1037,o),
(-25,1038,o),
(-19,1038,cs),
(37,1038,o),
(54,1006,o),
(54,955,cs),
(54,881,o),
(19,838,o),
(-43,823,c),
(-42,798,l)
);
}
);
width = 0;
},
{
anchors = (
{
name = Anchor31;
pos = (33,1112);
},
{
name = _Anchor31;
pos = (30,804);
},
{
name = _top;
pos = (30,804);
}
);
layerId = "0A5D7F3A-D11E-4113-AD15-39410F1DC5C2";
shapes = (
{
closed = 1;
nodes = (
(47,814,o),
(131,873,o),
(131,959,cs),
(131,1005,o),
(110,1060,o),
(31,1060,cs),
(11,1060,o),
(-5,1056,o),
(-27,1051,c),
(-26,1029,l),
(-23,1030,o),
(-18,1030,o),
(0,1030,cs),
(42,1030,o),
(66,1010,o),
(66,956,cs),
(66,879,o),
(21,847,o),
(-33,834,c),
(-33,812,l)
);
}
);
width = 0;
}
);
note = ShortVwlNS;
subCategory = Nonspacing;
unicode = 2303;
}
{
glyphname = uni200C;
layers = (
{
layerId = "67C28EBA-5AA6-4F74-BBA1-5BB358529C60";
shapes = (
{
closed = 1;
nodes = (
(32,161,l),
(32,1465,l),
(-32,1465,l),
(-32,161,l)
);
}
);
width = 0;
},
{
layerId = "0A5D7F3A-D11E-4113-AD15-39410F1DC5C2";
shapes = (
{
closed = 1;
nodes = (
(32,161,l),
(32,1465,l),
(-32,1465,l),
(-32,161,l)
);
}
);
width = 0;
}
);
unicode = 8204;
}
{
glyphname = uni200D;
layers = (
{
layerId = "67C28EBA-5AA6-4F74-BBA1-5BB358529C60";
shapes = (
{
closed = 1;
nodes = (
(32,161,l),
(32,1202,l),
(149,1083,l),
(192,1126,l),
(42,1274,l),
(192,1422,l),
(149,1465,l),
(0,1315,l),
(-149,1465,l),
(-192,1422,l),
(-42,1274,l),
(-192,1126,l),
(-149,1083,l),
(-32,1202,l),
(-32,161,l)
);
}
);
width = 0;
},
{
layerId = "0A5D7F3A-D11E-4113-AD15-39410F1DC5C2";
shapes = (
{
closed = 1;
nodes = (
(32,161,l),
(32,1202,l),
(149,1083,l),
(192,1126,l),
(42,1274,l),
(192,1422,l),
(149,1465,l),
(0,1315,l),
(-149,1465,l),
(-192,1422,l),
(-42,1274,l),
(-192,1126,l),
(-149,1083,l),
(-32,1202,l),
(-32,161,l)
);
}
);
width = 0;
}
);
note = uni200D;
unicode = 8205;
}
{
glyphname = uni200E;
layers = (
{
layerId = "67C28EBA-5AA6-4F74-BBA1-5BB358529C60";
shapes = (
{
closed = 1;
nodes = (
(31,161,l),
(31,1246,l),
(265,1246,l),
(144,1131,l),
(187,1088,l),
(378,1276,l),
(187,1465,l),
(144,1422,l),
(265,1308,l),
(-32,1308,l),
(-32,161,l)
);
}
);
width = 0;
},
{
layerId = "0A5D7F3A-D11E-4113-AD15-39410F1DC5C2";
shapes = (
{
closed = 1;
nodes = (
(31,161,l),
(31,1246,l),
(265,1246,l),
(144,1131,l),
(187,1088,l),
(378,1276,l),
(187,1465,l),
(144,1422,l),
(265,1308,l),
(-32,1308,l),
(-32,161,l)
);
}
);
width = 0;
}
);
note = uni200E;
unicode = 8206;
}
{
glyphname = uni200F;
layers = (
{
layerId = "67C28EBA-5AA6-4F74-BBA1-5BB358529C60";
shapes = (
{
closed = 1;
nodes = (
(31,161,l),
(31,1308,l),
(-266,1308,l),
(-145,1422,l),
(-188,1465,l),
(-379,1276,l),
(-188,1088,l),
(-145,1131,l),
(-266,1246,l),
(-32,1246,l),
(-32,161,l)
);
}
);
width = 0;
},
{
layerId = "0A5D7F3A-D11E-4113-AD15-39410F1DC5C2";
shapes = (
{
closed = 1;
nodes = (
(31,161,l),
(31,1308,l),
(-266,1308,l),
(-145,1422,l),
(-188,1465,l),
(-379,1276,l),
(-188,1088,l),
(-145,1131,l),
(-266,1246,l),
(-32,1246,l),
(-32,161,l)
);
}
);
width = 0;
}
);
note = uni200F;
unicode = 8207;
}
{
glyphname = uni2010;
layers = (
{
layerId = "67C28EBA-5AA6-4F74-BBA1-5BB358529C60";
shapes = (
{
closed = 1;
nodes = (
(423,6,l),
(431,79,l),
(64,79,l),
(56,6,l)
);
}
);
width = 487;
},
{
layerId = "0A5D7F3A-D11E-4113-AD15-39410F1DC5C2";
shapes = (
{
closed = 1;
nodes = (
(400,11,l),
(407,75,l),
(73,75,l),
(66,11,l)
);
}
);
width = 473;
}
);
note = uni2010;
unicode = 8208;
}
{
glyphname = endash;
layers = (
{
layerId = "67C28EBA-5AA6-4F74-BBA1-5BB358529C60";
shapes = (
{
closed = 1;
nodes = (
(559,261,l),
(559,313,l),
(-14,313,l),
(-14,261,l)
);
}
);
width = 545;
},
{
layerId = "0A5D7F3A-D11E-4113-AD15-39410F1DC5C2";
shapes = (
{
closed = 1;
nodes = (
(517,265,l),
(517,309,l),
(-3,309,l),
(-3,265,l)
);
}
);
width = 513;
}
);
note = endash;
unicode = 8211;
}
{
glyphname = emdash;
layers = (
{
layerId = "67C28EBA-5AA6-4F74-BBA1-5BB358529C60";
shapes = (
{
closed = 1;
nodes = (
(760,261,l),
(760,313,l),
(-14,313,l),
(-14,261,l)
);
}
);
width = 746;
},
{
layerId = "0A5D7F3A-D11E-4113-AD15-39410F1DC5C2";
shapes = (
{
closed = 1;
nodes = (
(700,265,l),
(700,309,l),
(-3,309,l),
(-3,265,l)
);
}
);
width = 696;
}
);
note = emdash;
unicode = 8212;
}
{
glyphname = "quotesingleleft-ar";
layers = (
{
layerId = "67C28EBA-5AA6-4F74-BBA1-5BB358529C60";
shapes = (
{
closed = 1;
nodes = (
(155,688,l),
(192,713,o),
(240,761,o),
(240,788,cs),
(240,800,o),
(236,812,o),
(222,824,cs),
(208,836,o),
(195,848,o),
(181,860,cs),
(160,879,o),
(156,889,o),
(156,906,cs),
(156,933,o),
(161,938,o),
(207,1014,c),
(184,1028,l),
(116,957,o),
(69,864,o),
(69,803,cs),
(69,751,o),
(94,717,o),
(145,688,c)
);
}
);
width = 306;
},
{
layerId = "0A5D7F3A-D11E-4113-AD15-39410F1DC5C2";
shapes = (
{
closed = 1;
nodes = (
(154,698,l),
(187,720,o),
(228,758,o),
(228,783,cs),
(228,791,o),
(224,800,o),
(216,809,cs),
(210,816,o),
(201,824,o),
(190,833,cs),
(162,855,o),
(148,873,o),
(148,886,cs),
(148,915,o),
(163,939,o),
(195,988,c),
(178,1000,l),
(118,937,o),
(79,850,o),
(79,795,cs),
(79,753,o),
(99,729,o),
(145,698,c)
);
}
);
width = 307;
}
);
note = "quotesingleleft-ar";
unicode = 8216;
}
{
glyphname = "quotesingleright-ar";
layers = (
{
layerId = "67C28EBA-5AA6-4F74-BBA1-5BB358529C60";
shapes = (
{
closed = 1;
nodes = (
(191,742,o),
(237,824,o),
(237,887,cs),
(237,930,o),
(216,968,o),
(159,1004,c),
(150,1004,l),
(135,995,o),
(77,936,o),
(59,904,c),
(59,895,l),
(70,887,o),
(82,878,o),
(93,870,cs),
(117,853,o),
(149,822,o),
(149,790,cs),
(149,761,o),
(135,737,o),
(97,679,c),
(120,664,l)
);
}
);
width = 306;
},
{
layerId = "0A5D7F3A-D11E-4113-AD15-39410F1DC5C2";
shapes = (
{
closed = 1;
nodes = (
(188,735,o),
(228,820,o),
(228,876,cs),
(228,917,o),
(205,950,o),
(161,974,c),
(152,974,l),
(116,949,o),
(82,910,o),
(76,890,c),
(76,881,l),
(85,873,o),
(93,866,o),
(100,860,cs),
(144,821,o),
(154,809,o),
(154,782,cs),
(154,752,o),
(142,730,o),
(112,683,c),
(128,671,l)
);
}
);
width = 307;
}
);
unicode = 8217;
}
{
glyphname = quotedblright;
layers = (
{
background = {
shapes = (
{
closed = 1;
nodes = (
(411,742,o),
(457,824,o),
(457,887,cs),
(457,930,o),
(436,968,o),
(379,1004,c),
(370,1004,l),
(355,995,o),
(297,936,o),
(279,904,c),
(279,895,l),
(315,868,ls),
(342,848,o),
(369,822,o),
(369,790,cs),
(369,761,o),
(355,737,o),
(317,679,c),
(340,664,l)
);
},
{
closed = 1;
nodes = (
(191,742,o),
(237,824,o),
(237,887,cs),
(237,930,o),
(216,968,o),
(159,1004,c),
(150,1004,l),
(135,995,o),
(77,936,o),
(59,904,c),
(59,895,l),
(95,868,ls),
(122,848,o),
(149,822,o),
(149,790,cs),
(149,761,o),
(135,737,o),
(97,679,c),
(120,664,l)
);
}
);
};
layerId = "67C28EBA-5AA6-4F74-BBA1-5BB358529C60";
shapes = (
{
pos = (220,0);
ref = "quotesingleright-ar";
},
{
ref = "quotesingleright-ar";
}
);
width = 526;
},
{
background = {
shapes = (
{
closed = 1;
nodes = (
(408,735,o),
(447,820,o),
(447,876,cs),
(447,917,o),
(425,950,o),
(380,974,c),
(372,974,l),
(335,949,o),
(303,911,o),
(295,890,c),
(295,881,l),
(359,825,o),
(374,813,o),
(374,782,cs),
(374,752,o),
(362,730,o),
(332,683,c),
(348,671,l)
);
},
{
closed = 1;
nodes = (
(188,735,o),
(228,820,o),
(228,876,cs),
(228,917,o),
(205,950,o),
(161,974,c),
(152,974,l),
(116,949,o),
(83,911,o),
(76,890,c),
(76,881,l),
(140,825,o),
(154,813,o),
(154,782,cs),
(154,752,o),
(142,730,o),
(112,683,c),
(128,671,l)
);
}
);
};
layerId = "0A5D7F3A-D11E-4113-AD15-39410F1DC5C2";
shapes = (
{
pos = (219,0);
ref = "quotesingleright-ar";
},
{
ref = "quotesingleright-ar";
}
);
width = 526;
}
);
unicode = 8221;
}
{
glyphname = uni2025;
layers = (
{
layerId = "0A5D7F3A-D11E-4113-AD15-39410F1DC5C2";
shapes = (
{
closed = 1;
nodes = (
(121,20,l),
(168,54,o),
(192,82,o),
(192,103,cs),
(192,125,o),
(172,145,o),
(125,175,c),
(117,175,l),
(107,169,o),
(67,128,o),
(42,93,c),
(42,85,l),
(54,77,o),
(95,41,o),
(113,20,c)
);
},
{
closed = 1;
nodes = (
(347,20,l),
(395,55,o),
(418,83,o),
(418,103,cs),
(418,125,o),
(399,145,o),
(352,175,c),
(343,175,l),
(329,165,o),
(288,124,o),
(268,93,c),
(268,85,l),
(281,77,o),
(322,41,o),
(339,20,c)
);
}
);
width = 460;
},
{
layerId = "67C28EBA-5AA6-4F74-BBA1-5BB358529C60";
shapes = (
{
closed = 1;
nodes = (
(137,21,l),
(186,56,o),
(223,90,o),
(223,120,cs),
(223,142,o),
(209,162,o),
(142,206,c),
(132,206,l),
(120,195,o),
(84,161,o),
(42,106,c),
(42,97,l),
(75,74,o),
(84,65,o),
(129,21,c)
);
},
{
closed = 1;
nodes = (
(372,21,l),
(422,56,o),
(458,91,o),
(458,120,cs),
(458,149,o),
(432,170,o),
(378,206,c),
(369,206,l),
(357,197,o),
(303,141,o),
(279,106,c),
(279,97,l),
(301,81,o),
(345,42,o),
(366,21,c)
);
}
);
width = 500;
}
);
unicode = 8229;
}
{
glyphname = uni2026;
layers = (
{
layerId = "0A5D7F3A-D11E-4113-AD15-39410F1DC5C2";
shapes = (
{
closed = 1;
nodes = (
(121,20,l),
(168,54,o),
(192,82,o),
(192,103,cs),
(192,125,o),
(172,145,o),
(125,175,c),
(117,175,l),
(107,169,o),
(67,128,o),
(42,93,c),
(42,85,l),
(54,77,o),
(95,41,o),
(113,20,c)
);
},
{
closed = 1;
nodes = (
(347,20,l),
(395,55,o),
(418,83,o),
(418,103,cs),
(418,125,o),
(399,145,o),
(352,175,c),
(343,175,l),
(329,165,o),
(288,124,o),
(268,93,c),
(268,85,l),
(281,77,o),
(322,41,o),
(339,20,c)
);
},
{
closed = 1;
nodes = (
(574,20,l),
(621,55,o),
(645,83,o),
(645,103,cs),
(645,126,o),
(621,147,o),
(577,175,c),
(570,175,l),
(558,169,o),
(515,122,o),
(495,93,c),
(495,85,l),
(524,63,o),
(547,41,o),
(566,20,c)
);
}
);
width = 687;
},
{
layerId = "67C28EBA-5AA6-4F74-BBA1-5BB358529C60";
shapes = (
{
closed = 1;
nodes = (
(137,21,l),
(186,56,o),
(223,90,o),
(223,120,cs),
(223,142,o),
(209,162,o),
(142,206,c),
(132,206,l),
(120,195,o),
(84,161,o),
(42,106,c),
(42,97,l),
(75,74,o),
(84,65,o),
(129,21,c)
);
},
{
closed = 1;
nodes = (
(372,21,l),
(422,56,o),
(458,91,o),
(458,120,cs),
(458,149,o),
(432,170,o),
(378,206,c),
(369,206,l),
(357,197,o),
(303,141,o),
(279,106,c),
(279,97,l),
(301,81,o),
(345,42,o),
(366,21,c)
);
},
{
closed = 1;
nodes = (
(609,21,l),
(658,56,o),
(696,90,o),
(696,120,cs),
(696,142,o),
(682,162,o),
(615,206,c),
(606,206,l),
(593,195,o),
(557,161,o),
(516,106,c),
(516,97,l),
(548,74,o),
(557,65,o),
(602,21,c)
);
}
);
width = 738;
}
);
unicode = 8230;
}
{
glyphname = guilsinglleft;
layers = (
{
layerId = "67C28EBA-5AA6-4F74-BBA1-5BB358529C60";
shapes = (
{
closed = 1;
nodes = (
(197,19,l),
(201,23,o),
(242,120,o),
(245,140,c),
(184,199,o),
(158,256,o),
(158,347,cs),
(158,417,o),
(188,506,o),
(232,567,c),
(208,585,l),
(139,510,o),
(74,398,o),
(74,255,cs),
(74,168,o),
(99,71,o),
(182,17,c)
);
}
);
width = 319;
},
{
layerId = "0A5D7F3A-D11E-4113-AD15-39410F1DC5C2";
shapes = (
{
closed = 1;
nodes = (
(189,62,l),
(192,64,o),
(217,126,o),
(221,143,c),
(171,190,o),
(147,252,o),
(147,331,cs),
(147,393,o),
(172,473,o),
(216,533,c),
(200,547,l),
(123,462,o),
(84,352,o),
(84,266,cs),
(84,188,o),
(113,104,o),
(180,60,c)
);
}
);
width = 305;
}
);
unicode = 8249;
}
{
glyphname = guilsinglright;
layers = (
{
layerId = "67C28EBA-5AA6-4F74-BBA1-5BB358529C60";
shapes = (
{
closed = 1;
nodes = (
(181,101,o),
(245,213,o),
(245,355,cs),
(245,443,o),
(219,540,o),
(137,593,c),
(122,591,l),
(115,583,o),
(74,481,o),
(74,470,c),
(125,421,o),
(161,364,o),
(161,263,cs),
(161,193,o),
(133,106,o),
(87,43,c),
(111,25,l)
);
}
);
width = 319;
},
{
layerId = "0A5D7F3A-D11E-4113-AD15-39410F1DC5C2";
shapes = (
{
closed = 1;
nodes = (
(192,155,o),
(221,271,o),
(221,343,cs),
(221,409,o),
(202,497,o),
(125,549,c),
(116,547,l),
(112,544,o),
(86,478,o),
(84,467,c),
(134,419,o),
(158,356,o),
(158,279,cs),
(158,216,o),
(132,137,o),
(89,77,c),
(105,63,l)
);
}
);
width = 305;
}
);
unicode = 8250;
}
{
glyphname = MinusArabic;
layers = (
{
layerId = "67C28EBA-5AA6-4F74-BBA1-5BB358529C60";
shapes = (
{
closed = 1;
nodes = (
(554,286,l),
(554,338,l),
(40,338,l),
(40,286,l)
);
}
);
width = 593;
},
{
layerId = "0A5D7F3A-D11E-4113-AD15-39410F1DC5C2";
shapes = (
{
closed = 1;
nodes = (
(518,291,l),
(518,334,l),
(50,334,l),
(50,291,l)
);
}
);
width = 567;
}
);
note = MinusArabic;
unicode = 8722;
}
{
glyphname = uni25CC;
layers = (
{
anchors = (
{
name = Anchor15;
pos = (211,952);
},
{
name = Anchor19;
pos = (623,719);
},
{
name = Anchor21;
pos = (170,87);
},
{
name = Anchor23;
pos = (461,-181);
},
{
name = Anchor25;
pos = (361,349);
},
{
name = Anchor28;
pos = (68,-344);
},
{
name = Anchor31;
pos = (19,1106);
},
{
name = Anchor33;
pos = (50,-324);
},
{
name = Bar;
pos = (595,676);
},
{
name = Ring;
pos = (595,676);
},
{
name = bottom;
pos = (390,-246);
},
{
name = bottom.alt;
pos = (454,-294);
},
{
name = enclosing;
pos = (572,658);
},
{
name = top;
pos = (450,872);
},
{
name = top.alt;
pos = (482,835);
}
);
layerId = "67C28EBA-5AA6-4F74-BBA1-5BB358529C60";
shapes = (
{
closed = 1;
nodes = (
(227,271,o),
(237,281,o),
(237,301,cs),
(237,321,o),
(227,332,o),
(205,332,cs),
(186,332,o),
(176,321,o),
(176,301,cs),
(176,281,o),
(186,271,o),
(205,271,cs)
);
},
{
closed = 1;
nodes = (
(250,178,o),
(261,187,o),
(261,206,cs),
(261,226,o),
(250,236,o),
(229,236,cs),
(210,236,o),
(200,226,o),
(200,206,cs),
(200,187,o),
(210,178,o),
(229,178,cs)
);
},
{
closed = 1;
nodes = (
(319,107,o),
(330,117,o),
(330,136,cs),
(330,157,o),
(319,167,o),
(299,167,cs),
(280,167,o),
(271,157,o),
(271,136,cs),
(271,117,o),
(280,107,o),
(299,107,cs)
);
},
{
closed = 1;
nodes = (
(415,83,o),
(424,93,o),
(424,113,cs),
(424,133,o),
(415,143,o),
(395,143,cs),
(374,143,o),
(364,133,o),
(364,113,cs),
(364,93,o),
(374,83,o),
(395,83,cs)
);
},
{
closed = 1;
nodes = (
(508,107,o),
(518,117,o),
(518,136,cs),
(518,157,o),
(508,167,o),
(489,167,cs),
(473,167,o),
(457,158,o),
(457,136,cs),
(457,117,o),
(468,107,o),
(489,107,cs)
);
},
{
closed = 1;
nodes = (
(250,365,o),
(261,375,o),
(261,396,cs),
(261,416,o),
(250,425,o),
(229,425,cs),
(210,425,o),
(200,416,o),
(200,396,cs),
(200,375,o),
(210,365,o),
(229,365,cs)
);
},
{
closed = 1;
nodes = (
(578,178,o),
(588,187,o),
(588,206,cs),
(588,226,o),
(578,236,o),
(559,236,cs),
(539,236,o),
(529,226,o),
(529,206,cs),
(529,187,o),
(539,178,o),
(559,178,cs)
);
},
{
closed = 1;
nodes = (
(319,436,o),
(330,446,o),
(330,466,cs),
(330,486,o),
(319,496,o),
(299,496,cs),
(280,496,o),
(271,486,o),
(271,466,cs),
(271,446,o),
(280,436,o),
(299,436,cs)
);
},
{
closed = 1;
nodes = (
(415,458,o),
(424,469,o),
(424,490,cs),
(424,510,o),
(415,520,o),
(395,520,cs),
(374,520,o),
(364,510,o),
(364,490,cs),
(364,469,o),
(374,458,o),
(395,458,cs)
);
},
{
closed = 1;
nodes = (
(603,271,o),
(613,281,o),
(613,301,cs),
(613,321,o),
(603,332,o),
(582,332,cs),
(563,332,o),
(553,321,o),
(553,301,cs),
(553,281,o),
(563,271,o),
(582,271,cs)
);
},
{
closed = 1;
nodes = (
(508,436,o),
(518,446,o),
(518,466,cs),
(518,486,o),
(508,496,o),
(489,496,cs),
(473,496,o),
(457,487,o),
(457,466,cs),
(457,443,o),
(475,436,o),
(489,436,cs)
);
},
{
closed = 1;
nodes = (
(578,365,o),
(588,375,o),
(588,396,cs),
(588,416,o),
(578,425,o),
(559,425,cs),
(539,425,o),
(529,416,o),
(529,396,cs),
(529,375,o),
(539,365,o),
(559,365,cs)
);
}
);
width = 789;
},
{
anchors = (
{
name = Anchor15;
pos = (211,952);
},
{
name = Anchor19;
pos = (623,719);
},
{
name = Anchor21;
pos = (170,87);
},
{
name = Anchor23;
pos = (461,-181);
},
{
name = Anchor25;
pos = (361,349);
},
{
name = Anchor28;
pos = (68,-344);
},
{
name = Anchor31;
pos = (19,1106);
},
{
name = Anchor33;
pos = (50,-324);
},
{
name = Bar;
pos = (595,676);
},
{
name = Ring;
pos = (595,676);
},
{
name = bottom;
pos = (390,-246);
},
{
name = bottom.alt;
pos = (454,-294);
},
{
name = enclosing;
pos = (572,658);
},
{
name = top;
pos = (450,872);
},
{
name = top.alt;
pos = (482,835);
}
);
layerId = "0A5D7F3A-D11E-4113-AD15-39410F1DC5C2";
shapes = (
{
closed = 1;
nodes = (
(227,271,o),
(237,281,o),
(237,301,cs),
(237,321,o),
(227,332,o),
(205,332,cs),
(186,332,o),
(176,321,o),
(176,301,cs),
(176,281,o),
(186,271,o),
(205,271,cs)
);
},
{
closed = 1;
nodes = (
(250,178,o),
(261,187,o),
(261,206,cs),
(261,226,o),
(250,236,o),
(229,236,cs),
(210,236,o),
(200,226,o),
(200,206,cs),
(200,187,o),
(210,178,o),
(229,178,cs)
);
},
{
closed = 1;
nodes = (
(319,107,o),
(330,117,o),
(330,136,cs),
(330,157,o),
(319,167,o),
(299,167,cs),
(280,167,o),
(271,157,o),
(271,136,cs),
(271,117,o),
(280,107,o),
(299,107,cs)
);
},
{
closed = 1;
nodes = (
(415,83,o),
(424,93,o),
(424,113,cs),
(424,133,o),
(415,143,o),
(395,143,cs),
(374,143,o),
(364,133,o),
(364,113,cs),
(364,93,o),
(374,83,o),
(395,83,cs)
);
},
{
closed = 1;
nodes = (
(508,107,o),
(518,117,o),
(518,136,cs),
(518,157,o),
(508,167,o),
(489,167,cs),
(473,167,o),
(457,158,o),
(457,136,cs),
(457,117,o),
(468,107,o),
(489,107,cs)
);
},
{
closed = 1;
nodes = (
(250,365,o),
(261,375,o),
(261,396,cs),
(261,416,o),
(250,425,o),
(229,425,cs),
(210,425,o),
(200,416,o),
(200,396,cs),
(200,375,o),
(210,365,o),
(229,365,cs)
);
},
{
closed = 1;
nodes = (
(578,178,o),
(588,187,o),
(588,206,cs),
(588,226,o),
(578,236,o),
(559,236,cs),
(539,236,o),
(529,226,o),
(529,206,cs),
(529,187,o),
(539,178,o),
(559,178,cs)
);
},
{
closed = 1;
nodes = (
(319,436,o),
(330,446,o),
(330,466,cs),
(330,486,o),
(319,496,o),
(299,496,cs),
(280,496,o),
(271,486,o),
(271,466,cs),
(271,446,o),
(280,436,o),
(299,436,cs)
);
},
{
closed = 1;
nodes = (
(415,458,o),
(424,469,o),
(424,490,cs),
(424,510,o),
(415,520,o),
(395,520,cs),
(374,520,o),
(364,510,o),
(364,490,cs),
(364,469,o),
(374,458,o),
(395,458,cs)
);
},
{
closed = 1;
nodes = (
(603,271,o),
(613,281,o),
(613,301,cs),
(613,321,o),
(603,332,o),
(582,332,cs),
(563,332,o),
(553,321,o),
(553,301,cs),
(553,281,o),
(563,271,o),
(582,271,cs)
);
},
{
closed = 1;
nodes = (
(508,436,o),
(518,446,o),
(518,466,cs),
(518,486,o),
(508,496,o),
(489,496,cs),
(473,496,o),
(457,487,o),
(457,466,cs),
(457,443,o),
(475,436,o),
(489,436,cs)
);
},
{
closed = 1;
nodes = (
(578,365,o),
(588,375,o),
(588,396,cs),
(588,416,o),
(578,425,o),
(559,425,cs),
(539,425,o),
(529,416,o),
(529,396,cs),
(529,375,o),
(539,365,o),
(559,365,cs)
);
}
);
width = 789;
}
);
unicode = 9676;
}
{
glyphname = uniFBB2;
layers = (
{
layerId = "67C28EBA-5AA6-4F74-BBA1-5BB358529C60";
shapes = (
{
closed = 1;
nodes = (
(118,431,l),
(164,463,o),
(210,503,o),
(210,536,cs),
(210,568,o),
(179,593,o),
(124,628,c),
(114,628,l),
(97,617,o),
(36,550,o),
(18,522,c),
(18,512,l),
(29,504,o),
(43,494,o),
(67,472,cs),
(110,431,l)
);
}
);
width = 229;
},
{
layerId = "0A5D7F3A-D11E-4113-AD15-39410F1DC5C2";
shapes = (
{
closed = 1;
nodes = (
(118,439,l),
(172,478,o),
(201,511,o),
(201,534,cs),
(201,563,o),
(173,587,o),
(123,619,c),
(114,619,l),
(102,611,o),
(48,555,o),
(26,523,c),
(26,514,l),
(41,502,o),
(55,489,o),
(70,477,c),
(109,439,l)
);
}
);
width = 229;
}
);
unicode = 64434;
}
